<svg width="24" height="24" viewBox="0 0 24 24" fill="none" xmlns="http://www.w3.org/2000/svg">
<path d="M5.52539 7.43607C11.8162 6.31328 11.8643 8.10974 19.1154 7.43607" stroke="#FA4F4F" stroke-width="2"/>
<path d="M5.34915 4.25862C5.34915 3.14346 5.15489 2.04117 4.77918 1H19.2722C18.8965 2.04117 18.7023 3.14346 18.7023 4.25862V6.74056C18.7023 10.4279 15.7131 13.4171 12.0257 13.4171C8.33834 13.4171 5.34915 10.4279 5.34915 6.74055V4.25862Z" stroke="#FA4F4F" stroke-width="2"/>
<path fill-rule="evenodd" clip-rule="evenodd" d="M11.0137 22.129L11.0137 13.9189L13.0137 13.9189L13.0137 22.129L11.0137 22.129Z" fill="#FA4F4F"/>
<path fill-rule="evenodd" clip-rule="evenodd" d="M12.0019 23.4672C8.41882 23.4672 6.76024 23.7886 6.35046 23.9227C5.82559 24.0946 5.2608 23.8084 5.08897 23.2835C4.91713 22.7586 5.20333 22.1938 5.7282 22.022C6.45081 21.7855 8.37133 21.4672 12.0019 21.4672C15.6606 21.4672 17.6913 21.8507 18.2516 22.0109C18.7826 22.1628 19.0899 22.7164 18.9381 23.2473C18.7862 23.7783 18.2327 24.0857 17.7017 23.9338C17.385 23.8433 15.5568 23.4672 12.0019 23.4672Z" fill="#FA4F4F"/>
</svg>
