<svg width="24" height="24" viewBox="0 0 24 24" fill="none" xmlns="http://www.w3.org/2000/svg">
<path d="M2.53628 21.7549C1.25239 20.471 0.925647 18.5134 1.72296 16.8821L2.61505 15.057C5.25367 9.65851 9.6177 5.29448 15.0162 2.65586L16.8413 1.76377C18.4726 0.966449 20.4302 1.29319 21.7141 2.57708C23.3742 4.23724 23.3742 6.92889 21.7141 8.58905L8.54824 21.7549C6.88808 23.415 4.19644 23.415 2.53628 21.7549Z" stroke="#EB292F" stroke-width="2"/>
<path d="M8.78912 10.0476C8.29592 9.79907 7.69462 9.99741 7.44608 10.4906C7.19755 10.9838 7.39589 11.5851 7.88909 11.8337L8.78912 10.0476ZM9.26222 13.8165C9.42169 14.3453 9.97961 14.6446 10.5084 14.4852C11.0371 14.3257 11.3365 13.7678 11.177 13.239L9.26222 13.8165ZM7.88909 11.8337C8.42819 12.1053 8.91514 12.6657 9.26222 13.8165L11.177 13.239C10.7332 11.7675 9.98028 10.6479 8.78912 10.0476L7.88909 11.8337Z" fill="#FA4F4F"/>
<path d="M12.5953 6.49465C12.1119 6.22745 11.5035 6.40267 11.2363 6.88601C10.9691 7.36936 11.1443 7.97779 11.6277 8.24499L12.5953 6.49465ZM12.5922 9.9665C12.6525 10.5155 13.1465 10.9116 13.6955 10.8512C14.2445 10.7908 14.6405 10.2968 14.5802 9.74784L12.5922 9.9665ZM11.6277 8.24499C11.7299 8.30153 11.9601 8.51235 12.1925 8.89684C12.4144 9.26393 12.5583 9.65885 12.5922 9.9665L14.5802 9.74784C14.5065 9.07814 14.2329 8.40616 13.9042 7.86231C13.586 7.33586 13.1326 6.79168 12.5953 6.49465L11.6277 8.24499Z" fill="#FA4F4F"/>
<path d="M16.3852 3.88726C15.8769 3.67111 15.2897 3.90789 15.0736 4.41612C14.8574 4.92436 15.0942 5.51158 15.6024 5.72773L16.3852 3.88726ZM16.1813 7.06463C16.1813 7.61692 16.629 8.06463 17.1813 8.06463C17.7336 8.06463 18.1813 7.61692 18.1813 7.06463L16.1813 7.06463ZM15.6024 5.72773C15.5934 5.72388 15.6357 5.74107 15.713 5.82879C15.7871 5.91287 15.8686 6.03387 15.9444 6.18637C16.1028 6.50464 16.1813 6.84538 16.1813 7.06463L18.1813 7.06463C18.1813 6.47752 18.0023 5.8327 17.7351 5.29549C17.482 4.78689 17.0463 4.16843 16.3852 3.88726L15.6024 5.72773Z" fill="#FA4F4F"/>
<path d="M6.3691 14.0292C5.92662 13.6987 5.3 13.7895 4.96949 14.232C4.63898 14.6745 4.72975 15.3011 5.17222 15.6316L6.3691 14.0292ZM5.9007 16.9582C6.0387 17.493 6.58408 17.8146 7.11885 17.6766C7.65361 17.5386 7.97526 16.9932 7.83727 16.4585L5.9007 16.9582ZM5.17222 15.6316C5.21904 15.6666 5.3613 15.8104 5.52776 16.0854C5.68444 16.3443 5.82193 16.6529 5.9007 16.9582L7.83727 16.4585C7.70366 15.9407 7.48275 15.4529 7.23873 15.0498C7.0045 14.6628 6.70379 14.2792 6.3691 14.0292L5.17222 15.6316Z" fill="#FA4F4F"/>
</svg>
