<svg width="24" height="25" viewBox="0 0 24 25" fill="none" xmlns="http://www.w3.org/2000/svg">
<path d="M16.5408 19.4818C16.5408 21.9734 14.5119 24 12.0009 24C9.48983 24 7.46094 21.9734 7.46094 19.4818C7.46094 16.9901 9.48983 14.9635 12.0009 14.9635C14.5119 14.9635 16.5408 16.9901 16.5408 19.4818Z" stroke="#FA4F4F" stroke-width="2"/>
<path d="M22.0331 14.4719C22.1605 14.9475 22.0697 15.5017 21.662 16.1379C21.2483 16.7834 20.5395 17.4549 19.5709 18.0676C17.6347 19.2925 14.852 20.1614 11.999 20.1614C9.13972 20.1614 6.25048 19.2972 4.26235 18.0732C3.26623 17.46 2.55859 16.7948 2.17191 16.1667C1.79906 15.5611 1.74843 15.0437 1.93067 14.5765C2.17868 13.9408 2.50223 13.6039 2.88634 13.3939C3.30576 13.1645 3.89124 13.0354 4.74435 13.0006C5.59715 12.9659 6.60518 13.0271 7.83666 13.1033L7.84511 13.1038C9.05676 13.1787 10.449 13.2649 11.999 13.2649C13.5239 13.2649 14.9214 13.1834 16.15 13.1119L16.2158 13.108C17.4778 13.0345 18.5268 12.9759 19.4072 13.0126C20.2956 13.0497 20.8841 13.182 21.2754 13.4018C21.6144 13.5923 21.8765 13.8872 22.0331 14.4719Z" fill="white" stroke="#EB292F" stroke-width="2"/>
<rect x="10.7148" y="10.672" width="2.70546" height="4.32076" fill="white"/>
<path d="M11.9995 1.9859C9.5555 1.9859 7.57422 3.96718 7.57422 6.41122C7.57422 7.76309 8.1804 8.97339 9.13579 9.78511C11.5209 12.1223 10.7679 14.1935 9.3095 15.7026C9.63357 16.6846 10.8962 16.9649 12.0127 16.9649C13.4038 16.9649 14.1942 16.6487 14.6896 15.7026C13.2312 14.1935 12.4781 12.1223 14.8633 9.78511C15.8187 8.97339 16.4249 7.76309 16.4249 6.41122C16.4249 3.96718 14.4436 1.9859 11.9995 1.9859Z" stroke="#EB292F" stroke-width="2" stroke-linecap="round" stroke-linejoin="round"/>
<path d="M10.7148 5.91804C10.7297 5.72881 10.8974 5.29024 11.4495 5.0498" stroke="#EB292F" stroke-width="2" stroke-linecap="round" stroke-linejoin="round"/>
</svg>
