<svg width="24" height="24" viewBox="0 0 24 24" fill="none" xmlns="http://www.w3.org/2000/svg">
<path d="M5.62305 16.9064C6.81355 16.9064 6.81347 13.1224 8.3866 13.1224C9.95972 13.1224 9.95969 15.7584 11.1927 15.7584C12.4256 15.7584 13.4205 9.91694 15.4017 9.89121C17.383 9.86548 17.7401 15.0356 19.9509 15.7584" stroke="#FA4F4F" stroke-width="2"/>
<circle cx="11.9999" cy="12" r="10.9999" stroke="#EB292F" stroke-width="2"/>
<circle cx="12.0011" cy="12" r="8.06951" stroke="#EB292F" stroke-width="2"/>
<path d="M1 9.22125C1 8.66897 1.44772 8.22125 2 8.22125H4.44054C4.9139 8.22125 5.32242 8.55315 5.41935 9.01648L6.00094 11.7965C6.0292 11.9315 6.0292 12.071 6.00094 12.206L5.41935 14.986C5.32242 15.4494 4.9139 15.7813 4.44054 15.7813H2C1.44772 15.7813 1 15.3335 1 14.7813V9.22125Z" fill="white" stroke="#EB292F" stroke-width="2"/>
</svg>
