<svg width="24" height="24" viewBox="0 0 24 24" fill="none" xmlns="http://www.w3.org/2000/svg">
<path fill-rule="evenodd" clip-rule="evenodd" d="M7.01316 6.15285V9.02633L7.00478 9.03458V22H16.9955V9.58203V9.03488V6.10214L18.9937 8.16512V8.1952L19.7215 8.91139L21.6018 7.1609L20.075 5.4517L20.076 5.44586L16.9841 1.98633H15.6158C15.4811 3.87844 13.9048 5.37155 11.9801 5.37155C10.0554 5.37155 8.47917 3.87844 8.34443 1.98633H7.00575L2.58698 6.94466L2.58921 6.94705L2.39818 7.1609L4.27853 8.91139L5.00662 8.19491V8.17458L7.01316 6.15285ZM10.3559 1.98633C10.4817 2.77282 11.1624 3.37155 11.9801 3.37155C12.7978 3.37155 13.4785 2.77282 13.6043 1.98633H10.3559ZM5.4594 0.732069C5.82586 0.285129 6.38205 0 7.00478 0H16.9955C17.6201 0 18.1778 0.286846 18.5442 0.736104L20.0349 2.40474L23.7457 6.55871C24.1084 6.96472 24.0798 7.58658 23.6813 7.9575L20.3827 11.0283C19.9914 11.3926 19.3829 11.3842 19.0019 11.0092L18.9937 11.0012V22C18.9937 23.1046 18.0991 24 16.9955 24H7.00478C5.90123 24 5.00662 23.1046 5.00662 22V11.0009L4.99816 11.0092C4.61708 11.3842 4.00864 11.3926 3.61732 11.0283L0.318667 7.9575C-0.0797738 7.58658 -0.108383 6.96472 0.254314 6.55871L3.96516 2.40474L5.4594 0.732069Z" fill="#EB292F"/>
<path d="M9.03125 7.93265H11.6327V10.4456L10.332 11.0109L9.03125 10.4456V7.93265Z" stroke="#FA4F4F" stroke-width="2"/>
</svg>
