<svg width="24" height="24" viewBox="0 0 24 24" fill="none" xmlns="http://www.w3.org/2000/svg">
<path d="M5.90625 3.79567C6.14337 3.11793 7.16659 1.76244 9.36255 1.76244C12.1075 1.76244 16.8181 1.71162 18.6988 1" stroke="#EB292F" stroke-width="2" stroke-linecap="round" stroke-linejoin="round"/>
<path d="M8.31641 7.80414C8.31641 7.25185 8.76412 6.80414 9.31641 6.80414H13.9615C14.5138 6.80414 14.9615 7.25185 14.9615 7.80414V11.0396H8.31641V7.80414Z" fill="white" stroke="#EB292F" stroke-width="2"/>
<path d="M3.00043 12.8625C3.00592 11.712 3.85485 10.7853 5.07459 10.6408C6.86086 10.4292 9.28368 10.2118 11.6861 10.2118C14.0574 10.2118 16.4488 10.4236 18.2284 10.6327C19.4822 10.7799 20.3807 11.7508 20.397 12.9415C20.4118 14.0271 20.3752 15.3785 20.2171 16.9013C20.0596 18.417 19.8439 19.7649 19.637 20.8536C19.4024 22.0876 18.2919 22.9693 16.9463 22.9693H6.06645C4.85248 22.9693 3.9172 22.2497 3.71422 21.2245C3.50631 20.1744 3.29347 18.7549 3.15767 16.9304C3.03184 15.2401 2.99551 13.8933 3.00043 12.8625Z" fill="white" stroke="#EB292F" stroke-width="2"/>
<path d="M8.45302 15.7895C8.42578 15.0908 8.92559 14.5146 9.6994 14.4454C10.3169 14.3902 11.0093 14.3488 11.6929 14.3488C12.3578 14.3488 13.031 14.388 13.6358 14.4409C14.4463 14.5119 14.9779 15.128 14.9455 15.8352C14.9336 16.0956 14.9138 16.3749 14.8832 16.6692C14.8535 16.9547 14.819 17.2266 14.7821 17.4813C14.6716 18.2432 13.9805 18.8323 13.0702 18.8323H10.0461C9.22866 18.8323 8.69702 18.3572 8.61615 17.7655C8.57384 17.456 8.53519 17.1009 8.50522 16.6983C8.48032 16.3638 8.46361 16.0612 8.45302 15.7895Z" fill="white" stroke="#FA4F4F" stroke-width="2"/>
<line x1="10.0859" y1="2.12823" x2="10.0859" y2="5.90622" stroke="#EB292F" stroke-width="2"/>
<line x1="13.3535" y1="2.12823" x2="13.3535" y2="5.90622" stroke="#EB292F" stroke-width="2"/>
</svg>
