<svg width="24" height="24" viewBox="0 0 24 24" fill="none" xmlns="http://www.w3.org/2000/svg">
<line x1="17.75" y1="2.78564" x2="20.4007" y2="2.78564" stroke="#EB292F" stroke-width="2" stroke-linecap="round"/>
<line x1="17.75" y1="6.78564" x2="20.4007" y2="6.78564" stroke="#FA4F4F" stroke-width="2" stroke-linecap="round"/>
<line x1="17.75" y1="10.7856" x2="20.4007" y2="10.7856" stroke="#EB292F" stroke-width="2" stroke-linecap="round"/>
<mask id="path-4-inside-1" fill="white">
<path fill-rule="evenodd" clip-rule="evenodd" d="M11.2523 0C9.67708 0 8.40015 1.27693 8.40015 2.8521V12.1822C6.38127 13.219 5 15.322 5 17.7476C5 21.2007 7.79928 24 11.2524 24C14.7055 24 17.5047 21.2007 17.5047 17.7476C17.5047 15.3219 16.1234 13.2188 14.1044 12.1821V2.85211C14.1044 1.27693 12.8274 0 11.2523 0Z"/>
</mask>
<path d="M8.40015 12.1822L9.31377 13.9614L10.4001 13.4035V12.1822H8.40015ZM14.1044 12.1821H12.1044V13.4034L13.1908 13.9613L14.1044 12.1821ZM10.4001 2.8521C10.4001 2.3815 10.7816 2 11.2523 2V-2C8.57251 -2 6.40015 0.17236 6.40015 2.8521H10.4001ZM10.4001 12.1822V2.8521H6.40015V12.1822H10.4001ZM7 17.7476C7 16.1008 7.93572 14.669 9.31377 13.9614L7.48652 10.4031C4.82681 11.7689 3 14.5432 3 17.7476H7ZM11.2524 22C8.90385 22 7 20.0961 7 17.7476H3C3 22.3053 6.69471 26 11.2524 26V22ZM15.5047 17.7476C15.5047 20.0961 13.6009 22 11.2524 22V26C15.81 26 19.5047 22.3053 19.5047 17.7476H15.5047ZM13.1908 13.9613C14.569 14.6689 15.5047 16.1007 15.5047 17.7476H19.5047C19.5047 14.5431 17.6778 11.7687 15.0179 10.4029L13.1908 13.9613ZM12.1044 2.85211V12.1821H16.1044V2.85211H12.1044ZM11.2523 2C11.7229 2 12.1044 2.3815 12.1044 2.85211H16.1044C16.1044 0.172362 13.932 -2 11.2523 -2V2Z" fill="#EB292F" mask="url(#path-4-inside-1)"/>
<circle cx="11.2356" cy="17.741" r="2.34302" fill="#FA4F4F"/>
</svg>
