<svg width="24" height="24" viewBox="0 0 24 24" fill="none" xmlns="http://www.w3.org/2000/svg">
<mask id="path-1-outside-1" maskUnits="userSpaceOnUse" x="0.183594" y="3.08057" width="24" height="20" fill="black">
<rect fill="white" x="0.183594" y="3.08057" width="24" height="20"/>
<path fill-rule="evenodd" clip-rule="evenodd" d="M2.18368 7.47755C2.18368 7.84992 2.32937 8.18826 2.56686 8.43867C2.39888 9.36191 2.24302 10.7374 2.24302 12.6633C2.24302 14.5891 2.39888 15.9646 2.56685 16.8879C2.32932 17.1383 2.18359 17.4767 2.18359 17.8491C2.18359 18.6206 2.80903 19.246 3.58056 19.246C3.83663 19.246 4.0766 19.1771 4.28296 19.0568C5.65232 19.5822 8.15642 20.246 12.0681 20.246C15.9037 20.246 18.3859 19.6078 19.772 19.0877C19.9654 19.1888 20.1853 19.246 20.4187 19.246C21.1902 19.246 21.8156 18.6206 21.8156 17.8491C21.8156 17.5061 21.6921 17.1921 21.4871 16.949C21.6423 15.9952 21.7945 14.5733 21.7945 12.6633C21.7945 10.7533 21.6423 9.33138 21.4871 8.37761C21.6921 8.1345 21.8156 7.82045 21.8156 7.47754C21.8156 6.70602 21.1902 6.08058 20.4187 6.08058C20.1819 6.08058 19.959 6.13947 19.7636 6.24339C18.3667 5.72244 15.8735 5.08057 12.0681 5.08057C8.18711 5.08057 5.67099 5.74817 4.29071 6.27426C4.08264 6.15121 3.83989 6.08059 3.58064 6.08059C2.80912 6.08059 2.18368 6.70603 2.18368 7.47755Z"/>
</mask>
<path d="M2.56686 8.43867L4.53456 8.79668L4.71616 7.79855L4.01804 7.06242L2.56686 8.43867ZM2.24302 12.6633H4.24302H2.24302ZM2.56685 16.8879L4.01792 18.2642L4.71617 17.5281L4.53455 16.5299L2.56685 16.8879ZM4.28296 19.0568L4.99939 17.1896L4.10423 16.8461L3.27588 17.3289L4.28296 19.0568ZM19.772 19.0877L20.6991 17.3155L19.9067 16.9009L19.0693 17.2152L19.772 19.0877ZM21.4871 16.949L19.513 16.6276L19.3652 17.5353L19.9582 18.2384L21.4871 16.949ZM21.4871 8.37761L19.9581 7.08825L19.3653 7.79129L19.513 8.69901L21.4871 8.37761ZM19.7636 6.24339L19.0647 8.11731L19.9081 8.43186L20.7028 8.00914L19.7636 6.24339ZM4.29071 6.27426L3.27266 7.99576L4.10233 8.48641L5.00303 8.14311L4.29071 6.27426ZM4.01804 7.06242C4.11886 7.16873 4.18368 7.31772 4.18368 7.47755H0.183682C0.183682 8.38212 0.539887 9.20779 1.11568 9.81493L4.01804 7.06242ZM4.24302 12.6633C4.24302 10.8451 4.39019 9.59014 4.53456 8.79668L0.599163 8.08067C0.407573 9.13368 0.243021 10.6298 0.243021 12.6633H4.24302ZM4.53455 16.5299C4.39019 15.7364 4.24302 14.4815 4.24302 12.6633H0.243021C0.243021 14.6967 0.407567 16.1928 0.599152 17.2459L4.53455 16.5299ZM4.18359 17.8491C4.18359 18.0089 4.11875 18.1579 4.01792 18.2642L1.11578 15.5115C0.539878 16.1186 0.183594 16.9444 0.183594 17.8491H4.18359ZM3.58056 17.246C3.9136 17.246 4.18359 17.516 4.18359 17.8491H0.183594C0.183594 19.7251 1.70447 21.246 3.58056 21.246V17.246ZM3.27588 17.3289C3.36696 17.2758 3.47332 17.246 3.58056 17.246V21.246C4.19994 21.246 4.78625 21.0784 5.29005 20.7848L3.27588 17.3289ZM12.0681 18.246C8.3876 18.246 6.12759 17.6224 4.99939 17.1896L3.56654 20.9241C5.17705 21.542 7.92524 22.246 12.0681 22.246V18.246ZM19.0693 17.2152C17.9202 17.6464 15.6772 18.246 12.0681 18.246V22.246C16.1301 22.246 18.8516 21.5692 20.4747 20.9602L19.0693 17.2152ZM20.4187 17.246C20.5159 17.246 20.6132 17.2706 20.6991 17.3155L18.8449 20.8598C19.3175 21.107 19.8548 21.246 20.4187 21.246V17.246ZM19.8156 17.8491C19.8156 17.516 20.0856 17.246 20.4187 17.246V21.246C22.2948 21.246 23.8156 19.7251 23.8156 17.8491H19.8156ZM19.9582 18.2384C19.8703 18.1342 19.8156 17.9954 19.8156 17.8491H23.8156C23.8156 17.0168 23.5138 16.25 23.016 15.6596L19.9582 18.2384ZM19.7945 12.6633C19.7945 14.4665 19.6509 15.781 19.513 16.6276L23.4611 17.2704C23.6338 16.2095 23.7945 14.68 23.7945 12.6633H19.7945ZM19.513 8.69901C19.6509 9.54563 19.7945 10.8601 19.7945 12.6633H23.7945C23.7945 10.6466 23.6338 9.11713 23.4611 8.0562L19.513 8.69901ZM19.8156 7.47754C19.8156 7.33115 19.8703 7.19236 19.9581 7.08825L23.016 9.66697C23.5138 9.07664 23.8156 8.30975 23.8156 7.47754H19.8156ZM20.4187 8.08058C20.0856 8.08058 19.8156 7.81059 19.8156 7.47754H23.8156C23.8156 5.60145 22.2948 4.08058 20.4187 4.08058V8.08058ZM20.7028 8.00914C20.6161 8.05526 20.5174 8.08058 20.4187 8.08058V4.08058C19.8465 4.08058 19.3018 4.22367 18.8243 4.47765L20.7028 8.00914ZM12.0681 7.08057C15.6436 7.08057 17.8994 7.68272 19.0647 8.11731L20.4625 4.36948C18.834 3.76216 16.1035 3.08057 12.0681 3.08057V7.08057ZM5.00303 8.14311C6.14782 7.70677 8.42184 7.08057 12.0681 7.08057V3.08057C7.95239 3.08057 5.19415 3.78956 3.5784 4.40541L5.00303 8.14311ZM3.58064 8.08059C3.472 8.08059 3.3644 8.05001 3.27266 7.99576L5.30877 4.55276C4.80089 4.25241 4.20778 4.08059 3.58064 4.08059V8.08059ZM4.18368 7.47755C4.18368 7.8106 3.91369 8.08059 3.58064 8.08059V4.08059C1.70455 4.08059 0.183682 5.60146 0.183682 7.47755H4.18368Z" fill="#EB292F" mask="url(#path-1-outside-1)"/>
<path d="M5.78384 9.18835C5.78384 9.18835 5.53711 10.1194 5.53711 12.5674C5.53711 15.0155 5.78384 15.9465 5.78384 15.9465" stroke="#FA4F4F" stroke-width="2" stroke-linecap="round"/>
</svg>
