<svg width="24" height="24" viewBox="0 0 24 24" fill="none" xmlns="http://www.w3.org/2000/svg">
<path d="M21.2526 18.9023C21.2526 19.7242 20.5556 20.7408 18.8043 21.6115C17.1145 22.4516 14.7099 23 11.9994 23C9.28881 23 6.88425 22.4516 5.1944 21.6115C3.4431 20.7408 2.74609 19.7242 2.74609 18.9023C2.74609 18.0805 3.4431 17.0639 5.1944 16.1932C6.88425 15.353 9.28881 14.8047 11.9994 14.8047C14.7099 14.8047 17.1145 15.353 18.8043 16.1932C20.5556 17.0639 21.2526 18.0805 21.2526 18.9023Z" stroke="#EB292F" stroke-width="2"/>
<path d="M2.74609 18.9024V12.2394C2.74609 10.8316 3.48607 9.52755 4.69454 8.80554L7.09056 7.37402" stroke="#EB292F" stroke-width="2"/>
<path d="M21.252 18.902V12.2775C21.252 10.8491 20.4902 9.52908 19.2535 8.81432L16.7605 7.37355" stroke="#EB292F" stroke-width="2"/>
<rect x="3.74609" y="13.4058" width="16.5039" height="5.49639" fill="white"/>
<path d="M2.36133 7.08965L5.54817 6.09853C5.74048 6.03872 5.94072 6.0083 6.14212 6.0083H18.0907C18.294 6.0083 18.4961 6.03955 18.6899 6.10094L21.9503 7.1338C22.9482 7.44992 22.8973 8.87896 21.8794 9.12334C21.415 9.23486 21.0875 9.65026 21.0875 10.1279V10.3032C21.0875 11.2305 20.1167 11.8378 19.2828 11.4322L17.9126 10.7657C17.1995 10.4188 16.3487 10.526 15.7439 11.039L14.6504 11.9667C14.0824 12.4485 13.2937 12.5748 12.6037 12.2944L9.78364 11.1485C9.38628 10.9871 8.94753 10.9576 8.53216 11.0646L5.41641 11.8666C4.46651 12.1112 3.49891 11.5365 3.25913 10.5854L3.18363 10.2859C3.07967 9.87353 2.76844 9.5451 2.36227 9.41914C1.21827 9.06436 1.21762 7.44535 2.36133 7.08965Z" fill="white" stroke="#EB292F" stroke-width="2"/>
<path d="M17.9009 6.43129C17.9009 6.793 17.579 7.393 16.4343 7.96214C15.3509 8.50074 13.7843 8.86258 11.9993 8.86258C10.2142 8.86258 8.64761 8.50074 7.56428 7.96214C6.41951 7.393 6.09766 6.793 6.09766 6.43129C6.09766 6.06958 6.41951 5.46959 7.56428 4.90044C8.64761 4.36184 10.2142 4 11.9993 4C13.7843 4 15.3509 4.36184 16.4343 4.90044C17.579 5.46959 17.9009 6.06958 17.9009 6.43129Z" fill="white" stroke="#EB292F" stroke-width="2"/>
<rect x="7.13672" y="4.11426" width="9.72656" height="2.31531" fill="white"/>
<path d="M17.9009 3.43129C17.9009 3.793 17.579 4.393 16.4343 4.96214C15.3509 5.50074 13.7843 5.86258 11.9993 5.86258C10.2142 5.86258 8.64761 5.50074 7.56428 4.96214C6.41951 4.393 6.09766 3.793 6.09766 3.43129C6.09766 3.06958 6.41951 2.46959 7.56428 1.90044C8.64761 1.36184 10.2142 1 11.9993 1C13.7843 1 15.3509 1.36184 16.4343 1.90044C17.579 2.46959 17.9009 3.06958 17.9009 3.43129Z" fill="white" stroke="#EB292F" stroke-width="2"/>
<line x1="6.09766" y1="3.43115" x2="6.09766" y2="6.43117" stroke="#EB292F" stroke-width="2"/>
<line x1="17.9004" y1="3.43115" x2="17.9004" y2="6.43117" stroke="#EB292F" stroke-width="2"/>
<path d="M8.56055 16.636C8.56055 15.9664 9.33768 15.2663 10.2849 15.4215C10.8392 15.5123 11.4405 15.5745 12.0518 15.5745C12.663 15.5745 13.2643 15.5123 13.8186 15.4215C14.7659 15.2663 15.543 15.9664 15.543 16.636V17.7275C15.543 18.1255 15.3276 18.3742 15.093 18.446C14.3594 18.6702 13.2928 18.905 12.0518 18.905C10.8107 18.905 9.74415 18.6702 9.0105 18.446C8.77593 18.3742 8.56055 18.1255 8.56055 17.7275V16.636Z" stroke="#FA4F4F" stroke-width="2"/>
</svg>
