<svg width="24" height="21" viewBox="0 0 24 21" fill="none" xmlns="http://www.w3.org/2000/svg">
<path fill-rule="evenodd" clip-rule="evenodd" d="M3.14193 5.13738C4.20418 3.99851 6.16439 3.08592 8.57951 2.53904C10.9441 2.00361 13.4251 1.89133 15.2137 2.09538C19.1877 2.54873 20.8302 3.30429 21.7702 4.3178C21.9849 4.54934 22.0288 4.82962 21.9801 4.98463C21.9525 5.07255 21.6918 5.7466 19.7857 6.26644C18.55 6.60346 17.5498 7.02538 16.798 7.63448C15.9601 8.31336 15.5787 9.10165 15.3884 9.8367C15.2411 10.4053 15.1939 10.743 15.1613 10.9764C15.1096 11.3463 15.0945 11.4544 14.7759 11.8042C14.4035 12.2131 13.3421 12.7316 11.5099 12.8418C9.77684 12.946 7.72647 12.6534 5.82889 11.9027C3.44355 10.9591 2.42405 9.64133 2.11773 8.56944C1.8164 7.51501 2.07935 6.27661 3.14193 5.13738ZM1.67937 3.77322C4.6112 0.629908 11.383 -0.354596 15.4404 0.108267C19.4978 0.571131 21.7781 1.38529 23.2366 2.95776C23.688 3.44452 24.0253 4.16635 23.9986 4.93787H24.0001V11.0525H23.9919C23.8968 12.2183 22.9524 13.4756 20.3119 14.1957C17.5245 14.9559 17.3794 15.8673 17.2061 16.9566C17.1005 17.6199 16.9844 18.3493 16.2546 19.1507C14.4633 21.1175 9.43378 21.4793 5.0932 19.7622C1.61626 18.3868 0.00845199 16.0668 0.000125971 13.7529H0V7.91363H0.0032697C-0.0484548 6.46136 0.532475 5.00285 1.67937 3.77322ZM2.00009 11.9072V13.8342L2.00277 13.8345C2.01089 14.0866 2.05009 14.3325 2.11773 14.5692C2.42405 15.6411 3.44355 16.9589 5.82889 17.9025C7.72647 18.6531 9.77684 18.9457 11.5099 18.8415C13.3421 18.7313 14.4035 18.2129 14.7759 17.804C15.0945 17.4541 15.1096 17.346 15.1613 16.9762C15.1939 16.7427 15.2411 16.405 15.3884 15.8364C15.5787 15.1014 15.9601 14.3131 16.798 13.6342C17.5498 13.0251 18.55 12.6032 19.7857 12.2662C21.6918 11.7463 21.9525 11.0723 21.9801 10.9844C21.9899 10.953 21.996 10.9166 21.9976 10.8764L22.0001 10.8761V7.55849C21.5363 7.79844 20.9781 8.0143 20.3119 8.19597C17.5245 8.95618 17.3794 9.86756 17.2061 10.9568C17.1005 11.6202 16.9844 12.3496 16.2546 13.1509C14.4633 15.1177 9.43378 15.4796 5.0932 13.7625C3.81341 13.2562 2.78686 12.622 2.00009 11.9072Z" fill="#EB292F"/>
<ellipse cx="12.9424" cy="5.54124" rx="2.90329" ry="1.88982" fill="#FA4F4F"/>
</svg>
