<svg width="24" height="22" viewBox="0 0 24 22" fill="none" xmlns="http://www.w3.org/2000/svg">
<path fill-rule="evenodd" clip-rule="evenodd" d="M4.57459 8.0402C6.42976 8.89048 9.13319 9.46924 12.2266 9.46924C12.7208 9.46924 13.2065 9.45444 13.6815 9.4259C13.3907 9.23613 13.1023 9.04992 12.826 8.87162L12.826 8.87161L12.826 8.87159L12.826 8.87158C12.7044 8.79309 12.5851 8.71613 12.4691 8.64107C12.0294 8.35655 11.6053 8.07967 11.3132 7.86887C11.2007 7.78766 10.9723 7.62175 10.7845 7.42561C10.73 7.36871 10.632 7.26138 10.5343 7.11352C10.4679 7.01293 10.2299 6.6466 10.1971 6.11039C10.1781 5.80094 10.2273 5.41359 10.4359 5.02815C10.6442 4.64308 10.9407 4.39072 11.208 4.23787C11.6715 3.97281 12.1056 3.96924 12.2266 3.96924H20.0303C19.6146 3.77034 19.1374 3.57776 18.596 3.39944C16.8536 2.82558 14.6523 2.46924 12.2266 2.46924C9.13319 2.46924 6.42976 3.04799 4.57459 3.89828C2.60674 4.80021 2.24761 5.65439 2.22749 5.94359H2.22852V6.0071C2.25776 6.30752 2.63372 7.15063 4.57459 8.0402ZM0.228516 6.06948C0.227215 6.03614 0.226562 6.00272 0.226562 5.96924C0.226562 2.93167 5.59915 0.469238 12.2266 0.469238C17.4469 0.469238 21.8888 1.99709 23.5395 4.1304C23.7298 4.37633 23.7965 4.62954 23.7695 4.86642V14.6644C23.8482 15.3558 23.1083 15.9692 22.2278 15.9692H17.3438V20.0509C17.3451 20.0771 17.3451 20.1032 17.3438 20.1289V20.1435H17.3429C17.3062 20.6644 16.733 21.0888 15.7812 21.2239C14.658 21.3834 13.4641 21.4692 12.2266 21.4692C5.59915 21.4692 0.226562 19.0068 0.226562 15.9692C0.226562 15.9357 0.227215 15.9023 0.228515 15.869L0.228516 6.06948ZM2.22852 12.9266V9.0119C4.37863 10.4931 8.05388 11.4692 12.2266 11.4692C13.3047 11.4692 14.3497 11.4041 15.3438 11.2818V19.2873C14.8666 19.3429 14.3062 19.3902 13.6657 19.4156L13.6815 19.4259C13.2065 19.4544 12.7208 19.4692 12.2266 19.4692C9.13319 19.4692 6.42976 18.8905 4.57459 18.0402C2.54472 17.1098 2.22657 16.2303 2.22656 15.9692H2.22852V15.9314C2.23006 15.9155 2.23257 15.8982 2.23622 15.8794V12.9213C2.23365 12.923 2.23108 12.9248 2.22852 12.9266ZM17.3438 10.1355H17.3434C17.3648 9.77779 17.1337 9.37521 16.5993 8.98982C16.1362 8.65587 15.6195 8.30671 15.1074 7.96924C14.6939 7.6967 14.2834 7.43179 13.9067 7.18868L13.8263 7.1368C13.0158 6.61365 12.3763 6.19898 12.2266 6.03975C12.1835 5.99391 12.1809 5.96924 12.2266 5.96924H21.7695V12.6342L21.7589 12.6278V12.9692C21.7589 13.5215 21.3112 13.9692 20.7589 13.9692L17.3438 13.9693V10.1355Z" fill="#FA4F4F"/>
<circle cx="4.69629" cy="13.0147" r="1.22754" fill="#FA4F4F"/>
<circle cx="7.57325" cy="5.95375" r="1.22754" fill="#FA4F4F"/>
<circle cx="11.1171" cy="14.946" r="1.95697" fill="#FA4F4F"/>
</svg>
