<svg width="24" height="24" viewBox="0 0 24 24" fill="none" xmlns="http://www.w3.org/2000/svg">
<path d="M5.15813 14.9921C3.35761 9.86377 9.60795 3.9627 14.1933 5.42321" stroke="#FA4F4F" stroke-width="2" stroke-linecap="round"/>
<path d="M22.2937 4.4138L22.3752 4.48503L22.47 4.53719C22.513 4.56084 22.5483 4.58765 22.5784 4.61774C22.7226 4.76195 22.909 5.22077 22.5776 6.20939C22.268 7.13343 21.5766 8.24546 20.542 9.28003C19.5075 10.3146 18.3954 11.006 17.4714 11.3156C16.4828 11.6469 16.024 11.4606 15.8797 11.3164C15.8619 11.2985 15.8456 11.2792 15.8305 11.2581L15.7479 11.142L15.6362 11.0536L15.2948 10.7834L14.6742 11.5675L15.2948 10.7834C14.9891 10.5414 14.6655 10.3142 14.3233 10.1386C14.3708 10.163 14.4182 10.1884 14.4652 10.2148L15.5062 10.7985L15.8987 9.67147C16.2171 8.75718 16.9022 7.66798 17.9161 6.6541C18.7561 5.81413 19.6524 5.19546 20.4615 4.82692L21.9768 4.13673L22.2937 4.4138ZM14.8352 1.04478C16.5016 1.19312 18.018 1.69652 19.2864 2.33015C18.0229 1.69907 16.506 1.19351 14.8352 1.04478ZM4.37448 22.6237L4.32319 22.5279L4.25253 22.4454C4.15735 22.3343 4.06103 22.217 3.96412 22.0938L4.71326 20.5217C5.08665 19.7381 5.68915 18.8804 6.49433 18.0752C7.53528 17.0342 8.65431 16.341 9.58124 16.0342L10.6574 15.6779L10.1697 14.6546C10.0758 14.4578 9.99563 14.2552 9.93292 14.0487C10.139 14.7273 10.5276 15.3412 10.9152 15.8157L10.9972 15.9161L11.1021 15.9923C11.1217 16.0066 11.1398 16.022 11.1566 16.0388C11.3008 16.183 11.4872 16.6419 11.1559 17.6305C10.8462 18.5545 10.1548 19.6665 9.12026 20.7011C8.08569 21.7357 6.97366 22.4271 6.04962 22.7367C5.061 23.068 4.60218 22.8817 4.45797 22.7375C4.42672 22.7062 4.3989 22.6693 4.37448 22.6237ZM10.4435 11.2595C10.1739 11.5985 9.98573 11.9598 9.88044 12.343C9.87988 12.345 9.87933 12.347 9.87878 12.349C9.97814 11.9833 10.159 11.6171 10.4435 11.2595Z" fill="white" stroke="#EB292F" stroke-width="2"/>
</svg>
