<svg width="24" height="24" viewBox="0 0 24 24" fill="none" xmlns="http://www.w3.org/2000/svg">
<mask id="path-1-inside-1" fill="white">
<path fill-rule="evenodd" clip-rule="evenodd" d="M10.1646 0C9.05998 0 8.16455 0.895431 8.16455 2V10.0991L3.64776 12.9489C2.95049 13.3888 2.59462 14.2115 2.75147 15.0209L4.17771 22.3804C4.35994 23.3208 5.18332 23.9999 6.14118 23.9999H17.8615C18.8193 23.9999 19.6427 23.3208 19.8249 22.3804L21.2512 15.0208C21.408 14.2115 21.0522 13.3888 20.3549 12.9489L15.9846 10.1915V2C15.9846 0.895431 15.0891 0 13.9846 0H10.1646Z"/>
</mask>
<path d="M8.16455 10.0991L9.23173 11.7906L10.1646 11.2021V10.0991H8.16455ZM3.64776 12.9489L2.58057 11.2574L2.58057 11.2574L3.64776 12.9489ZM2.75147 15.0209L0.788 15.4014L2.75147 15.0209ZM4.17771 22.3804L6.14118 21.9999H6.14118L4.17771 22.3804ZM19.8249 22.3804L21.7884 22.761L19.8249 22.3804ZM21.2512 15.0208L23.2147 15.4014V15.4014L21.2512 15.0208ZM20.3549 12.9489L19.2877 14.6403V14.6403L20.3549 12.9489ZM15.9846 10.1915H13.9846V11.2945L14.9174 11.883L15.9846 10.1915ZM10.1646 2V2V-2C7.95541 -2 6.16455 -0.209138 6.16455 2H10.1646ZM10.1646 10.0991V2H6.16455V10.0991H10.1646ZM4.71494 14.6403L9.23173 11.7906L7.09737 8.40766L2.58057 11.2574L4.71494 14.6403ZM4.71494 14.6403L4.71494 14.6403L2.58057 11.2574C1.18604 12.1372 0.474295 13.7826 0.788 15.4014L4.71494 14.6403ZM6.14118 21.9999L4.71494 14.6403L0.788 15.4014L2.21424 22.761L6.14118 21.9999ZM6.14118 21.9999H6.14118L2.21424 22.761C2.57871 24.6417 4.22547 25.9999 6.14118 25.9999V21.9999ZM17.8615 21.9999H6.14118V25.9999H17.8615V21.9999ZM17.8615 21.9999L17.8615 21.9999V25.9999C19.7772 25.9999 21.4239 24.6417 21.7884 22.761L17.8615 21.9999ZM19.2877 14.6403L17.8615 21.9999L21.7884 22.761L23.2147 15.4014L19.2877 14.6403ZM19.2877 14.6403L19.2877 14.6403L23.2147 15.4014C23.5284 13.7826 22.8166 12.1372 21.4221 11.2574L19.2877 14.6403ZM14.9174 11.883L19.2877 14.6403L21.4221 11.2574L17.0517 8.50006L14.9174 11.883ZM13.9846 2V10.1915H17.9846V2H13.9846ZM13.9846 2H13.9846H17.9846C17.9846 -0.209136 16.1937 -2 13.9846 -2V2ZM10.1646 2H13.9846V-2H10.1646V2Z" fill="#EB292F" mask="url(#path-1-inside-1)"/>
<line x1="9.625" y1="3.98682" x2="14.425" y2="3.98682" stroke="#EB292F" stroke-width="2"/>
<line x1="9.625" y1="7.98682" x2="14.425" y2="7.98682" stroke="#EB292F" stroke-width="2"/>
<rect x="9.14844" y="15.1802" width="5.70794" height="3.98914" rx="1" stroke="#FA4F4F" stroke-width="2"/>
</svg>
