<svg width="24" height="24" viewBox="0 0 24 24" fill="none" xmlns="http://www.w3.org/2000/svg">
<path d="M1 11.0761C1 10.5254 1.22711 9.99901 1.62778 9.62114L5.12093 6.32674C5.49208 5.9767 5.98297 5.78174 6.49314 5.78174H9.23515C9.74911 5.78174 10.2433 5.9796 10.6153 6.33427L14.0602 9.61894C14.456 9.99638 14.68 10.5195 14.68 11.0664V20.955C14.68 22.0596 13.7846 22.955 12.68 22.955H3C1.89543 22.955 1 22.0596 1 20.955V11.0761Z" stroke="#EB292F" stroke-width="2"/>
<path d="M7.80469 9.075C7.80469 7.97785 7.80469 6.94363 7.80469 5.99998C7.80469 3.23856 10.0433 1 12.8047 1H15.6592C18.4207 1 20.6592 3.23858 20.6592 6V12.1031" stroke="#EB292F" stroke-width="2" stroke-linecap="round"/>
<rect x="18.5781" y="12.0972" width="4.42274" height="5.19658" rx="2" stroke="#EB292F" stroke-width="2"/>
<path fill-rule="evenodd" clip-rule="evenodd" d="M11.9458 12.0972C11.9458 11.5449 11.4981 11.0972 10.9458 11.0972C10.3935 11.0972 9.9458 11.5449 9.9458 12.0972V12.5605C9.9458 13.1128 10.3935 13.5605 10.9458 13.5605C11.4981 13.5605 11.9458 13.1128 11.9458 12.5605V12.0972ZM5.66406 17.0239C5.66406 16.4716 5.21635 16.0239 4.66406 16.0239C4.11178 16.0239 3.66406 16.4716 3.66406 17.0239V17.4872C3.66406 18.0395 4.11178 18.4872 4.66406 18.4872C5.21635 18.4872 5.66406 18.0395 5.66406 17.4872L5.66406 17.0239ZM4.66406 11.0972C5.21635 11.0972 5.66406 11.5449 5.66406 12.0972L5.66406 12.5605C5.66406 13.1128 5.21635 13.5605 4.66406 13.5605C4.11178 13.5605 3.66406 13.1128 3.66406 12.5605V12.0972C3.66406 11.5449 4.11178 11.0972 4.66406 11.0972ZM11.9458 17.0239C11.9458 16.4716 11.4981 16.0239 10.9458 16.0239C10.3935 16.0239 9.9458 16.4716 9.9458 17.0239V17.4872C9.9458 18.0395 10.3935 18.4872 10.9458 18.4872C11.4981 18.4872 11.9458 18.0395 11.9458 17.4872V17.0239ZM7.82812 13.5605C8.38041 13.5605 8.82812 14.0082 8.82812 14.5605V15.0238C8.82812 15.5761 8.38041 16.0238 7.82812 16.0238C7.27584 16.0238 6.82812 15.5761 6.82812 15.0238V14.5605C6.82812 14.0082 7.27584 13.5605 7.82812 13.5605ZM8.82812 19.4872C8.82812 18.935 8.38041 18.4872 7.82812 18.4872C7.27584 18.4872 6.82812 18.935 6.82812 19.4872V19.9506C6.82812 20.5029 7.27584 20.9506 7.82812 20.9506C8.38041 20.9506 8.82812 20.5029 8.82812 19.9506V19.4872Z" fill="#FA4F4F"/>
</svg>
