<svg width="24" height="24" viewBox="0 0 24 24" fill="none" xmlns="http://www.w3.org/2000/svg">
<path d="M4.86764 9.51384C5.37097 10.9609 4.73106 12.1336 3.94267 12.4078C3.15429 12.682 1.92479 12.1596 1.42145 10.7125C0.918118 9.2654 1.55803 8.09275 2.34642 7.81853C3.13481 7.54431 4.3643 8.06674 4.86764 9.51384Z" stroke="#EB292F" stroke-width="2"/>
<path d="M20.0574 12.4078C19.269 12.1336 18.6291 10.9609 19.1324 9.51384C19.6357 8.06674 20.8652 7.54431 21.6536 7.81853C22.442 8.09275 23.0819 9.2654 22.5786 10.7125C22.0752 12.1596 20.8457 12.682 20.0574 12.4078Z" stroke="#EB292F" stroke-width="2"/>
<path d="M13.7971 4.20593C13.2938 5.65303 13.9337 6.82568 14.7221 7.0999C15.5105 7.37412 16.74 6.85169 17.2433 5.40459C17.7466 3.95748 17.1067 2.78484 16.3183 2.51062C15.53 2.2364 14.3005 2.75882 13.7971 4.20593Z" stroke="#EB292F" stroke-width="2"/>
<path d="M10.2029 4.20593C10.7062 5.65303 10.0663 6.82568 9.27791 7.0999C8.48952 7.37412 7.26003 6.85169 6.75669 5.40459C6.25336 3.95748 6.89327 2.78484 7.68165 2.51062C8.47004 2.2364 9.69954 2.75882 10.2029 4.20593Z" stroke="#EB292F" stroke-width="2"/>
<path d="M10.1989 10.5591C11.283 9.67785 12.7496 9.66544 13.836 10.5276C14.8096 11.3003 15.9652 12.3816 17.0488 13.8087C18.1538 15.264 18.9157 16.6989 19.4251 17.8637C19.993 19.1622 19.5416 20.4149 18.4672 20.879C17.1354 21.4543 15.0572 22.014 12.0004 22.014C8.82732 22.014 6.70837 21.4109 5.38389 20.8128C4.37815 20.3587 3.95072 19.1961 4.45481 18.0014C4.94722 16.8343 5.73214 15.3572 6.9603 13.8308C8.11052 12.4013 9.25416 11.327 10.1989 10.5591Z" stroke="#EB292F" stroke-width="2"/>
<path d="M11.7269 13.8978C11.7269 13.8978 10.9461 14.5457 9.85925 15.8395C8.77237 17.1333 8.26665 18.2096 8.26665 18.2096" stroke="#FA4F4F" stroke-width="2" stroke-linecap="round"/>
</svg>
