<svg width="24" height="24" viewBox="0 0 24 24" fill="none" xmlns="http://www.w3.org/2000/svg">
<path fill-rule="evenodd" clip-rule="evenodd" d="M13.1718 11.1864C14.1656 11.1864 14.5631 10.7889 14.5631 9.61453C14.5631 8.40431 14.1656 8.04312 13.1718 8.04312C12.1788 8.04312 11.7812 8.40431 11.7812 9.61453C11.7812 10.7889 12.1788 11.1864 13.1718 11.1864Z" fill="#FA4F4F"/>
<path fill-rule="evenodd" clip-rule="evenodd" d="M13.171 12.8662C12.0152 12.8662 11.5996 13.3899 11.5996 14.5279C11.5996 15.6661 12.0152 16.1173 13.171 16.1173C14.3273 16.1173 14.7429 15.6661 14.7429 14.5279C14.7429 13.3899 14.3273 12.8662 13.171 12.8662Z" fill="#FA4F4F"/>
<path fill-rule="evenodd" clip-rule="evenodd" d="M13.1709 17.8335C10.4434 17.7795 9.73913 16.786 9.73913 14.7807C9.73913 13.4262 9.82942 12.3964 11.0396 11.9268C10.0281 11.1864 10.01 10.4274 10.01 9.81341V9.19915C10.1186 7.15773 10.8049 6.38141 13.1709 6.38141C15.5374 6.38141 16.2236 7.15773 16.332 9.19915V9.81341C16.332 10.4274 16.3139 11.1864 15.3024 11.9268C16.5131 12.3964 16.6034 13.4262 16.6034 14.7807C16.6034 16.786 15.8986 17.7795 13.1709 17.8335ZM17.6147 2.2085C17.1991 1.79313 16.6754 1.66672 16.0796 1.66672H8.02277C7.42681 1.66672 6.90309 1.79313 6.48748 2.2085L2.38729 6.36335C1.89968 6.85072 1.68273 7.42909 1.68273 8.09729V16.0634C1.6642 16.7316 1.88162 17.2192 2.35117 17.689L6.37913 21.7172C6.84891 22.1867 7.37263 22.4034 8.02277 22.4034H16.0796C16.7295 22.4034 17.2533 22.1867 17.723 21.7172L21.7512 17.689C22.2208 17.2373 22.4197 16.7316 22.4197 16.0634V13.3176C22.4016 13.0831 22.2752 12.9567 22.0402 12.9567H20.8302V13.8055C20.8302 14.4376 20.7397 14.7626 20.1979 14.7626H19.6556C19.1141 14.7626 19.0236 14.4376 19.0236 13.8055V12.9567H18.1748C17.5427 12.9567 17.2174 12.8662 17.2174 12.3241V11.7462C17.2174 11.2042 17.5427 11.1139 18.1748 11.1139H19.0236V10.2647C19.0236 9.63282 19.1141 9.30751 19.6556 9.30751H20.1979C20.7397 9.30751 20.8302 9.63282 20.8302 10.2647V11.1139H22.0402C22.293 11.1139 22.4197 10.9692 22.4197 10.6986V8.09729C22.4197 7.42909 22.1847 6.85072 21.7151 6.36335L17.6147 2.2085Z" fill="#FA4F4F"/>
<path fill-rule="evenodd" clip-rule="evenodd" d="M7.44869 6.58006H5.8048C5.17296 6.58006 4.84766 6.68866 4.84766 7.21238V7.80834C4.84766 8.3323 5.17296 8.44042 5.8048 8.44042H6.18429C6.41906 8.44042 6.52718 8.56707 6.52718 8.92802V16.7316C6.52718 17.3637 6.63577 17.689 7.15974 17.689H7.77352C8.29772 17.689 8.40631 17.3637 8.40631 16.7316V7.21238C8.40631 6.68866 8.08076 6.58006 7.44869 6.58006Z" fill="#FFFFFE"/>
<path fill-rule="evenodd" clip-rule="evenodd" d="M22.4199 10.6986C22.4199 10.9692 22.2933 11.1139 22.0404 11.1139H20.8305V10.2647C20.8305 9.63281 20.7399 9.3075 20.1981 9.3075H19.6559C19.1143 9.3075 19.0238 9.63281 19.0238 10.2647V11.1139H18.175C17.5429 11.1139 17.2176 11.2042 17.2176 11.7462V12.3241C17.2176 12.8662 17.5429 12.9567 18.175 12.9567H19.0238V13.8055C19.0238 14.4376 19.1143 14.7626 19.6559 14.7626H20.1981C20.7399 14.7626 20.8305 14.4376 20.8305 13.8055V12.9567H22.0404C22.2754 12.9567 22.4019 13.0831 22.4199 13.3176V16.0634C22.4199 16.7316 22.221 17.2372 21.7515 17.689L17.7233 21.7172C17.2535 22.1867 16.7298 22.4034 16.0799 22.4034H8.02301C7.37287 22.4034 6.84915 22.1867 6.37937 21.7172L2.35141 17.689C1.88186 17.2192 1.66444 16.7316 1.68297 16.0634V8.09729C1.68297 7.42909 1.89992 6.85071 2.38753 6.36335L6.48772 2.20849C6.90333 1.79313 7.42705 1.66671 8.02301 1.66671H16.0799C16.6756 1.66671 17.1993 1.79313 17.6149 2.20849L21.7154 6.36335C22.1849 6.85071 22.4199 7.42909 22.4199 8.09729V10.6986ZM18.7166 1.16081C18.0122 0.474555 17.1273 0.113129 16.0613 0.113129H8.04107C6.97533 0.113129 6.07212 0.474555 5.3861 1.16081L1.14071 5.38766C0.472754 6.05634 0.111328 6.94125 0.111328 7.91693V16.0634C0.111328 17.1833 0.490813 18.0504 1.24931 18.7908L5.27774 22.819C6.07212 23.6136 6.95727 23.9753 8.09549 23.9572H16.0074C17.1093 23.9572 18.0122 23.6317 18.8251 22.819L22.8533 18.7908C23.594 18.0504 23.9913 17.1652 23.9913 16.0634V7.91693C23.9913 6.94125 23.6301 6.05634 22.9617 5.38766L18.7166 1.16081Z" fill="#FFFFFE"/>
<path fill-rule="evenodd" clip-rule="evenodd" d="M13.172 16.1173C12.0162 16.1173 11.6006 15.6661 11.6006 14.5279C11.6006 13.3899 12.0162 12.8662 13.172 12.8662C14.3283 12.8662 14.7439 13.3899 14.7439 14.5279C14.7439 15.6661 14.3283 16.1173 13.172 16.1173ZM13.172 8.04311C14.1657 8.04311 14.5633 8.4043 14.5633 9.61452C14.5633 10.7889 14.1657 11.1864 13.172 11.1864C12.179 11.1864 11.7814 10.7889 11.7814 9.61452C11.7814 8.4043 12.179 8.04311 13.172 8.04311ZM15.3035 11.9268C16.315 11.1864 16.3331 10.4274 16.3331 9.81341V9.19915C16.2247 7.15773 15.5385 6.38141 13.172 6.38141C10.806 6.38141 10.1197 7.15773 10.0111 9.19915V9.81341C10.0111 10.4274 10.0292 11.1864 11.0407 11.9268C9.83053 12.3964 9.74023 13.4262 9.74023 14.7807C9.74023 16.786 10.4446 17.7795 13.172 17.8334C15.8997 17.7795 16.6045 16.786 16.6045 14.7807C16.6045 13.4262 16.5142 12.3964 15.3035 11.9268Z" fill="#FFFFFE"/>
</svg>
