<svg width="24" height="24" viewBox="0 0 24 24" fill="none" xmlns="http://www.w3.org/2000/svg">
<path d="M2.53433 21.7548C1.25044 20.471 0.923694 18.5134 1.72101 16.8821L2.6131 15.0569C5.25172 9.65848 9.61575 5.29445 15.0142 2.65583L16.8394 1.76374C18.4706 0.966418 20.4282 1.29316 21.7121 2.57705C23.3723 4.23721 23.3723 6.92886 21.7121 8.58902L8.54629 21.7549C6.88613 23.415 4.19449 23.415 2.53433 21.7548Z" stroke="#333333" stroke-width="2"/>
<path d="M8.78717 10.0476C8.29396 9.79904 7.69267 9.99738 7.44413 10.4906C7.1956 10.9838 7.39394 11.5851 7.88714 11.8336L8.78717 10.0476ZM9.26026 13.8165C9.41973 14.3452 9.97765 14.6446 10.5064 14.4851C11.0352 14.3257 11.3345 13.7677 11.1751 13.239L9.26026 13.8165ZM7.88714 11.8336C8.42623 12.1053 8.91319 12.6657 9.26026 13.8165L11.1751 13.239C10.7313 11.7675 9.97833 10.6478 8.78717 10.0476L7.88714 11.8336Z" fill="#FA4F4F"/>
<path d="M12.5972 6.49462C12.1139 6.22742 11.5055 6.40264 11.2383 6.88598C10.971 7.36933 11.1463 7.97776 11.6296 8.24496L12.5972 6.49462ZM12.5941 9.96647C12.6545 10.5154 13.1485 10.9115 13.6974 10.8511C14.2464 10.7908 14.6425 10.2968 14.5821 9.74781L12.5941 9.96647ZM11.6296 8.24496C11.7319 8.3015 11.9621 8.51232 12.1945 8.89681C12.4163 9.2639 12.5603 9.65881 12.5941 9.96647L14.5821 9.74781C14.5085 9.07811 14.2348 8.40613 13.9061 7.86228C13.5879 7.33583 13.1345 6.79165 12.5972 6.49462L11.6296 8.24496Z" fill="#FA4F4F"/>
<path d="M16.3832 3.88723C15.875 3.67108 15.2878 3.90786 15.0716 4.41609C14.8555 4.92432 15.0923 5.51155 15.6005 5.7277L16.3832 3.88723ZM16.1794 7.0646C16.1794 7.61689 16.6271 8.0646 17.1794 8.0646C17.7316 8.0646 18.1793 7.61689 18.1794 7.0646L16.1794 7.0646ZM15.6005 5.7277C15.5915 5.72385 15.6337 5.74104 15.711 5.82876C15.7852 5.91284 15.8666 6.03384 15.9425 6.18634C16.1008 6.50461 16.1794 6.84535 16.1794 7.0646L18.1794 7.0646C18.1794 6.47749 18.0004 5.83267 17.7331 5.29546C17.4801 4.78686 17.0443 4.16839 16.3832 3.88723L15.6005 5.7277Z" fill="#FA4F4F"/>
<path d="M6.36714 14.0292C5.92467 13.6987 5.29804 13.7895 4.96754 14.232C4.63703 14.6745 4.7278 15.3011 5.17027 15.6316L6.36714 14.0292ZM5.89875 16.9582C6.03675 17.493 6.58213 17.8146 7.11689 17.6766C7.65166 17.5386 7.97331 16.9932 7.83531 16.4585L5.89875 16.9582ZM5.17027 15.6316C5.21709 15.6666 5.35935 15.8104 5.52581 16.0854C5.68249 16.3443 5.81997 16.6529 5.89875 16.9582L7.83531 16.4585C7.70171 15.9407 7.48079 15.4529 7.23678 15.0498C7.00255 14.6628 6.70184 14.2792 6.36714 14.0292L5.17027 15.6316Z" fill="#FA4F4F"/>
</svg>
