<svg width="11" height="8" viewBox="0 0 11 8" fill="none" xmlns="http://www.w3.org/2000/svg">
<path d="M1.97573 3.65135C1.57513 3.27117 0.942181 3.28772 0.562001 3.68832C0.181821 4.08893 0.198375 4.72187 0.598976 5.10205L1.97573 3.65135ZM9.87818 2.05633C10.2746 1.67178 10.2842 1.03869 9.89966 0.642278C9.51511 0.245867 8.88202 0.236249 8.48561 0.620796L9.87818 2.05633ZM2.99883 6.00094L2.31045 6.72629L2.99883 6.00094ZM4.38349 5.99335L3.68721 5.27558L4.38349 5.99335ZM0.598976 5.10205L2.31045 6.72629L3.68721 5.27558L1.97573 3.65135L0.598976 5.10205ZM5.07978 6.71112L9.87818 2.05633L8.48561 0.620796L3.68721 5.27558L5.07978 6.71112ZM2.31045 6.72629C3.08833 7.46452 4.31003 7.45782 5.07978 6.71112L3.68721 5.27558L3.68721 5.27558L2.31045 6.72629Z" fill="white"/>
</svg>
