<svg width="10" height="8" viewBox="0 0 10 8" fill="none" xmlns="http://www.w3.org/2000/svg">
<path d="M1.74111 3.65135C1.34051 3.27117 0.707562 3.28772 0.327382 3.68832C-0.0527986 4.08893 -0.0362443 4.72187 0.364357 5.10205L1.74111 3.65135ZM9.64356 2.05633C10.04 1.67178 10.0496 1.03869 9.66504 0.642278C9.28049 0.245867 8.6474 0.236249 8.25099 0.620796L9.64356 2.05633ZM2.76421 6.00094L2.07583 6.72629L2.76421 6.00094ZM4.14887 5.99335L3.45259 5.27558L4.14887 5.99335ZM0.364357 5.10205L2.07583 6.72629L3.45259 5.27558L1.74111 3.65135L0.364357 5.10205ZM4.84516 6.71112L9.64356 2.05633L8.25099 0.620796L3.45259 5.27558L4.84516 6.71112ZM2.07583 6.72629C2.85371 7.46452 4.07541 7.45782 4.84516 6.71112L3.45259 5.27558L3.45259 5.27558L2.07583 6.72629Z" fill="#E0E0E0"/>
</svg>
