<svg width="22" height="22" viewBox="0 0 22 22" fill="none" xmlns="http://www.w3.org/2000/svg">
<path fill-rule="evenodd" clip-rule="evenodd" d="M0.937435 0.938065C0.54691 1.32859 0.546911 1.96176 0.937435 2.35228L9.70064 11.1155L0.937425 19.8787C0.5469 20.2692 0.5469 20.9024 0.937424 21.2929C1.32795 21.6834 1.96111 21.6834 2.35164 21.2929L11.1149 12.5297L19.8781 21.2929C20.2686 21.6834 20.9018 21.6834 21.2923 21.2929C21.6828 20.9024 21.6828 20.2692 21.2923 19.8787L12.5291 11.1155L21.2923 2.35229C21.6828 1.96176 21.6828 1.3286 21.2923 0.938072C20.9017 0.547548 20.2686 0.547548 19.878 0.938072L11.1149 9.70127L2.35165 0.938065C1.96112 0.547541 1.32796 0.547541 0.937435 0.938065Z" fill="#828282"/>
</svg>
