<svg width="22" height="22" viewBox="0 0 22 22" fill="none" xmlns="http://www.w3.org/2000/svg">
<path fill-rule="evenodd" clip-rule="evenodd" d="M0.937435 0.938035C0.54691 1.32856 0.546911 1.96172 0.937435 2.35225L9.70064 11.1155L0.937425 19.8787C0.5469 20.2692 0.5469 20.9024 0.937424 21.2929C1.32795 21.6834 1.96111 21.6834 2.35164 21.2929L11.1149 12.5297L19.8781 21.2929C20.2686 21.6834 20.9018 21.6834 21.2923 21.2929C21.6828 20.9023 21.6828 20.2692 21.2923 19.8787L12.5291 11.1155L21.2923 2.35226C21.6828 1.96173 21.6828 1.32857 21.2923 0.938042C20.9017 0.547517 20.2686 0.547517 19.878 0.938041L11.1149 9.70124L2.35165 0.938035C1.96112 0.547511 1.32796 0.547511 0.937435 0.938035Z" fill="#333333"/>
</svg>
