<svg width="20" height="25" viewBox="0 0 20 25" fill="none" xmlns="http://www.w3.org/2000/svg">
<path d="M4.20703 4.31106C4.44415 3.63331 5.46737 2.27782 7.66333 2.27782C10.4083 2.27782 15.1189 2.227 16.9996 1.51538" stroke="#333333" stroke-width="2" stroke-linecap="round" stroke-linejoin="round"/>
<path d="M6.61719 8.31958C6.61719 7.7673 7.0649 7.31958 7.61719 7.31958H12.2623C12.8146 7.31958 13.2623 7.7673 13.2623 8.31958V11.5551H6.61719V8.31958Z" fill="white" stroke="#333333" stroke-width="2"/>
<path d="M1.30121 13.3779C1.3067 12.2274 2.15563 11.3007 3.37537 11.1562C5.16164 10.9446 7.58446 10.7272 9.98688 10.7272C12.3582 10.7272 14.7496 10.939 16.5292 11.148C17.783 11.2953 18.6815 12.2662 18.6978 13.4569C18.7126 14.5425 18.676 15.8939 18.5178 17.4167C18.3604 18.9324 18.1447 20.2803 17.9378 21.369C17.7032 22.603 16.5927 23.4847 15.2471 23.4847H4.36723C3.15326 23.4847 2.21798 22.765 2.015 21.7399C1.80709 20.6898 1.59425 19.2703 1.45845 17.4458C1.33263 15.7555 1.29629 14.4087 1.30121 13.3779Z" fill="white" stroke="#333333" stroke-width="2"/>
<path d="M6.7538 16.3049C6.72656 15.6062 7.22637 15.0301 8.00019 14.9609C8.61773 14.9057 9.3101 14.8643 9.99372 14.8643C10.6585 14.8643 11.3318 14.9034 11.9365 14.9564C12.7471 15.0274 13.2787 15.6435 13.2463 16.3507C13.2344 16.6111 13.2146 16.8903 13.184 17.1846C13.1543 17.4702 13.1198 17.742 13.0829 17.9967C12.9724 18.7587 12.2812 19.3477 11.371 19.3477H8.34686C7.52944 19.3477 6.9978 18.8726 6.91693 18.281C6.87462 17.9714 6.83598 17.6164 6.806 17.2137C6.7811 16.8792 6.76439 16.5767 6.7538 16.3049Z" fill="white" stroke="#FA4F4F" stroke-width="2"/>
<line x1="8.38672" y1="2.64355" x2="8.38672" y2="6.42154" stroke="#333333" stroke-width="2"/>
<line x1="11.6562" y1="2.64355" x2="11.6562" y2="6.42154" stroke="#333333" stroke-width="2"/>
</svg>
