<svg width="24" height="24" viewBox="0 0 24 24" fill="none" xmlns="http://www.w3.org/2000/svg">
<path fill-rule="evenodd" clip-rule="evenodd" d="M6.82219 6.82259C6.43167 7.21311 6.43167 7.84628 6.82219 8.2368L10.5854 12L6.82219 15.7632C6.43167 16.1537 6.43167 16.7869 6.82219 17.1774C7.21271 17.5679 7.84588 17.5679 8.2364 17.1774L11.9996 13.4142L15.7628 17.1774C16.1533 17.5679 16.7865 17.5679 17.177 17.1774C17.5675 16.7869 17.5675 16.1537 17.177 15.7632L13.4138 12L17.177 8.23681C17.5675 7.84628 17.5675 7.21312 17.177 6.82259C16.7865 6.43207 16.1533 6.43207 15.7628 6.82259L11.9996 10.5858L8.23641 6.82259C7.84588 6.43206 7.21272 6.43206 6.82219 6.82259Z" fill="#BDBDBD"/>
</svg>
