<svg width="26" height="25" viewBox="0 0 26 25" fill="none" xmlns="http://www.w3.org/2000/svg">
<path fill-rule="evenodd" clip-rule="evenodd" d="M8.0079 6.65285V9.52635L7.99951 9.5346V22.5H17.9995V10.082V9.53486V6.60214L19.9995 8.66512V8.69646L20.7279 9.41261L22.6114 7.66084L21.082 5.9504L21.0828 5.94586L17.988 2.48633H16.6185C16.4837 4.37848 14.9059 5.87164 12.9794 5.87164C11.053 5.87164 9.47522 4.37848 9.34039 2.48633H8.00049L3.57764 7.44466L3.57917 7.44631L3.38735 7.66084L5.27082 9.41261L5.99951 8.6962V8.67458L8.0079 6.65285ZM11.3519 2.48633C11.4779 3.27167 12.1586 3.87164 12.9794 3.87164C13.8003 3.87164 14.481 3.27167 14.607 2.48633H11.3519ZM6.4525 1.23233C6.81929 0.78524 7.37609 0.5 7.99951 0.5H17.9995C18.6246 0.5 19.1826 0.786733 19.5494 1.23584L21.0404 2.90329L24.7559 7.05871C25.119 7.46472 25.0903 8.08658 24.6915 8.4575L21.3898 11.5283C20.9981 11.8926 20.3891 11.8842 20.0077 11.5092L19.9995 11.5012V22.5C19.9995 23.6046 19.1041 24.5 17.9995 24.5H7.99951C6.89494 24.5 5.99951 23.6046 5.99951 22.5V11.5009L5.99106 11.5092C5.60963 11.8842 5.00063 11.8926 4.60895 11.5283L1.30724 8.4575C0.908434 8.08658 0.879798 7.46472 1.24283 7.05871L4.95841 2.90329L6.4525 1.23233Z" fill="black"/>
<path d="M10.0195 8.43262H12.621V10.9456L11.3202 11.5109L10.0195 10.9456V8.43262Z" stroke="#FA4F4F" stroke-width="2"/>
</svg>
