<svg width="91" height="89" viewBox="0 0 91 89" fill="none" xmlns="http://www.w3.org/2000/svg">
<g clip-path="url(#clip0)">
<path fill-rule="evenodd" clip-rule="evenodd" d="M11.9266 57.4437C8.74764 46.4144 7.8014 38.5678 7.52005 34.9675C9.91286 31.9733 15.4847 25.6056 24.43 18.7829C33.4844 11.877 41.8608 8.5213 45.5229 7.26607C49.232 8.66926 57.7327 12.2778 67.2507 18.9492C69.4091 20.462 71.3528 21.9782 73.0909 23.4504L45.4292 51.2977C43.8926 52.8447 41.4 52.876 39.8251 51.368L24.1169 36.3283C22.5578 34.8355 20.0954 34.849 18.5528 36.3588L13.5491 41.256C11.9543 42.8169 11.9451 45.3809 13.5286 46.9532L39.8332 73.0712C41.3969 74.6238 43.9218 74.6193 45.48 73.0612L83.6797 34.8615C83.1985 38.7623 81.9059 46.8793 78.6613 57.3016C75.4133 67.7346 71.2876 75.8894 69.1357 79.7912C65.0518 80.5639 56.7082 81.8207 45.6637 81.8207C34.3201 81.8207 25.8261 80.4949 21.8702 79.7297C19.6144 76.2531 15.0963 68.4412 11.9266 57.4437ZM44.9391 0.0995507C45.4157 -0.0436657 45.9083 -0.0315723 46.3788 0.130765C49.1319 1.08069 59.4823 4.95596 71.2685 13.217C82.8829 21.3577 88.8809 29.667 90.4815 32.0814C90.7793 32.5307 90.9084 33.0617 90.8587 33.5984C90.5991 36.4009 89.4623 46.1564 85.3449 59.3823C81.2704 72.4701 75.8946 82.1595 74.1843 85.0761C73.8366 85.6691 73.2716 86.0808 72.6004 86.2287C69.4905 86.9142 59.589 88.8207 45.6637 88.8207C31.5117 88.8207 21.5157 86.8516 18.5805 86.1962C17.9977 86.0661 17.4934 85.7322 17.1488 85.2444C15.3166 82.6508 9.23608 73.3842 5.20038 59.3823C1.20585 45.5233 0.536195 36.3035 0.42393 33.6017C0.401464 33.061 0.563663 32.5405 0.886209 32.106C2.6048 29.7908 8.91489 21.8128 20.1849 13.217C31.6443 4.47684 42.1436 0.939454 44.9391 0.0995507Z" fill="#FFE4E4"/>
</g>
<defs>
<clipPath id="clip0">
<rect width="91" height="89" fill="white"/>
</clipPath>
</defs>
</svg>
