<svg width="24" height="19" viewBox="0 0 24 19" fill="none" xmlns="http://www.w3.org/2000/svg">
<mask id="path-1-inside-1" fill="white">
<path fill-rule="evenodd" clip-rule="evenodd" d="M1.92472 2.05016C-0.641576 4.61645 -0.641572 8.77724 1.92472 11.3435L7.34586 16.7647C8.6309 18.0497 10.3157 18.6913 12 18.6894C13.6843 18.6913 15.3691 18.0497 16.6541 16.7647L22.0753 11.3435C24.6416 8.77724 24.6416 4.61645 22.0753 2.05016C19.509 -0.516139 15.3482 -0.516139 12.7819 2.05016L12 2.83206L11.2181 2.05016C8.6518 -0.516139 4.49102 -0.516139 1.92472 2.05016Z"/>
</mask>
<path d="M1.92472 11.3435L0.51051 12.7578H0.51051L1.92472 11.3435ZM1.92472 2.05016L0.510506 0.635943L1.92472 2.05016ZM7.34586 16.7647L8.76007 15.3505L7.34586 16.7647ZM12 18.6894L12.0023 16.6894L11.9977 16.6894L12 18.6894ZM16.6541 16.7647L15.2399 15.3505L15.2399 15.3505L16.6541 16.7647ZM22.0753 11.3435L23.4895 12.7578L22.0753 11.3435ZM22.0753 2.05016L23.4895 0.635943L22.0753 2.05016ZM12.7819 2.05016L11.3677 0.635943L12.7819 2.05016ZM12 2.83206L10.5858 4.24627L12 5.66048L13.4142 4.24627L12 2.83206ZM11.2181 2.05016L12.6323 0.635943L11.2181 2.05016ZM3.33894 9.92932C1.55369 8.14408 1.55369 5.24962 3.33893 3.46437L0.510506 0.635943C-2.83684 3.98329 -2.83683 9.41041 0.51051 12.7578L3.33894 9.92932ZM8.76007 15.3505L3.33894 9.92932L0.51051 12.7578L5.93164 18.1789L8.76007 15.3505ZM11.9977 16.6894C10.823 16.6907 9.65439 16.2448 8.76007 15.3505L5.93164 18.1789C7.60741 19.8546 9.80852 20.6919 12.0023 20.6894L11.9977 16.6894ZM11.9977 20.6894C14.1915 20.6919 16.3926 19.8546 18.0684 18.1789L15.2399 15.3505C14.3456 16.2448 13.177 16.6907 12.0023 16.6894L11.9977 20.6894ZM18.0684 18.1789L23.4895 12.7578L20.6611 9.92932L15.2399 15.3505L18.0684 18.1789ZM23.4895 12.7578C26.8368 9.41041 26.8368 3.98329 23.4895 0.635943L20.6611 3.46437C22.4463 5.24962 22.4463 8.14408 20.6611 9.92932L23.4895 12.7578ZM23.4895 0.635943C20.1421 -2.7114 14.715 -2.7114 11.3677 0.635943L14.1961 3.46437C15.9814 1.67912 18.8758 1.67912 20.6611 3.46437L23.4895 0.635943ZM11.3677 0.635943L10.5858 1.41784L13.4142 4.24627L14.1961 3.46437L11.3677 0.635943ZM9.80388 3.46437L10.5858 4.24627L13.4142 1.41784L12.6323 0.635943L9.80388 3.46437ZM3.33893 3.46437C5.12418 1.67912 8.01864 1.67912 9.80388 3.46437L12.6323 0.635943C9.28497 -2.7114 3.85785 -2.7114 0.510506 0.635943L3.33893 3.46437Z" fill="#EB292F" mask="url(#path-1-inside-1)"/>
</svg>
