<svg width="20" height="14" viewBox="0 0 20 14" fill="none" xmlns="http://www.w3.org/2000/svg">
<path d="M1.67641 7.76347C1.26963 7.3899 0.637038 7.41682 0.26347 7.8236C-0.110098 8.23037 -0.0831792 8.86296 0.323595 9.23653L1.67641 7.76347ZM19.1897 1.72414C19.5896 1.34325 19.605 0.710275 19.2241 0.310345C18.8433 -0.0895855 18.2103 -0.105024 17.8103 0.275862L19.1897 1.72414ZM0.323595 9.23653L4.53477 13.1039L5.88758 11.6309L1.67641 7.76347L0.323595 9.23653ZM7.26689 13.0792L19.1897 1.72414L17.8103 0.275862L5.88758 11.6309L7.26689 13.0792ZM4.53477 13.1039C5.31009 13.816 6.50462 13.8051 7.26689 13.0792L5.88758 11.6309L4.53477 13.1039Z" fill="#F2F2F2"/>
</svg>
