<svg width="33" height="32" viewBox="0 0 33 32" fill="none" xmlns="http://www.w3.org/2000/svg">
<g clip-path="url(#clip0)">
<path d="M8.4438 5.95432C12.1341 3.13968 15.5275 1.90252 16.6812 1.53516C17.8368 1.95023 21.2347 3.29661 25.0774 5.98996C28.787 8.5901 30.8091 11.2267 31.48 12.1951C31.3568 13.3755 30.9228 16.6269 29.5775 20.9481C28.2514 25.2076 26.5292 28.436 25.8305 29.6578C24.544 29.9245 21.2425 30.4999 16.7135 30.4999C12.097 30.4999 8.7559 29.902 7.5245 29.6427C6.7883 28.5629 4.8765 25.4877 3.5769 20.9785C2.2791 16.476 1.9896 13.3981 1.925 12.2764C2.6537 11.3255 4.7934 8.73852 8.4438 5.95432Z" stroke="url(#paint0_angular)" stroke-width="3"/>
<path d="M16.5 32C15.6716 32 15 31.3284 15 30.5C15 29.6716 15.6716 29 16.5 29C17.3284 29 18 29.6716 18 30.5C18 31.3284 17.3284 32 16.5 32Z" fill="#FA5151"/>
</g>
<defs>
<radialGradient id="paint0_angular" cx="0" cy="0" r="1" gradientUnits="userSpaceOnUse" gradientTransform="translate(16.707 15.9999) rotate(90) scale(16 16.293)">
<stop stop-color="#FA4F4F"/>
<stop offset="0.84375" stop-color="#FA4F4F" stop-opacity="0.08"/>
<stop offset="1" stop-color="#FA4F4F" stop-opacity="0"/>
</radialGradient>
<clipPath id="clip0">
<rect width="33" height="32" transform="matrix(-1 0 0 1 33 0)" fill="white"/>
</clipPath>
</defs>
</svg>
