<svg width="22" height="22" viewBox="0 0 22 22" fill="none" xmlns="http://www.w3.org/2000/svg">
<path d="M18.25 8.25C18.25 12.3149 16.6423 15.538 14.8612 17.754C13.9699 18.863 13.0453 19.7065 12.2801 20.2643C11.8966 20.5439 11.5661 20.7423 11.3116 20.8661C11.1409 20.9492 11.0406 20.9809 11 20.9929C10.9594 20.9809 10.8591 20.9492 10.6884 20.8661C10.4339 20.7423 10.1034 20.5439 9.71995 20.2643C8.95473 19.7065 8.03013 18.863 7.13883 17.754C5.35774 15.538 3.75 12.3149 3.75 8.25C3.75 4.24594 6.99594 1 11 1C15.0041 1 18.25 4.24594 18.25 8.25Z" stroke="#4F4F4F" stroke-width="2"/>
<circle cx="11" cy="8.25" r="2.75" fill="#EB292F"/>
</svg>
