<svg width="24" height="24" viewBox="0 0 24 24" fill="none" xmlns="http://www.w3.org/2000/svg">
<path d="M20 0H4C1.79086 0 0 1.79086 0 4V20C0 22.2091 1.79086 24 4 24H20C22.2091 24 24 22.2091 24 20V4C24 1.79086 22.2091 0 20 0Z" fill="#096294"/>
<path fill-rule="evenodd" clip-rule="evenodd" d="M19.623 7.90123C19.742 7.52823 19.623 7.25723 19.098 7.25723H17.353C16.912 7.25723 16.709 7.49523 16.59 7.74923C16.59 7.74923 15.692 9.91823 14.438 11.3242C14.032 11.7312 13.845 11.8662 13.625 11.8662C13.506 11.8662 13.354 11.7312 13.354 11.3582V7.88423C13.354 7.44423 13.218 7.24023 12.845 7.24023H10.1C9.829 7.24023 9.66 7.44423 9.66 7.64723C9.66 8.07123 10.287 8.17223 10.354 9.35923V11.9342C10.354 12.4932 10.253 12.5952 10.032 12.5952C9.439 12.5952 7.999 10.4092 7.135 7.91823C6.965 7.42723 6.796 7.24023 6.355 7.24023H4.593C4.085 7.24023 4 7.47823 4 7.73223C4 8.18923 4.593 10.4942 6.762 13.5442C8.202 15.6282 10.253 16.7472 12.1 16.7472C13.218 16.7472 13.354 16.4922 13.354 16.0692V14.4932C13.354 13.9852 13.455 13.9002 13.811 13.9002C14.065 13.9002 14.523 14.0352 15.557 15.0352C16.743 16.2212 16.946 16.7642 17.607 16.7642H19.352C19.861 16.7642 20.098 16.5092 19.962 16.0182C19.81 15.5272 19.234 14.8152 18.488 13.9682C18.081 13.4932 17.471 12.9682 17.285 12.7142C17.031 12.3752 17.099 12.2392 17.285 11.9342C17.268 11.9342 19.403 8.91823 19.623 7.90123Z" fill="white"/>
</svg>
