<svg width="24" height="24" viewBox="0 0 24 24" fill="none" xmlns="http://www.w3.org/2000/svg">
<path d="M20 0H4C1.79086 0 0 1.79086 0 4V20C0 22.2091 1.79086 24 4 24H20C22.2091 24 24 22.2091 24 20V4C24 1.79086 22.2091 0 20 0Z" fill="#F2994A"/>
<path fill-rule="evenodd" clip-rule="evenodd" d="M8.325 15.0279C7.868 14.8129 7.55099 14.3489 7.55099 13.8109C7.55099 13.0689 8.153 12.4669 8.894 12.4669C9.117 12.4669 9.327 12.5219 9.513 12.6179C10.264 12.9859 11.108 13.1919 12 13.1919C12.894 13.1919 13.739 12.9849 14.492 12.6159C14.676 12.5209 14.885 12.4669 15.106 12.4669C15.847 12.4669 16.449 13.0689 16.449 13.8109C16.449 14.3489 16.131 14.8149 15.673 15.0289C15.167 15.2779 14.631 15.4769 14.073 15.6189L15.908 17.6989C16.399 18.2549 16.346 19.1049 15.79 19.5959C15.234 20.0859 14.384 20.0329 13.893 19.4769L11.999 17.3309L10.105 19.4769C9.614 20.0329 8.764 20.0859 8.208 19.5959C7.652 19.1049 7.599 18.2549 8.09 17.6989L9.925 15.6189C9.367 15.4759 8.832 15.2769 8.325 15.0279ZM12 4.06787C14.27 4.06787 16.114 5.91187 16.114 8.18187C16.114 10.4519 14.27 12.2959 12 12.2959C9.73 12.2959 7.886 10.4519 7.886 8.18187C7.886 5.91187 9.73 4.06787 12 4.06787ZM12 6.56687C12.891 6.56687 13.615 7.29087 13.615 8.18187C13.615 9.07287 12.891 9.79687 12 9.79687C11.109 9.79687 10.385 9.07287 10.385 8.18187C10.385 7.29087 11.109 6.56687 12 6.56687Z" fill="white"/>
</svg>
