<svg width="24" height="24" viewBox="0 0 24 24" fill="none" xmlns="http://www.w3.org/2000/svg">
<path d="M20 0H4C1.79086 0 0 1.79086 0 4V20C0 22.2091 1.79086 24 4 24H20C22.2091 24 24 22.2091 24 20V4C24 1.79086 22.2091 0 20 0Z" fill="#4469B0"/>
<path fill-rule="evenodd" clip-rule="evenodd" d="M12.962 19.9999V12.8509H15.412L15.779 10.0059H12.962V8.18993C12.962 7.36693 13.191 6.80593 14.372 6.80593L15.878 6.80493V4.26093C15.617 4.22593 14.723 4.14893 13.683 4.14893C11.512 4.14893 10.025 5.47393 10.025 7.90893V10.0059H7.569V12.8509H10.025V19.9999H12.962Z" fill="white"/>
</svg>
