<svg width="24" height="24" viewBox="0 0 24 24" fill="none" xmlns="http://www.w3.org/2000/svg">
<path d="M20 0H4C1.79086 0 0 1.79086 0 4V20C0 22.2091 1.79086 24 4 24H20C22.2091 24 24 22.2091 24 20V4C24 1.79086 22.2091 0 20 0Z" fill="#EB5757"/>
<path fill-rule="evenodd" clip-rule="evenodd" d="M12 19C15.866 19 19 15.866 19 12C19 11.555 18.9585 11.1196 18.8791 10.6977H12.1632V13.3023H16.0287C15.4794 15.0027 13.8834 16.2326 12.0003 16.2326C9.6627 16.2326 7.7677 14.3376 7.7677 12C7.7677 9.66243 9.6627 7.76745 12.0003 7.76745C13.0628 7.76745 14.0338 8.15895 14.7771 8.80558L16.702 6.81427C15.4594 5.68692 13.8099 5 12 5C8.134 5 5 8.13401 5 12C5 15.866 8.134 19 12 19Z" fill="white"/>
</svg>
