<svg width="40" height="40" viewBox="0 0 40 40" fill="none" xmlns="http://www.w3.org/2000/svg">
<rect width="40" height="40" rx="2" fill="#EB5757"/>
<path fill-rule="evenodd" clip-rule="evenodd" d="M20 27C23.866 27 27 23.866 27 20C27 19.555 26.9585 19.1196 26.8791 18.6977H20.1632V21.3023H24.0287C23.4794 23.0027 21.8834 24.2326 20.0003 24.2326C17.6627 24.2326 15.7677 22.3376 15.7677 20C15.7677 17.6624 17.6627 15.7674 20.0003 15.7674C21.0628 15.7674 22.0338 16.159 22.7771 16.8056L24.702 14.8143C23.4594 13.6869 21.8099 13 20 13C16.134 13 13 16.134 13 20C13 23.866 16.134 27 20 27Z" fill="white"/>
</svg>
