<svg width="40" height="40" viewBox="0 0 40 40" fill="none" xmlns="http://www.w3.org/2000/svg">
<rect width="40" height="40" rx="2" fill="#F2994A"/>
<path fill-rule="evenodd" clip-rule="evenodd" d="M16.3248 23.028C15.8678 22.813 15.5508 22.349 15.5508 21.811C15.5508 21.069 16.1528 20.467 16.8938 20.467C17.1168 20.467 17.3268 20.522 17.5128 20.618C18.2638 20.986 19.1078 21.192 19.9998 21.192C20.8938 21.192 21.7388 20.985 22.4918 20.616C22.6758 20.521 22.8848 20.467 23.1058 20.467C23.8468 20.467 24.4488 21.069 24.4488 21.811C24.4488 22.349 24.1308 22.815 23.6728 23.029C23.1668 23.278 22.6308 23.477 22.0728 23.619L23.9078 25.699C24.3988 26.255 24.3458 27.105 23.7898 27.596C23.2338 28.086 22.3838 28.033 21.8928 27.477L19.9988 25.331L18.1048 27.477C17.6138 28.033 16.7638 28.086 16.2078 27.596C15.6518 27.105 15.5988 26.255 16.0898 25.699L17.9248 23.619C17.3668 23.476 16.8318 23.277 16.3248 23.028ZM19.9998 12.068C22.2698 12.068 24.1138 13.912 24.1138 16.182C24.1138 18.452 22.2698 20.296 19.9998 20.296C17.7298 20.296 15.8858 18.452 15.8858 16.182C15.8858 13.912 17.7298 12.068 19.9998 12.068ZM19.9998 14.567C20.8908 14.567 21.6148 15.291 21.6148 16.182C21.6148 17.073 20.8908 17.797 19.9998 17.797C19.1088 17.797 18.3848 17.073 18.3848 16.182C18.3848 15.291 19.1088 14.567 19.9998 14.567Z" fill="white"/>
</svg>
