<svg width="40" height="40" viewBox="0 0 40 40" fill="none" xmlns="http://www.w3.org/2000/svg">
<rect width="40" height="40" rx="2" fill="#096294"/>
<path fill-rule="evenodd" clip-rule="evenodd" d="M27.623 15.901C27.742 15.528 27.623 15.257 27.098 15.257H25.353C24.912 15.257 24.709 15.495 24.59 15.749C24.59 15.749 23.692 17.918 22.438 19.324C22.032 19.731 21.845 19.866 21.625 19.866C21.506 19.866 21.354 19.731 21.354 19.358V15.884C21.354 15.444 21.218 15.24 20.845 15.24H18.1C17.829 15.24 17.66 15.444 17.66 15.647C17.66 16.071 18.287 16.172 18.354 17.359V19.934C18.354 20.493 18.253 20.595 18.032 20.595C17.439 20.595 15.999 18.409 15.135 15.918C14.965 15.427 14.796 15.24 14.355 15.24H12.593C12.085 15.24 12 15.478 12 15.732C12 16.189 12.593 18.494 14.762 21.544C16.202 23.628 18.253 24.747 20.1 24.747C21.218 24.747 21.354 24.492 21.354 24.069V22.493C21.354 21.985 21.455 21.9 21.811 21.9C22.065 21.9 22.523 22.035 23.557 23.035C24.743 24.221 24.946 24.764 25.607 24.764H27.352C27.861 24.764 28.098 24.509 27.962 24.018C27.81 23.527 27.234 22.815 26.488 21.968C26.081 21.493 25.471 20.968 25.285 20.714C25.031 20.375 25.099 20.239 25.285 19.934C25.268 19.934 27.403 16.918 27.623 15.901Z" fill="white"/>
</svg>
