<svg width="24" height="24" viewBox="0 0 24 24" fill="none" xmlns="http://www.w3.org/2000/svg">
<circle cx="12" cy="12" r="12" fill="#6FCF97"/>
<path d="M7.68394 12.6455C7.28103 12.2677 6.64819 12.2881 6.27046 12.6911C5.89273 13.094 5.91315 13.7268 6.31606 14.1045L7.68394 12.6455ZM17.6971 9.71699C18.0931 9.33201 18.102 8.69891 17.717 8.30292C17.332 7.90694 16.6989 7.89802 16.3029 8.28301L17.6971 9.71699ZM6.31606 14.1045L8.41956 16.0766L9.78744 14.6175L7.68394 12.6455L6.31606 14.1045ZM11.1816 16.0515L17.6971 9.71699L16.3029 8.28301L9.78744 14.6175L11.1816 16.0515ZM8.41956 16.0766C9.19911 16.8074 10.4155 16.7964 11.1816 16.0515L9.78744 14.6175H9.78744L8.41956 16.0766Z" fill="white"/>
</svg>
