<svg width="24" height="24" viewBox="0 0 24 24" fill="none" xmlns="http://www.w3.org/2000/svg">
<path fill-rule="evenodd" clip-rule="evenodd" d="M9.65784 4.26595L7.56189 11.2885L7.5625 11.2887C7.4987 11.4842 7.4642 11.693 7.4642 11.9098V20.1621C7.4642 20.7144 7.91192 21.1621 8.4642 21.1621H17.0836C17.9299 21.1621 18.6846 20.6294 18.9681 19.832L21.5462 12.5797C22.009 11.2777 21.0435 9.90978 19.6617 9.90978H18.2336L18.2338 9.90961H15.4008C14.2312 9.90961 13.3111 8.91023 13.4076 7.74455L13.7243 3.92047C13.7726 3.33763 13.3126 2.83794 12.7277 2.83794H11.5743C10.69 2.83794 9.91073 3.41862 9.65784 4.26595ZM4.33594 11.2296C3.23137 11.2296 2.33594 12.125 2.33594 13.2296V19.1598C2.33594 20.2643 3.23137 21.1598 4.33594 21.1598H4.74727C5.29956 21.1598 5.74727 20.7121 5.74727 20.1598V12.2296C5.74727 11.6773 5.29955 11.2296 4.74727 11.2296H4.33594Z" fill="#828282"/>
</svg>
