<svg width="20" height="20" viewBox="0 0 20 20" fill="none" xmlns="http://www.w3.org/2000/svg">
<path fill-rule="evenodd" clip-rule="evenodd" d="M7.65784 2.26593L5.56189 9.28851L5.5625 9.28872C5.4987 9.48422 5.4642 9.69296 5.4642 9.90977V18.1621C5.4642 18.7143 5.91192 19.1621 6.4642 19.1621H15.0836C15.9299 19.1621 16.6846 18.6294 16.9681 17.832L19.5462 10.5797C20.009 9.27767 19.0435 7.90977 17.6617 7.90977H16.2336L16.2338 7.9096H13.4008C12.2312 7.9096 11.3111 6.91022 11.4076 5.74454L11.7243 1.92045C11.7726 1.33761 11.3126 0.837921 10.7277 0.837921H9.5743C8.69004 0.837921 7.91073 1.41861 7.65784 2.26593ZM2.33594 9.22955C1.23137 9.22955 0.335938 10.125 0.335938 11.2295V17.1598C0.335938 18.2643 1.23137 19.1598 2.33594 19.1598H2.74727C3.29956 19.1598 3.74727 18.712 3.74727 18.1598V10.2295C3.74727 9.67726 3.29955 9.22955 2.74727 9.22955H2.33594Z" fill="#EB292E"/>
</svg>
