<svg width="25" height="24" viewBox="0 0 25 24" fill="none" xmlns="http://www.w3.org/2000/svg">
<line x1="18.25" y1="2.78564" x2="20.9007" y2="2.78564" stroke="#E5E8F5" stroke-width="2" stroke-linecap="round"/>
<line x1="18.25" y1="6.78564" x2="20.9007" y2="6.78564" stroke="#E5E8F5" stroke-width="2" stroke-linecap="round"/>
<line x1="18.25" y1="10.7856" x2="20.9007" y2="10.7856" stroke="#E5E8F5" stroke-width="2" stroke-linecap="round"/>
<mask id="path-4-inside-1" fill="white">
<path fill-rule="evenodd" clip-rule="evenodd" d="M11.7523 0C10.1771 0 8.90015 1.27693 8.90015 2.8521V12.1822C6.88127 13.219 5.5 15.322 5.5 17.7476C5.5 21.2007 8.29928 24 11.7524 24C15.2055 24 18.0047 21.2007 18.0047 17.7476C18.0047 15.3219 16.6234 13.2188 14.6044 12.1821V2.85211C14.6044 1.27693 13.3274 0 11.7523 0Z"/>
</mask>
<path d="M8.90015 12.1822L9.81377 13.9614L10.9001 13.4035V12.1822H8.90015ZM14.6044 12.1821H12.6044V13.4034L13.6908 13.9613L14.6044 12.1821ZM10.9001 2.8521C10.9001 2.3815 11.2816 2 11.7523 2V-2C9.07251 -2 6.90015 0.17236 6.90015 2.8521H10.9001ZM10.9001 12.1822V2.8521H6.90015V12.1822H10.9001ZM7.5 17.7476C7.5 16.1008 8.43572 14.669 9.81377 13.9614L7.98652 10.4031C5.32681 11.7689 3.5 14.5432 3.5 17.7476H7.5ZM11.7524 22C9.40385 22 7.5 20.0961 7.5 17.7476H3.5C3.5 22.3053 7.19471 26 11.7524 26V22ZM16.0047 17.7476C16.0047 20.0961 14.1009 22 11.7524 22V26C16.31 26 20.0047 22.3053 20.0047 17.7476H16.0047ZM13.6908 13.9613C15.069 14.6689 16.0047 16.1007 16.0047 17.7476H20.0047C20.0047 14.5431 18.1778 11.7687 15.5179 10.4029L13.6908 13.9613ZM12.6044 2.85211V12.1821H16.6044V2.85211H12.6044ZM11.7523 2C12.2229 2 12.6044 2.3815 12.6044 2.85211H16.6044C16.6044 0.172362 14.432 -2 11.7523 -2V2Z" fill="#E5E8F5" mask="url(#path-4-inside-1)"/>
<circle cx="11.7351" cy="17.741" r="2.34302" fill="#E5E8F5"/>
</svg>
