<svg width="28" height="22" viewBox="0 0 28 22" fill="none" xmlns="http://www.w3.org/2000/svg">
<path fill-rule="evenodd" clip-rule="evenodd" d="M11.0535 5.50498L11.8198 13.606H24.1491L24.8734 5.95151L11.0535 5.50498ZM9.98336 3.46935C9.38127 3.4499 8.89878 3.96327 8.95551 4.563L9.91437 14.7002C9.96294 15.2137 10.3941 15.606 10.9099 15.606H25.059C25.5748 15.606 26.0059 15.2137 26.0545 14.7002L26.9647 5.08059C27.0191 4.50649 26.5778 4.00554 26.0015 3.98692L9.98336 3.46935Z" fill="white"/>
<path fill-rule="evenodd" clip-rule="evenodd" d="M10.2183 18.0045C10.2183 17.4522 10.666 17.0045 11.2183 17.0045L24.7385 17.0045C25.2908 17.0045 25.7385 17.4522 25.7385 18.0045C25.7385 18.5567 25.2908 19.0045 24.7385 19.0045L11.2183 19.0045C10.666 19.0045 10.2183 18.5568 10.2183 18.0045Z" fill="white"/>
<path fill-rule="evenodd" clip-rule="evenodd" d="M25.8734 6.016C26.4233 6.06792 26.8269 6.55575 26.775 7.10559L25.746 18.0012C25.6941 18.551 25.2063 18.9547 24.6565 18.9027C24.1066 18.8508 23.703 18.363 23.7549 17.8131L24.7838 6.91755C24.8358 6.36772 25.3236 5.96408 25.8734 6.016Z" fill="white"/>
<path fill-rule="evenodd" clip-rule="evenodd" d="M11.0083 15.5938C10.4585 15.6458 9.97063 15.2423 9.91863 14.6924L8.70472 1.85668C8.65272 1.30685 9.0563 0.818971 9.60613 0.766972C10.156 0.714973 10.6438 1.11855 10.6958 1.66838L11.9097 14.5041C11.9617 15.054 11.5582 15.5418 11.0083 15.5938Z" fill="white"/>
<path fill-rule="evenodd" clip-rule="evenodd" d="M10.6505 2.0162C10.5039 2.54866 9.95337 2.86143 9.42091 2.71479L6.77771 1.98685C6.24524 1.84021 5.93247 1.28969 6.07911 0.757228C6.22576 0.224767 6.77628 -0.0880031 7.30874 0.0586373L9.95194 0.786579C10.4844 0.933219 10.7972 1.48374 10.6505 2.0162Z" fill="white"/>
<path fill-rule="evenodd" clip-rule="evenodd" d="M13.0664 20C13.3425 20 13.5664 19.7761 13.5664 19.5C13.5664 19.2239 13.3425 19 13.0664 19C12.7903 19 12.5664 19.2239 12.5664 19.5C12.5664 19.7761 12.7903 20 13.0664 20ZM13.0664 22C14.4471 22 15.5664 20.8807 15.5664 19.5C15.5664 18.1193 14.4471 17 13.0664 17C11.6857 17 10.5664 18.1193 10.5664 19.5C10.5664 20.8807 11.6857 22 13.0664 22Z" fill="white"/>
<path fill-rule="evenodd" clip-rule="evenodd" d="M23.2031 20C23.4793 20 23.7031 19.7761 23.7031 19.5C23.7031 19.2239 23.4793 19 23.2031 19C22.927 19 22.7031 19.2239 22.7031 19.5C22.7031 19.7761 22.927 20 23.2031 20ZM23.2031 22C24.5838 22 25.7031 20.8807 25.7031 19.5C25.7031 18.1193 24.5838 17 23.2031 17C21.8224 17 20.7031 18.1193 20.7031 19.5C20.7031 20.8807 21.8224 22 23.2031 22Z" fill="white"/>
<path d="M5 8C5 7.44772 4.55229 7 4 7C3.44772 7 3 7.44772 3 8L3 10.0969H1C0.447715 10.0969 0 10.5446 0 11.0969C0 11.6491 0.447715 12.0969 1 12.0969H3L3 14C3 14.5523 3.44772 15 4 15C4.55228 15 5 14.5523 5 14V12.0969H7C7.55229 12.0969 8 11.6491 8 11.0969C8 10.5446 7.55229 10.0969 7 10.0969H5V8Z" fill="white"/>
</svg>
