<svg width="25" height="16" viewBox="0 0 25 16" fill="none" xmlns="http://www.w3.org/2000/svg">
<path fill-rule="evenodd" clip-rule="evenodd" d="M24.0087 1.85149C24.1872 1.29199 24.0087 0.885485 23.2212 0.885485H20.6037C19.9422 0.885485 19.6377 1.24249 19.4592 1.62349C19.4592 1.62349 18.1122 4.87699 16.2312 6.98598C15.6222 7.59649 15.3417 7.79898 15.0117 7.79898C14.8332 7.79898 14.6052 7.59648 14.6052 7.03698V1.82599C14.6052 1.16599 14.4012 0.859985 13.8417 0.859985H9.72422C9.31772 0.859985 9.06422 1.16599 9.06422 1.47049C9.06422 2.10649 10.0047 2.25799 10.1052 4.03849V7.90098C10.1052 8.73948 9.95372 8.89248 9.62222 8.89248C8.73272 8.89248 6.57272 5.61348 5.27672 1.87699C5.02172 1.14049 4.76822 0.859985 4.10672 0.859985H1.46372C0.701719 0.859985 0.574219 1.21699 0.574219 1.59799C0.574219 2.28349 1.46372 5.74098 4.71722 10.316C6.87722 13.442 9.95372 15.1205 12.7242 15.1205C14.4012 15.1205 14.6052 14.738 14.6052 14.1035V11.7395C14.6052 10.9775 14.7567 10.85 15.2907 10.85C15.6717 10.85 16.3587 11.0525 17.9097 12.5525C19.6887 14.3315 19.9932 15.146 20.9847 15.146H23.6022C24.3657 15.146 24.7212 14.7635 24.5172 14.027C24.2892 13.2905 23.4252 12.2225 22.3062 10.952C21.6957 10.2395 20.7807 9.45198 20.5017 9.07098C20.1207 8.56248 20.2227 8.35848 20.5017 7.90098C20.4762 7.90098 23.6787 3.37699 24.0087 1.85149Z" fill="#333333"/>
</svg>
