<svg width="25" height="24" viewBox="0 0 25 24" fill="none" xmlns="http://www.w3.org/2000/svg">
<path d="M23.5 12C23.5 5.92487 18.5751 1 12.5 1C6.42487 1 1.5 5.92487 1.5 12C1.5 18.0751 6.42487 23 12.5 23C18.5751 23 23.5 18.0751 23.5 12Z" stroke="#E5E8F5" stroke-width="2"/>
<path d="M12.7037 9.5569C7.66412 9.5569 6.13466 14.89 10.4277 17.2963C14.7207 19.7027 20.3139 13.134 17.5505 6.19629L17.5481 6.21089C17.3741 7.25451 16.9904 9.5569 12.7037 9.5569Z" stroke="#E5E8F5" stroke-width="2" stroke-linejoin="round"/>
<path d="M12.3766 15.3704C12.7972 15.0125 12.848 14.3814 12.4901 13.9608C12.1321 13.5402 11.501 13.4894 11.0804 13.8474L12.3766 15.3704ZM5.90803 15.7097C5.36097 15.7855 4.97894 16.2905 5.05475 16.8375C5.13055 17.3846 5.63548 17.7666 6.18253 17.6908L5.90803 15.7097ZM11.0804 13.8474C10.5018 14.3398 9.55514 14.7696 8.51471 15.1027C7.49672 15.4286 6.49838 15.6279 5.90803 15.7097L6.18253 17.6908C6.87667 17.5946 7.98796 17.3713 9.12448 17.0074C10.2386 16.6508 11.4913 16.1239 12.3766 15.3704L11.0804 13.8474Z" fill="#E5E8F5"/>
</svg>
