<svg width="156" height="132" viewBox="0 0 156 132" fill="none" xmlns="http://www.w3.org/2000/svg">
<path d="M117.546 7.26831C101.201 -9.42494 44.1653 4.83388 28.1676 27.7871C20.8643 53.1748 11.8221 108.193 34.0798 125.164C61.9018 146.379 90.4195 111.949 117.546 106.385C144.673 100.82 111.634 86.2135 143.629 63.2603C175.625 40.3071 133.892 23.9616 117.546 7.26831Z" fill="#E5E8F5"/>
<path d="M78.2252 16.9808C70.4313 13.6898 36.2584 11.2964 24.8674 19.075C15.8757 25.0585 5.08308 34.9314 3.88403 41.2141C2.68498 47.4968 -3.01052 72.6277 2.08545 84.2955C7.18142 95.9634 22.1695 111.82 28.7643 113.316C35.3591 114.812 67.4337 117.205 76.4266 113.316C85.4195 109.426 99.2085 95.6643 101.007 86.689C102.806 77.7137 102.506 51.6853 101.007 44.8042C99.5083 37.9232 86.019 20.2717 78.2252 16.9808Z" fill="#FA4F4F"/>
<path d="M26.9087 41.6982C24.2349 41.6982 15.4115 42.23 14.6094 47.2828C14.6094 50.7399 16.7484 50.474 20.4917 51.5377C24.2349 52.6014 22.0959 56.0586 21.8285 62.441L21.8251 62.5237C21.5544 68.9826 20.7808 87.4422 25.8392 88.2365C30.9194 89.0343 29.5825 82.386 29.8499 65.1003C30.1172 47.8146 29.5825 41.6982 26.9087 41.6982Z" fill="#F2F2F2"/>
<path d="M63.601 45.5003C58.0243 39.4311 46.3639 40.9484 42.5616 47.7762C39.7733 53.0867 40.2802 59.9146 42.5616 61.179C44.7485 62.391 44.8429 64.5297 43.5755 65.478C41.5477 66.9953 38.2523 70.7885 40.2802 80.398C42.3081 90.0076 57.2638 89.5018 63.601 85.9615C69.9381 82.4211 66.3893 68.7655 64.8684 67.2482C63.3475 65.7309 61.8266 64.4665 64.8684 62.9492C67.9102 61.4319 69.1777 51.5694 63.601 45.5003Z" fill="#F2F2F2"/>
<path d="M56.5011 50.518C53.7593 47.9425 49.6414 49.3678 49.5222 54.2847C49.6343 57.8298 50.6587 60.1173 54.7758 60.8077C58.893 61.498 59.243 53.0935 56.5011 50.518Z" fill="#FA4F4F"/>
<path d="M50.3577 80.4106C53.6176 83.4727 58.5136 81.7781 58.6553 75.9322C58.522 71.7172 57.3041 68.9974 52.409 68.1767C47.5139 67.3559 47.0978 77.3484 50.3577 80.4106Z" fill="#FA4F4F"/>
<path d="M80.0474 63.2163C81.4954 62.0711 78.0202 54.9137 84.3913 54.9137C90.1827 54.9137 87.2879 61.7848 88.4463 63.2163C89.6047 64.6478 96.2654 63.2163 95.9758 67.797C95.6862 72.3778 89.3151 70.0874 88.4463 71.5189C87.5775 72.9504 89.0255 79.5352 84.3913 79.2489C79.7572 78.9626 81.496 72.6641 80.0474 71.5189C78.5988 70.3737 71.9387 72.3778 71.6491 67.2244C71.3595 62.0711 78.5994 64.3615 80.0474 63.2163Z" fill="#F2F2F2"/>
</svg>
