<svg width="177" height="174" viewBox="0 0 177 174" fill="none" xmlns="http://www.w3.org/2000/svg">
<path d="M10.0402 149.272C4.30596 139.318 23.5094 126.928 41.7266 118.201C59.9439 109.475 114.02 94.4419 124.386 91.1803C137.343 87.1033 148.848 88.0236 161.771 92.703C173.283 96.8715 197.904 93.2252 197.487 103.456C197.181 110.966 191.281 108.561 167.942 116.308C144.603 124.055 146.866 131.31 162.929 126.336C178.992 121.363 196.171 126.667 183.131 132.787C170.091 138.907 70.731 166.582 58.4097 167.615C46.0885 168.648 15.7744 159.227 10.0402 149.272Z" fill="#E5E8F5"/>
<path fill-rule="evenodd" clip-rule="evenodd" d="M86.4627 110.123C80.9394 114.179 81.7161 118.537 84.0031 120.738C86.2901 122.939 92.4731 122.869 94.7908 118.537C97.4231 113.618 91.8566 106.714 86.4627 110.123ZM133.76 139.938C128.109 138.055 128.709 130.363 131.55 126.89C136.18 120.997 143.231 123.417 143.231 128.468C143.967 133.94 139.41 141.822 133.76 139.938ZM23.1563 134.849C19.2406 140.402 19.6676 146.951 26.0039 148.518C32.3403 150.084 34.6187 141.042 33.9779 136.984C33.3372 132.926 27.1431 130.363 23.1563 134.849ZM49.4971 146.913C45.2062 151.673 45.2732 156.568 49.9664 160.054C54.6597 163.541 61.0961 157.976 61.1631 152.746C61.2302 147.517 56.6711 141.08 49.4971 146.913Z" fill="#333333"/>
<path fill-rule="evenodd" clip-rule="evenodd" d="M89.4489 115.787C87.1218 115.039 81.7202 110.136 82.5511 108.308C83.1329 107.2 85.0279 105.266 87.9532 106.397C91.6099 107.81 91.776 116.536 89.4489 115.787ZM19.0396 131.301C17.6131 132.516 17.5073 135.686 21.1529 138.804C22.4347 139.9 23.2592 140.891 23.909 141.672C25.1073 143.113 25.7113 143.84 27.4927 143.189C30.2401 142.185 28.3381 132.516 25.6435 131.301C23.4879 130.329 20.3428 130.896 19.0396 131.301ZM44.4094 143.446C43.18 144.344 44.173 148.694 48.9958 152.666C53.8186 156.637 55.1898 154.841 55.6153 151.909C56.0409 148.978 54.0077 143.02 51.5017 142.689C49.497 142.424 45.9382 143.083 44.4094 143.446ZM131.75 121.189C129.423 121.522 128.509 124.098 131.251 127.422C133.994 130.746 134.825 131.328 136.736 131.162C138.648 130.996 139.313 122.685 136.071 121.189C133.479 119.992 132.11 120.691 131.75 121.189Z" fill="#FF8A83"/>
<path fill-rule="evenodd" clip-rule="evenodd" d="M21.1043 133.055C17.338 133.181 19.0956 129.54 21.1043 126.151C25.0938 119.418 32.7367 108.448 35.8502 104.331C36.2509 103.801 36.782 103.082 37.4199 102.218C42.9787 94.6917 56.6479 76.1846 62.7844 76.1846C68.9751 76.1845 72.7774 82.6022 77.1004 89.8986C78.2191 91.7868 79.3726 93.7338 80.6115 95.6437C82.2144 98.1148 83.382 100.071 84.2042 101.63C91.3203 95.5077 97.41 90.6496 100.399 88.8562C110.14 83.0117 118.233 94.1015 126.475 105.641C128.349 108.265 130.039 110.527 131.484 112.463L131.484 112.464C136.396 119.042 138.49 121.847 135.438 122.213C131.487 122.687 129.828 121.818 125.482 115.26C124.955 114.465 124.348 113.523 123.678 112.482L123.677 112.48C118.819 104.936 110.64 92.2348 105.572 93.1374C100.703 94.0043 87.2586 106.566 75.6344 117.427L75.6343 117.427L75.6341 117.428C73.4864 119.434 71.4008 121.383 69.443 123.189C68.0498 124.474 66.7373 125.681 65.5057 126.814L65.5038 126.815L65.5038 126.815C55.6388 135.887 50.9667 140.183 51.5956 141.707C52.303 143.421 51.7982 145.26 47.9878 145.189C44.9394 145.133 43.5311 143.704 44.1773 141.707C45.1456 139.518 48.6228 135.406 53.4313 130.395C50.6001 129.228 46.0432 127.334 42.5761 125.836C37.5121 123.647 31.5455 121.459 30.3491 122.339C27.3843 126.618 25.467 129.604 25.4983 130.042C25.6238 131.8 24.8705 132.93 21.1043 133.055ZM34.1785 116.907C33.8096 117.934 33.5998 118.879 34.9087 119.403C36.3074 119.962 51.9179 125.532 56.602 127.152C63.6353 120.079 72.5715 111.802 80.6775 104.694C79.0294 102.508 76.995 99.2748 74.5854 95.0159C69.1871 85.4747 65.4208 80.2019 61.0268 82.8383C58.1483 84.5654 43.7396 103.534 34.1785 116.907Z" fill="#333333"/>
<path d="M64.252 18.7483C59.2289 20.8776 16.5943 35.8534 5.93569 40.5089C2.98397 41.7289 1.5117 43.7126 1.14453 44.5519L4.09799 49.4524L24.1902 59.1309C30.7242 59.9885 43.9148 61.7037 44.4048 61.7037C44.8949 61.7037 114.19 36.1407 124.931 28.9124C125.849 23.7818 82.3811 25.6722 81.4077 19.9227C80.4344 14.1731 83.7981 11.0434 84.7117 9.88063C87.407 6.45027 94.3902 1.54973 91.8175 0.202089C89.2447 -1.14556 83.4866 4.49005 76.5033 9.88063C69.5201 15.2712 69.275 16.6189 64.252 18.7483Z" fill="#FF8A83"/>
<path d="M148.686 9.42574C145.875 10.9997 85.7269 7.06474 88.65 2.68009C91.5731 -1.70456 152.958 4.92868 148.686 9.42574Z" fill="#333333"/>
<path d="M123.616 60.6405C118.579 80.5569 112.17 83.533 103.471 85.1355C86.0723 88.1878 49.1241 94.2466 40.5166 94.0635C29.7571 93.8346 11.6718 88.1114 7.32228 83.9908C2.97271 79.8702 -3.07941 47.7127 1.82836 43.7001C6.73613 39.6875 32.0462 51.4835 37.7693 51.0257C43.4924 50.5678 84.241 35.6878 105.989 29.049C127.737 22.4101 120.869 22.6392 129.797 16.6871C138.725 10.7351 148.34 2.72278 150.629 5.92772C152.918 9.13267 143.761 13.4821 136.665 19.4342C129.568 25.3862 128.652 40.7241 123.616 60.6405Z" fill="#FA4F4F"/>
<path d="M44.0138 67.3905C43.8164 63.8014 44.111 60.9567 49.4084 58.8653C54.7058 56.774 60.9519 55.5304 60.9271 60.546C60.9022 65.5617 58.0454 68.2902 52.7057 69.6125C47.3659 70.9347 44.2111 70.9797 44.0138 67.3905Z" fill="#F2F2F2"/>
<path d="M6.13735 56.895C5.64206 51.4478 5.88984 49.4669 20.9936 53.9239C25.6155 55.657 34.5621 59.8167 33.3736 62.5898C31.888 66.0562 27.9264 68.0371 19.2603 64.8182C10.5942 61.5994 6.63265 62.3423 6.13735 56.895Z" fill="#F2F2F2"/>
<path d="M9.87663 75.0762C9.48522 70.7715 9.68103 69.2061 21.6168 72.7282C25.2693 74.0979 32.3394 77.385 31.4002 79.5765C30.2262 82.3159 27.0955 83.8812 20.2471 81.3376C13.3986 78.7939 10.268 79.3809 9.87663 75.0762Z" fill="#F2F2F2"/>
<path d="M45.8242 83.2648C45.8243 80.5014 46.1705 78.3302 50.3251 76.9485C54.4797 75.5668 59.3268 74.8759 59.096 78.7249C58.8651 82.5739 56.557 84.5478 52.4024 85.3373C48.2477 86.1269 45.8242 86.0282 45.8242 83.2648Z" fill="#F2F2F2"/>
<path d="M68.0469 59.8513C68.0469 55.1986 68.5815 51.543 74.9956 49.2167C81.4097 46.8903 88.8929 45.7271 88.5366 52.2076C88.1802 58.6881 84.6168 62.0115 78.2026 63.3408C71.7884 64.6701 68.0468 64.504 68.0469 59.8513Z" fill="#F2F2F2"/>
<path d="M69.6719 77.7085C69.6719 74.2812 70.0657 71.5883 74.7905 69.8747C79.5153 68.161 85.0277 67.3041 84.7652 72.0779C84.5027 76.8516 81.8778 79.2997 77.1529 80.2789C72.428 81.2582 69.6718 81.1358 69.6719 77.7085Z" fill="#F2F2F2"/>
<path d="M96.0195 52.2817C96.0196 46.757 96.6115 42.4163 103.715 39.654C110.818 36.8916 119.105 35.5104 118.71 43.2055C118.315 50.9006 114.369 54.8467 107.266 56.4252C100.163 58.0037 96.0195 57.8064 96.0195 52.2817Z" fill="#F2F2F2"/>
<path d="M93.3516 74.115C93.3516 69.6793 93.8269 66.1942 99.5298 63.9764C105.233 61.7585 111.886 60.6496 111.569 66.8278C111.253 73.0061 108.084 76.1744 102.381 77.4418C96.6783 78.7091 93.3515 78.5507 93.3516 74.115Z" fill="#F2F2F2"/>
</svg>
