<svg width="184" height="114" viewBox="0 0 184 114" fill="none" xmlns="http://www.w3.org/2000/svg">
<path d="M3.69959 20.1261C-4.99392 25.7767 4.56918 32.5139 21.7386 40.7725C38.4004 33.8904 71.2459 19.8218 69.3334 18.6048C66.9427 17.0834 51.5123 1.43567 44.5577 1.21833C39.6887 1.06618 29.0973 5.88429 18.2648 11.7709C17.2204 12.3385 17.3772 15.0462 15.0496 16.2493C12.722 17.4524 11.1052 15.8188 10.5 16.0371C9.89477 16.2553 5.41334 19.0122 3.69959 20.1261Z" fill="#FF8A83"/>
<path d="M130.854 11.0999C139.548 16.7505 130.879 26.0461 113.71 34.3047C97.048 27.4226 61.1154 18.6096 63.0279 17.3925C65.4186 15.8712 80.8491 0.223396 87.8037 0.00606453C94.7582 -0.211267 122.161 5.44928 130.854 11.0999Z" fill="#FF8A83"/>
<path d="M14.8903 93.2563C7.35867 84.8456 27.5511 86.9313 35.8235 86.9313L48.9317 68.2086C72.7136 63.3833 111.52 58.5615 134.13 58.2857C162.393 57.9411 144.748 71.2715 171.288 70.5822C197.827 69.8928 174.786 85.0971 167.203 93.7137C159.621 102.33 82.0195 114.049 68.2329 113.704C54.4463 113.36 17.9882 96.7157 14.8903 93.2563Z" fill="#E5E8F5"/>
<path d="M119.389 78.0206C116.889 87.0206 77.3887 107.021 69.8888 107.021C60.8887 107.021 21.2888 90.0206 18.8888 86.0206C15.8888 81.0206 16.7447 46.4245 23.7447 39.9245C30.7447 33.4245 62.2974 57.7811 69.8888 55.0206C75.3887 53.0206 110.889 32.0206 116.889 32.5206C122.889 33.0206 121.889 69.0206 119.389 78.0206Z" fill="#FA4F4F"/>
<path d="M77.8181 96.3C74.1027 97.3616 74.9514 91.2043 75.1639 87.5949C75.3764 83.9855 77.4775 82.8125 81.9786 81.5386C87.6051 79.9462 86.0986 85.3656 85.9924 89.6119C85.8863 93.8583 81.5336 95.2384 77.8181 96.3Z" fill="#F2F2F2"/>
<path d="M64.8337 17.5659C53.8764 18.479 22.9571 35.1221 18.3398 40.6902L64.8337 57.1516C82.6449 47.227 118.031 33.0099 117.086 32.5925C115.905 32.0707 78.6223 16.4169 64.8337 17.5659Z" fill="#FA4F4F"/>
<path d="M67.001 27.0118C57.0019 27.0118 30.5009 42.0118 33.5009 44.5118L61.0004 57.0117L76.5004 55.5117C83.3337 51.1784 97.7004 41.9117 100.5 39.5117C104 36.5117 77.0007 27.0118 67.001 27.0118Z" fill="#333333"/>
<path d="M117.929 32.6152C119.366 33.1094 141.832 47.2713 141.832 52.5028C141.832 57.7344 97.3989 79.1658 94.63 79.4427C91.8611 79.7196 69.6624 59.456 68.674 57.4576C68.674 57.4576 68.4374 58.032 67.4445 59.6208C66.4515 61.2095 52.4349 81.254 46.9747 81.254C41.8962 81.254 -0.850327 67.0969 1.35591 62.4077C5.58231 53.4248 13.6188 43.8363 15.7013 41.8962C17.7837 39.9561 19.1409 36.9976 23.3176 39.8042C27.4944 42.6108 49.4016 51.285 57.4427 53.1845C65.4837 55.0839 67.1218 54.7056 68.6735 54.1445C70.2253 53.5834 70.9904 53.0475 73.9384 51.6931C81.2105 48.352 94.5667 42.8906 98.9761 40.3769C98.9761 40.3769 113.061 33.0099 114.034 31.7125C115.007 30.4152 116.492 32.1211 117.929 32.6152Z" fill="#FF8A83"/>
</svg>
