<svg width="110" height="15" viewBox="0 0 110 15" fill="none" xmlns="http://www.w3.org/2000/svg">
<path fill-rule="evenodd" clip-rule="evenodd" d="M4.88147 5.93899H7.20072V10.8801H3.97722C4.24456 10.3288 4.508 9.24365 4.62909 8.60716C4.78138 7.80622 4.88147 6.86296 4.88147 5.93899ZM9.11916 14.7317H8.72266C8.66341 14.7141 8.65197 14.6588 8.65084 14.5026L8.65525 12.942H2.60134V14.7317H0.164062V10.8801H1.14681C1.27197 10.6461 1.39006 10.4485 1.51425 10.1932C2.33206 8.51275 2.28688 5.75642 2.28688 3.87695H9.79531V10.8801H11.1319V14.7317H11.0981H11.0644C10.4178 14.7312 9.76547 14.7233 9.11916 14.7317Z" fill="#333333"/>
<path fill-rule="evenodd" clip-rule="evenodd" d="M11.1548 14.7543H11.0641C10.8628 14.7543 10.6611 14.7533 10.4589 14.7525C10.0187 14.7504 9.56378 14.7485 9.119 14.7543L8.71587 14.7534C8.63775 14.7303 8.62862 14.6557 8.62737 14.503L8.63197 12.9646H2.62422V14.7543H0.140625V10.8575H1.13275C1.17322 10.7821 1.21281 10.7104 1.25225 10.6392C1.33428 10.4911 1.41144 10.3513 1.49319 10.1835C2.26881 8.58981 2.26591 6.02864 2.26359 4.15856L2.26331 3.85449H9.81828V10.8575H11.1548V14.7543ZM9.78797 14.7053C10.0133 14.7053 10.2382 14.7063 10.4591 14.7073C10.6611 14.7082 10.863 14.709 11.0641 14.7092H11.1085V10.9027H9.77194V3.89961H2.30966L2.30991 4.15856C2.31197 6.03289 2.31487 8.59997 1.53491 10.203C1.45278 10.3719 1.37137 10.5187 1.29272 10.6608C1.25144 10.7356 1.20972 10.811 1.16712 10.8907L1.16075 10.9027H0.186937V14.7092H2.57797V12.9195H8.67822V12.9422L8.67369 14.5029C8.67484 14.661 8.6885 14.6965 8.72597 14.7092H9.11865C9.34037 14.7063 9.5644 14.7053 9.78797 14.7053ZM7.22359 10.9027H3.94056L3.95622 10.8703C4.24103 10.283 4.50587 9.13042 4.60606 8.60316C4.76853 7.74819 4.858 6.80215 4.858 5.939V5.91644H7.22359V10.9027ZM4.01337 10.8575H7.17737V5.96156H4.90416C4.90275 6.82125 4.81291 7.76129 4.6515 8.61142C4.55266 9.13128 4.29419 10.2569 4.01337 10.8575Z" fill="#333333"/>
<path fill-rule="evenodd" clip-rule="evenodd" d="M77.5273 12.942H85.0358V14.7317H87.3944H87.3985C87.4859 14.7309 87.5124 14.7032 87.5124 14.615V10.9967C87.5124 10.907 87.485 10.8801 87.3944 10.8801H86.1757V3.87695H83.5812V10.8801H80.1219V3.87695H77.5273V12.942Z" fill="#333333"/>
<path fill-rule="evenodd" clip-rule="evenodd" d="M87.3985 14.7543H85.0123V12.9646H77.5039V3.85449H80.1448V10.8575H83.5579V3.85449H86.1987V10.8575H87.3942C87.497 10.8575 87.5354 10.8953 87.5354 10.9968V14.6151C87.5354 14.7157 87.4983 14.7534 87.3985 14.7543ZM85.0587 14.7092H87.3942C87.4722 14.7085 87.489 14.691 87.489 14.6151V10.9968C87.489 10.9195 87.4724 10.9027 87.3942 10.9027H86.1523V3.89961H83.6042V10.9027H80.0986V3.89961H77.5503V12.9195H85.0587V14.7092Z" fill="#333333"/>
<path fill-rule="evenodd" clip-rule="evenodd" d="M51.5442 8.42911C51.5442 7.66637 51.849 7.01947 52.2412 6.62899C53.7417 5.13505 56.8512 5.80653 56.8512 8.46808C56.8512 8.93207 56.6815 9.49402 56.4359 9.84667C56.3717 9.93866 56.3573 9.94255 56.2958 10.0193C55.921 10.4864 55.2259 10.9581 54.4532 10.9581C53.5239 10.9581 52.9192 10.8613 52.2609 10.2098C51.8086 9.76206 51.5442 9.08914 51.5442 8.42911ZM48.8711 8.23466C48.8711 8.80095 48.8761 9.05347 49.0197 9.60483L49.3592 10.4749C49.9232 11.4792 50.808 12.2945 51.8867 12.72C53.2797 13.2694 55.0691 13.2928 56.4587 12.7483C58.1009 12.1045 59.5243 10.4637 59.5243 8.66256C59.5243 7.65795 59.4744 7.1655 59.0138 6.28882C58.1761 4.69398 56.2866 3.68262 54.4532 3.68262H54.4049C53.3968 3.68366 52.8521 3.71733 51.9148 4.08838C51.4503 4.27218 50.9802 4.53701 50.6095 4.85849C49.5978 5.73581 48.8711 6.82637 48.8711 8.23466Z" fill="#333333"/>
<path fill-rule="evenodd" clip-rule="evenodd" d="M54.2284 13.1664C53.4152 13.1664 52.5961 13.0246 51.8779 12.7411C50.8233 12.3252 49.9217 11.5244 49.3387 10.4861L48.9978 9.6131C48.8535 9.0593 48.8477 8.80564 48.8477 8.23494C48.8477 6.97081 49.4188 5.86087 50.5939 4.8417C50.9424 4.53937 51.4085 4.26447 51.9058 4.06757C52.8343 3.70007 53.3803 3.6612 54.4045 3.66016H54.4529C55.3574 3.66016 56.3039 3.91164 57.1181 4.36825C57.9641 4.84283 58.6267 5.50344 59.0339 6.27867C59.5005 7.16682 59.5471 7.66249 59.5471 8.66281C59.5471 10.5661 57.9975 12.1695 56.4667 12.7693C55.7908 13.0344 55.0127 13.1664 54.2284 13.1664ZM54.4045 3.70537C53.3865 3.70641 52.8441 3.74495 51.9229 4.10948C51.4303 4.30445 50.9691 4.5765 50.6243 4.87562C49.4599 5.8856 48.8939 6.98443 48.8939 8.23494C48.8939 8.80167 48.8996 9.05339 49.0416 9.59939L49.3804 10.467C49.9571 11.4936 50.8505 12.2872 51.895 12.6992C53.2956 13.2516 55.0833 13.2628 56.4497 12.7275C57.9658 12.1331 59.5008 10.5461 59.5008 8.66281C59.5008 7.67039 59.4549 7.1787 58.993 6.29933C58.1907 4.77208 56.3237 3.70537 54.4529 3.70537H54.4045ZM54.4529 10.9808C53.4733 10.9808 52.8929 10.8679 52.2442 10.226C51.7913 9.77743 51.5207 9.1058 51.5207 8.4293C51.5207 7.73094 51.7837 7.05202 52.2243 6.61338C53.0001 5.84134 54.2324 5.60807 55.2915 6.03257C56.2972 6.4361 56.8739 7.3238 56.8739 8.46827C56.8739 8.93302 56.7015 9.50523 56.4545 9.85972C56.414 9.91785 56.3927 9.94188 56.3679 9.96974C56.3531 9.98639 56.3366 10.0048 56.3137 10.0335C55.9628 10.4704 55.265 10.9808 54.4529 10.9808ZM54.1996 5.86797C53.4748 5.86797 52.7659 6.13855 52.2574 6.64503C51.8251 7.07553 51.567 7.74248 51.567 8.4293C51.567 9.09417 51.8323 9.75392 52.2771 10.1941C52.9142 10.8247 53.4862 10.9357 54.4529 10.9357C55.2485 10.9357 55.9329 10.4346 56.2773 10.0055C56.3009 9.97607 56.3178 9.95716 56.3331 9.93998C56.3578 9.91222 56.3775 9.89008 56.4165 9.83409C56.6587 9.48649 56.8276 8.92488 56.8276 8.46827C56.8276 7.34305 56.2613 6.47064 55.274 6.07451C54.9271 5.93532 54.5614 5.86797 54.1996 5.86797Z" fill="#333333"/>
<path fill-rule="evenodd" clip-rule="evenodd" d="M16.1654 8.42911C16.1654 7.66637 16.4702 7.01947 16.8624 6.62898C18.3628 5.13505 21.4723 5.80653 21.4723 8.46808C21.4723 9.12027 21.2098 9.73925 20.7757 10.1907C19.3291 11.6945 16.1654 10.9724 16.1654 8.42911ZM18.4587 3.68262H19.2797C19.9053 3.72183 20.5182 3.85105 21.0798 4.07121C21.5171 4.24258 22.2266 4.64451 22.5641 4.97546C22.9853 5.38861 23.351 5.74812 23.6351 6.28882C24.0956 7.16549 24.1456 7.65795 24.1456 8.66255C24.1456 10.4637 22.7221 12.1045 21.0798 12.7482C19.3929 13.4094 17.2825 13.2503 15.7055 12.308L15.0347 11.8047C14.4584 11.2769 14.0854 10.7691 13.7895 10.0414C13.534 9.41314 13.4922 8.93433 13.4922 8.23466C13.4922 7.00454 14.1469 5.78813 15.0552 4.99604L15.755 4.48251C16.5562 4.00968 17.5026 3.74231 18.4587 3.68262Z" fill="#333333"/>
<path fill-rule="evenodd" clip-rule="evenodd" d="M18.8767 13.1731C17.7558 13.1731 16.6274 12.8857 15.6929 12.3275L15.0204 11.8229C14.4181 11.2716 14.0557 10.7583 13.7677 10.05C13.515 9.42879 13.4688 8.95136 13.4688 8.23494C13.4688 7.07161 14.0706 5.82417 15.0393 4.97939L15.7407 4.46465C16.528 3.99989 17.4664 3.72212 18.4567 3.66016H19.2795C19.922 3.7005 20.5299 3.83171 21.0878 4.0504C21.5425 4.22863 22.2505 4.63647 22.58 4.9598C23.0033 5.37466 23.3686 5.73313 23.6551 6.27867C24.1219 7.16716 24.1684 7.66283 24.1684 8.66281C24.1684 10.5661 22.6187 12.1695 21.0878 12.7693C20.3968 13.0403 19.6385 13.1731 18.8767 13.1731ZM18.459 3.70537C17.4762 3.7669 16.5453 4.04241 15.7663 4.50205L15.0686 5.01438C14.1108 5.84957 13.515 7.08414 13.515 8.23494C13.515 8.9456 13.5607 9.4189 13.8106 10.0333C14.0957 10.735 14.455 11.2435 15.0502 11.7883L15.719 12.2902C17.2747 13.2196 19.3763 13.3915 21.0708 12.7275C22.5871 12.133 24.1221 10.546 24.1221 8.66281C24.1221 7.67054 24.0762 7.17906 23.6141 6.29933C23.3308 5.76013 22.9678 5.40407 22.5475 4.99164C22.2219 4.67238 21.5209 4.26888 21.0708 4.09231C20.5174 3.87545 19.9142 3.7452 19.278 3.70537H18.459ZM18.8312 10.9901C18.468 10.9901 18.1 10.925 17.7523 10.7897C16.7439 10.3976 16.1418 9.51521 16.1418 8.4293C16.1418 7.73094 16.4048 7.05202 16.8454 6.61338C17.6213 5.84134 18.8533 5.60807 19.9126 6.03257C20.9183 6.43611 21.4951 7.3238 21.4951 8.46827C21.4951 9.10825 21.2387 9.74177 20.7921 10.2064C20.3028 10.715 19.5769 10.9901 18.8312 10.9901ZM18.8208 5.86797C18.0958 5.86797 17.387 6.13855 16.8784 6.64503C16.4461 7.07553 16.1882 7.74248 16.1882 8.4293C16.1882 9.49604 16.7791 10.3626 17.7692 10.7477C18.8147 11.1539 20.0436 10.9184 20.7585 10.1753C21.1972 9.71905 21.4487 9.09677 21.4487 8.46827C21.4487 7.34305 20.8824 6.47064 19.8951 6.07451C19.5482 5.93532 19.1825 5.86797 18.8208 5.86797Z" fill="#333333"/>
<path fill-rule="evenodd" clip-rule="evenodd" d="M31.5752 10.9189H29.7276V8.66235H31.2214C32.079 8.66235 32.7497 8.90131 32.8806 9.62804C33.0236 10.4231 32.3551 10.9189 31.5752 10.9189ZM27.0938 12.942H31.8897C32.8948 12.942 33.8461 12.5835 34.4291 12.1483L34.8552 11.7529C35.3429 11.1284 35.5457 10.7802 35.5457 9.79066C35.5457 8.45406 34.5047 7.45494 33.3697 7.08095C32.2787 6.72135 30.9647 6.83382 29.7276 6.83382V5.90002H34.5628C34.6535 5.90002 34.6808 5.87305 34.6808 5.78342V3.87695H27.0938V12.942Z" fill="#333333"/>
<path fill-rule="evenodd" clip-rule="evenodd" d="M31.8895 12.9646H27.0703V3.85449H34.7037V5.78343C34.7037 5.88494 34.6652 5.92278 34.5625 5.92278H29.7504V6.81136C29.9803 6.81108 30.2167 6.80701 30.4453 6.80312C31.4512 6.7854 32.4913 6.7678 33.3766 7.05953C34.4677 7.41895 35.5685 8.40289 35.5685 9.79085C35.5685 10.7784 35.3671 11.1341 34.8731 11.7666L34.4447 12.1649C33.9259 12.5523 32.9837 12.9646 31.8895 12.9646ZM27.1165 12.9195H31.8895C32.9721 12.9195 33.9038 12.5118 34.4149 12.1304L34.8389 11.7365C35.3238 11.1153 35.5222 10.7645 35.5222 9.79085C35.5222 8.42527 34.4372 7.4566 33.362 7.10248C32.484 6.81292 31.4473 6.83114 30.4462 6.84825C30.2096 6.85241 29.9649 6.85657 29.7273 6.85657H29.704V5.87766H34.5625C34.6406 5.87766 34.6573 5.86082 34.6573 5.78343V3.89961H27.1165V12.9195ZM31.5749 10.9416H29.704V8.63989H31.2211C32.2194 8.63989 32.7852 8.97108 32.9029 9.62426C32.9626 9.95469 32.8871 10.2542 32.6851 10.4902C32.4429 10.7729 32.028 10.9416 31.5749 10.9416ZM29.7504 10.8965H31.5749C32.0145 10.8965 32.4162 10.7337 32.6496 10.4612C32.8428 10.2357 32.9146 9.94905 32.8574 9.63206C32.7427 8.99487 32.2076 8.68507 31.2211 8.68507H29.7504V10.8965Z" fill="#333333"/>
<path fill-rule="evenodd" clip-rule="evenodd" d="M100.84 12.942H103.434V9.16825H107.208V12.942H109.803V3.87695H107.208V7.06724H103.434V3.87695H100.84V12.942Z" fill="#333333"/>
<path fill-rule="evenodd" clip-rule="evenodd" d="M109.826 12.9646H107.185V9.19082H103.457V12.9646H100.816V3.85449H103.457V7.04478H107.185V3.85449H109.826V12.9646ZM107.231 12.9195H109.779V3.89961H107.231V7.0899H103.411V3.89961H100.863V12.9195H103.411V9.1457H107.231V12.9195Z" fill="#333333"/>
<path fill-rule="evenodd" clip-rule="evenodd" d="M90.1875 12.942H97.9711V10.8801H92.782V9.12919H96.831V7.14509H92.782V5.93899H97.8532V3.87695H90.1875V12.942Z" fill="#333333"/>
<path fill-rule="evenodd" clip-rule="evenodd" d="M97.9939 12.9646H90.1641V3.85449H97.8761V5.96156H92.8048V7.12263H96.8539V9.15194H92.8048V10.8575H97.9939V12.9646ZM90.2104 12.9195H97.9475V10.9027H92.7585V9.10673H96.8076V7.16784H92.7585V5.91644H97.8297V3.89961H90.2104V12.9195Z" fill="#333333"/>
<path fill-rule="evenodd" clip-rule="evenodd" d="M42.8958 7.61192H40.9695V5.86115H42.7386C43.3373 5.86115 43.8329 6.11281 43.9049 6.65498C43.9785 7.21026 43.4214 7.61192 42.8958 7.61192ZM38.375 12.942H40.9695V9.55715C42.5676 9.55715 44.3302 9.75995 45.5179 8.80638C47.5779 7.1521 46.4692 3.87695 43.171 3.87695H38.375V12.942Z" fill="#333333"/>
<path fill-rule="evenodd" clip-rule="evenodd" d="M40.9925 12.9646H38.3516V3.85449H43.1708C45.0355 3.85449 46.0731 4.87706 46.4223 5.83409C46.8185 6.9193 46.4774 8.06499 45.5322 8.82393C44.5144 9.64134 43.0782 9.61489 41.6888 9.58893C41.4594 9.58468 41.2222 9.58027 40.9925 9.5799V12.9646ZM38.3979 12.9195H40.9461V9.53478H40.9693C41.2067 9.53478 41.4523 9.53931 41.6897 9.54362C43.0712 9.56983 44.4983 9.5957 45.503 8.78894C46.4325 8.04252 46.7682 6.91599 46.3789 5.84928C46.0349 4.90673 45.0115 3.89961 43.1708 3.89961H38.3979V12.9195ZM42.8957 7.63458H40.9461V5.83869H42.7383C43.4152 5.83869 43.86 6.14276 43.9277 6.65211C43.9577 6.87871 43.8882 7.09364 43.7269 7.27351C43.5271 7.49628 43.2085 7.63458 42.8957 7.63458ZM40.9925 7.58946H42.8957C43.1958 7.58946 43.5009 7.45688 43.6921 7.24367C43.8446 7.07386 43.91 6.87133 43.8817 6.65793C43.8175 6.17322 43.39 5.88381 42.7383 5.88381H40.9925V7.58946Z" fill="#333333"/>
<path fill-rule="evenodd" clip-rule="evenodd" d="M68.7766 0.0453806C71.7219 1.2688 74.2506 3.05542 76.3458 5.42662C76.3806 5.46559 76.4101 5.5299 76.4063 5.58029C76.2867 6.91324 76.0577 8.22868 75.6757 9.51641C75.1741 11.2034 74.4525 12.7973 73.5316 14.3041C73.5021 14.3546 73.4365 14.4024 73.3798 14.4162C71.8403 14.7729 70.2776 14.9392 68.6968 14.9455C67.1251 14.9378 65.5714 14.7792 64.0383 14.4289C63.9508 14.4087 63.8981 14.3683 63.8531 14.2941C62.545 12.1459 61.6627 9.84148 61.2163 7.37949C61.1324 6.91742 61.0756 6.45 61.0189 5.98314C61.0026 5.84917 60.9863 5.71525 60.9694 5.58151C60.963 5.52617 61.0028 5.4531 61.0428 5.4077C62.8254 3.40685 64.9219 1.80047 67.3489 0.61235C67.6797 0.451345 68.0179 0.30397 68.3556 0.156813C68.4407 0.119727 68.5257 0.082654 68.6107 0.0453806C68.6583 0.0252377 68.729 0.0252377 68.7766 0.0453806ZM68.0609 14.3663C66.8932 14.3346 65.6324 14.1777 64.3842 13.9098C64.3264 13.8971 64.2608 13.8493 64.23 13.7989C63.0518 11.8296 62.2531 9.72051 61.8325 7.4765C61.7508 7.0412 61.693 6.60204 61.6352 6.1626C61.6184 6.03485 61.6016 5.90707 61.5842 5.77936C61.5778 5.72261 61.6023 5.64461 61.6408 5.60175C63.5946 3.46612 65.9071 1.81556 68.5889 0.663993C68.6164 0.651951 68.6507 0.645651 68.6854 0.645092C68.7234 0.644466 68.7618 0.650766 68.7922 0.663991C71.4776 1.82441 73.8044 3.47117 75.753 5.62437C75.7891 5.66343 75.8173 5.72772 75.8122 5.77685C75.6553 7.33409 75.3299 8.85614 74.7986 10.3353C74.3665 11.5398 73.825 12.6939 73.1652 13.7951C73.1331 13.848 73.0649 13.901 73.0057 13.9148C72.3779 14.0508 71.7467 14.1565 71.0983 14.2318C70.3781 14.3155 69.6365 14.3618 68.8546 14.3706M68.5554 14.3722C68.3927 14.3728 68.2278 14.3708 68.0609 14.3663L68.5554 14.3722Z" fill="#333333"/>
<path fill-rule="evenodd" clip-rule="evenodd" d="M75.8354 5.29168L73.982 3.4761C73.9677 3.46214 73.9447 3.46214 73.9304 3.4761L68.5261 8.77829C68.3277 8.97302 68.0058 8.97311 67.8072 8.77857L65.0303 6.05833C64.8319 5.86398 64.5102 5.86398 64.3118 6.05833L63.1412 7.20501C62.9428 7.39946 62.9428 7.71461 63.1412 7.909L67.7997 12.4724C67.9981 12.6668 68.3199 12.6668 68.5183 12.4724L70.0481 10.9738L70.0464 10.9722L75.8354 5.29257V5.29168Z" fill="#333333"/>
</svg>
