<svg width="142" height="20" viewBox="0 0 142 20" fill="none" xmlns="http://www.w3.org/2000/svg">
<path fill-rule="evenodd" clip-rule="evenodd" d="M6.38413 8.02193H9.37497V14.5144H5.21803C5.56293 13.7899 5.90259 12.3642 6.05866 11.5279C6.25511 10.4754 6.38413 9.23602 6.38413 8.02193ZM11.8489 19.5753H11.3376C11.2611 19.5522 11.2465 19.4797 11.245 19.2745L11.2506 17.2238H3.44386V19.5753H0.300781V14.5144H1.5682C1.72958 14.207 1.88182 13.9473 2.04198 13.6118C3.09653 11.4038 3.03829 7.78211 3.03829 5.3125H12.7209V14.5144H14.4445V19.5753H14.4009H14.3575C13.5236 19.5747 12.6823 19.5642 11.8489 19.5753Z" fill="#E01919"/>
<path fill-rule="evenodd" clip-rule="evenodd" d="M14.473 19.6049H14.356C14.0965 19.6048 13.8363 19.6036 13.5756 19.6025C13.008 19.5997 12.4213 19.5973 11.8478 19.6049L11.3277 19.6037C11.2271 19.5733 11.2153 19.4754 11.2136 19.2747L11.2196 17.2533H3.47224V19.6049H0.269531V14.4846H1.54893C1.60102 14.3855 1.65229 14.2912 1.70303 14.1977C1.80884 14.0031 1.90837 13.8195 2.01382 13.5991C3.01392 11.5049 3.01022 8.13954 3.00726 5.68228L3.00691 5.28271H12.7495V14.4846H14.473V19.6049ZM12.7103 19.5405C13.001 19.5405 13.2909 19.5418 13.5758 19.543C13.8363 19.5443 14.0967 19.5453 14.356 19.5455H14.4133V14.544H12.6897V5.34211H3.06667L3.06702 5.68228C3.06963 8.14524 3.07333 11.5182 2.06753 13.6246C1.9616 13.8464 1.85662 14.0394 1.75526 14.226C1.7019 14.3244 1.64819 14.4233 1.59327 14.5281L1.58499 14.544H0.329293V19.5455H3.41261V17.194H11.2793V17.2237L11.2734 19.2745C11.275 19.4822 11.2925 19.5289 11.3409 19.5455H11.8471C12.1331 19.5418 12.422 19.5405 12.7103 19.5405ZM9.40348 14.544H5.16975L5.19 14.5015C5.5572 13.7296 5.89887 12.2153 6.02802 11.5224C6.23741 10.399 6.35288 9.15593 6.35288 8.02185V7.99215H9.40348V14.544ZM5.26371 14.4846H9.34372V8.05154H6.41238C6.41055 9.18111 6.29473 10.4163 6.08652 11.5332C5.95911 12.2164 5.62576 13.6955 5.26371 14.4846Z" fill="#E01919"/>
<path fill-rule="evenodd" clip-rule="evenodd" d="M100.066 17.2238H109.749V19.5753H112.791H112.796C112.909 19.5742 112.943 19.538 112.943 19.422V14.6677C112.943 14.5499 112.908 14.5144 112.791 14.5144H111.219V5.3125H107.873V14.5144H103.412V5.3125H100.066V17.2238Z" fill="#E01919"/>
<path fill-rule="evenodd" clip-rule="evenodd" d="M112.795 19.6049H109.718V17.2533H100.035V5.28271H103.441V14.4846H107.842V5.28271H111.248V14.4846H112.789C112.922 14.4846 112.971 14.5343 112.971 14.6678V19.4219C112.971 19.5542 112.923 19.6037 112.795 19.6049ZM109.777 19.5455H112.789C112.89 19.5447 112.912 19.5216 112.912 19.4219V14.6678C112.912 14.5659 112.89 14.544 112.789 14.544H111.188V5.34211H107.902V14.544H103.381V5.34211H100.095V17.194H109.777V19.5455Z" fill="#E01919"/>
<path fill-rule="evenodd" clip-rule="evenodd" d="M66.5565 11.2935C66.5565 10.2912 66.9496 9.44125 67.4554 8.92803C69.3903 6.96525 73.4003 7.84742 73.4003 11.3446C73.4003 11.9543 73.1814 12.6927 72.8646 13.1561C72.782 13.277 72.7633 13.282 72.6841 13.3829C72.2005 13.9966 71.3044 14.6164 70.3078 14.6164C69.1095 14.6164 68.3296 14.4891 67.4808 13.6332C66.8975 13.0449 66.5565 12.1606 66.5565 11.2935ZM63.1094 11.0379C63.1094 11.782 63.1158 12.1138 63.301 12.8384L63.7388 13.9816C64.4662 15.3012 65.6071 16.3726 66.9983 16.9315C68.7946 17.6534 71.1021 17.6842 72.894 16.9687C75.0118 16.1227 76.8474 13.9669 76.8474 11.6001C76.8474 10.2802 76.783 9.63312 76.1891 8.48116C75.1088 6.3856 72.6722 5.05664 70.3078 5.05664H70.2456C68.9456 5.05799 68.2431 5.10238 67.0345 5.58981C66.4354 5.83125 65.8291 6.17929 65.3511 6.60177C64.0467 7.75451 63.1094 9.18747 63.1094 11.0379Z" fill="#E01919"/>
<path fill-rule="evenodd" clip-rule="evenodd" d="M70.0169 17.5178C68.9683 17.5178 67.912 17.3314 66.9858 16.9589C65.6258 16.4125 64.4632 15.3602 63.7113 13.9959L63.2717 12.8489C63.0857 12.1212 63.0781 11.7879 63.0781 11.0379C63.0781 9.37681 63.8147 7.91842 65.33 6.57925C65.7795 6.18203 66.3805 5.82081 67.0218 5.56212C68.2191 5.07925 68.9232 5.0282 70.244 5.02686H70.3063C71.4728 5.02686 72.6934 5.35729 73.7433 5.95725C74.8344 6.58086 75.6887 7.44886 76.2139 8.46751C76.8157 9.63451 76.8757 10.2857 76.8757 11.6002C76.8757 14.101 74.8774 16.2078 72.9034 16.9961C72.0318 17.3442 71.0282 17.5178 70.0169 17.5178ZM70.244 5.08612C68.9312 5.08764 68.2319 5.13816 67.0438 5.6172C66.4087 5.87342 65.8139 6.23086 65.3692 6.62386C63.8676 7.95099 63.1378 9.39481 63.1378 11.0379C63.1378 11.7826 63.1451 12.1133 63.3283 12.8309L63.7651 13.9709C64.5087 15.3197 65.6609 16.3626 67.0079 16.9039C68.8139 17.6298 71.1193 17.6444 72.8814 16.941C74.8365 16.1601 76.8159 14.0748 76.8159 11.6002C76.8159 10.2961 76.7568 9.65016 76.1611 8.49459C75.1266 6.48781 72.7188 5.08612 70.3063 5.08612H70.244ZM70.3063 14.6459C69.0431 14.6459 68.2947 14.4976 67.4582 13.6542C66.8741 13.0647 66.5252 12.1822 66.5252 11.2934C66.5252 10.3757 66.8644 9.48364 67.4325 8.90725C68.433 7.89281 70.0221 7.58629 71.3878 8.14412C72.6846 8.67429 73.4286 9.84068 73.4286 11.3446C73.4286 11.9552 73.2061 12.707 72.8875 13.1728C72.8354 13.2492 72.8079 13.2809 72.7759 13.3175C72.7569 13.3393 72.7357 13.3634 72.706 13.4012C72.2535 13.9753 71.3536 14.6459 70.3063 14.6459ZM69.9799 7.92781C69.0449 7.92781 68.131 8.28338 67.4751 8.9489C66.9176 9.51446 66.5849 10.3909 66.5849 11.2934C66.5849 12.1669 66.9272 13.0339 67.5007 13.6121C68.3221 14.4409 69.0599 14.5866 70.3063 14.5866C71.3324 14.5866 72.215 13.9282 72.6592 13.3644C72.6896 13.3257 72.7113 13.3009 72.7309 13.2784C72.7631 13.2418 72.7884 13.2128 72.8386 13.1392C73.1509 12.6825 73.3688 11.9445 73.3688 11.3446C73.3688 9.86607 72.6385 8.71968 71.3652 8.1992C70.9179 8.01629 70.4464 7.92781 69.9799 7.92781Z" fill="#E01919"/>
<path fill-rule="evenodd" clip-rule="evenodd" d="M20.9316 11.2935C20.9316 10.2912 21.3246 9.44125 21.8304 8.92803C23.7653 6.96525 27.7751 7.84742 27.7751 11.3446C27.7751 12.2016 27.4365 13.0149 26.8767 13.608C25.0114 15.584 20.9316 14.6352 20.9316 11.2935ZM23.8887 5.05664H24.9477C25.7543 5.10829 26.5446 5.27799 27.2689 5.56725C27.8328 5.79255 28.7479 6.32064 29.183 6.75547C29.7262 7.29825 30.1977 7.77064 30.5641 8.48116C31.1579 9.63312 31.2224 10.2802 31.2224 11.6001C31.2224 13.9669 29.3867 16.1227 27.2689 16.9687C25.0935 17.8373 22.372 17.6283 20.3386 16.3903L19.4735 15.7289C18.7302 15.0353 18.2494 14.3681 17.8676 13.4119C17.5382 12.5865 17.4844 11.9573 17.4844 11.0379C17.4844 9.42151 18.3285 7.82325 19.4998 6.78247L20.4023 6.10781C21.4355 5.48642 22.6559 5.13516 23.8887 5.05664Z" fill="#E01919"/>
<path fill-rule="evenodd" clip-rule="evenodd" d="M24.4269 17.5266C22.9815 17.5266 21.5263 17.149 20.3213 16.4155L19.454 15.7524C18.6773 15.028 18.21 14.3537 17.8385 13.4229C17.5128 12.6067 17.4531 11.9792 17.4531 11.0379C17.4531 9.50929 18.2292 7.87025 19.4784 6.76029L20.3829 6.08394C21.3981 5.47312 22.6083 5.1082 23.8854 5.02686H24.9464C25.7749 5.07986 26.5588 5.25229 27.2784 5.53955C27.8646 5.77373 28.7776 6.30973 29.2026 6.73442C29.7485 7.27968 30.2194 7.7506 30.5888 8.46751C31.1909 9.6349 31.2509 10.2861 31.2509 11.6002C31.2509 14.101 29.2524 16.2078 27.2784 16.9961C26.3872 17.352 25.4093 17.5266 24.4269 17.5266ZM23.8884 5.08612C22.6211 5.16699 21.4204 5.52907 20.416 6.13299L19.5161 6.80616C18.2811 7.90364 17.5128 9.52581 17.5128 11.0379C17.5128 11.9717 17.5716 12.5936 17.8939 13.4009C18.2616 14.323 18.725 14.9911 19.4924 15.7069L20.3548 16.3664C22.3611 17.5877 25.0711 17.8135 27.2563 16.941C29.2118 16.16 31.1912 14.0746 31.1912 11.6002C31.1912 10.2963 31.132 9.65055 30.5361 8.4946C30.1708 7.78607 29.7027 7.31825 29.1606 6.77633C28.7407 6.35681 27.8369 5.82659 27.2563 5.59464C26.5427 5.30973 25.7649 5.13851 24.9444 5.08612H23.8884ZM24.3682 14.6582C23.8998 14.6582 23.4254 14.5726 22.9769 14.3947C21.6766 13.8797 20.9002 12.7202 20.9002 11.2934C20.9002 10.3757 21.2394 9.48364 21.8075 8.90725C22.808 7.89281 24.3967 7.58629 25.7628 8.14412C27.0596 8.67429 27.8035 9.84068 27.8035 11.3446C27.8035 12.1855 27.4729 13.0179 26.8969 13.6283C26.2658 14.2966 25.3299 14.6582 24.3682 14.6582ZM24.3549 7.92781C23.4199 7.92781 22.5058 8.28338 21.8501 8.9489C21.2926 9.51446 20.9599 10.3909 20.9599 11.2934C20.9599 12.6949 21.7221 13.8337 22.9988 14.3396C24.347 14.8734 25.9317 14.5641 26.8536 13.5875C27.4193 12.988 27.7438 12.1704 27.7438 11.3446C27.7438 9.86607 27.0135 8.71968 25.7402 8.1992C25.2929 8.01629 24.8213 7.92781 24.3549 7.92781Z" fill="#E01919"/>
<path fill-rule="evenodd" clip-rule="evenodd" d="M40.8065 14.5655H38.4238V11.6004H40.3501C41.4561 11.6004 42.321 11.9144 42.4898 12.8693C42.6742 13.9139 41.8122 14.5655 40.8065 14.5655ZM35.0273 17.2238H41.212C42.5082 17.2238 43.735 16.7526 44.4867 16.1809L45.0361 15.6613C45.6651 14.8408 45.9266 14.3831 45.9266 13.083C45.9266 11.3268 44.5842 10.0138 43.1206 9.52259C41.7136 9.05006 40.0192 9.1978 38.4238 9.1978V7.9708H44.6592C44.776 7.9708 44.8113 7.93528 44.8113 7.81746V5.3125H35.0273V17.2238Z" fill="#E01919"/>
<path fill-rule="evenodd" clip-rule="evenodd" d="M41.2107 17.2533H34.9961V5.28271H44.8397V7.81737C44.8397 7.95085 44.7902 8.00041 44.6578 8.00041H38.4524V9.16802C38.7488 9.16767 39.0535 9.16224 39.3484 9.15719C40.6456 9.13402 41.9868 9.11085 43.1285 9.49415C44.5354 9.96641 45.955 11.2593 45.955 13.0829C45.955 14.3806 45.6954 14.8481 45.0584 15.6792L44.5058 16.2024C43.8369 16.7115 42.6218 17.2533 41.2107 17.2533ZM35.0557 17.194H41.2107C42.6068 17.194 43.8083 16.6583 44.4674 16.1571L45.0143 15.6395C45.6394 14.8233 45.8952 14.3623 45.8952 13.0829C45.8952 11.2886 44.4962 10.0158 43.1097 9.55058C41.9775 9.17011 40.6405 9.19402 39.3495 9.21658C39.0444 9.22189 38.7289 9.22745 38.4225 9.22745H38.3926V7.94111H44.6578C44.7584 7.94111 44.7799 7.91906 44.7799 7.81737V5.34211H35.0557V17.194ZM40.8051 14.5951H38.3926V11.5707H40.3488C41.6363 11.5707 42.3658 12.0059 42.5176 12.8641C42.5946 13.2984 42.4972 13.6919 42.2367 14.002C41.9244 14.3734 41.3894 14.5951 40.8051 14.5951ZM38.4524 14.5358H40.8051C41.3718 14.5358 41.8899 14.3218 42.191 13.9638C42.4401 13.6675 42.5326 13.291 42.4589 12.8744C42.311 12.0371 41.621 11.63 40.3488 11.63H38.4524V14.5358Z" fill="#E01919"/>
<path fill-rule="evenodd" clip-rule="evenodd" d="M130.129 17.2238H133.475V12.265H138.341V17.2238H141.687V5.3125H138.341V9.50446H133.475V5.3125H130.129V17.2238Z" fill="#E01919"/>
<path fill-rule="evenodd" clip-rule="evenodd" d="M141.716 17.2533H138.31V12.2946H133.503V17.2533H130.098V5.28271H133.503V9.4748H138.31V5.28271H141.716V17.2533ZM138.37 17.194H141.656V5.34211H138.37V9.53406H133.443V5.34211H130.157V17.194H133.443V12.2354H138.37V17.194Z" fill="#E01919"/>
<path fill-rule="evenodd" clip-rule="evenodd" d="M116.391 17.2238H126.428V14.5144H119.736V12.2139H124.958V9.60676H119.736V8.02193H126.276V5.3125H116.391V17.2238Z" fill="#E01919"/>
<path fill-rule="evenodd" clip-rule="evenodd" d="M126.456 17.2533H116.359V5.28271H126.304V8.05154H119.765V9.57698H124.986V12.2435H119.765V14.4846H126.456V17.2533ZM116.419 17.194H126.397V14.544H119.705V12.1841H124.927V9.63637H119.705V7.99215H126.245V5.34211H116.419V17.194Z" fill="#E01919"/>
<path fill-rule="evenodd" clip-rule="evenodd" d="M55.404 10.2202H52.9199V7.91976H55.2012C55.9733 7.91976 56.6125 8.25033 56.7052 8.9628C56.8002 9.69241 56.0818 10.2202 55.404 10.2202ZM49.5742 17.2238H52.9199V12.7762C54.9808 12.7762 57.2537 13.0426 58.7852 11.7897C61.4419 9.61598 60.012 5.3125 55.7588 5.3125H49.5742V17.2238Z" fill="#E01919"/>
<path fill-rule="evenodd" clip-rule="evenodd" d="M52.9486 17.2533H49.543V5.28271H55.7577C58.1623 5.28271 59.5004 6.62632 59.9507 7.88393C60.4615 9.30989 60.0217 10.8152 58.8028 11.8125C57.4904 12.8866 55.6382 12.8518 53.8466 12.8177C53.5506 12.812 53.2448 12.8062 52.9486 12.8059V17.2533ZM49.6027 17.194H52.8888V12.7465H52.9188C53.2249 12.7465 53.5415 12.7524 53.8477 12.7582C55.6293 12.7925 57.4695 12.8266 58.7651 11.7665C59.9638 10.7858 60.3967 9.30558 59.8948 7.90389C59.4511 6.66541 58.1313 5.34211 55.7577 5.34211H49.6027V17.194ZM55.4028 10.2498H52.8888V7.88998H55.2C56.0729 7.88998 56.6465 8.28954 56.7336 8.95876C56.7724 9.25654 56.6827 9.53889 56.4748 9.77528C56.2172 10.0681 55.8064 10.2498 55.4028 10.2498ZM52.9486 10.1904H55.4028C55.7899 10.1904 56.1834 10.0163 56.4299 9.73606C56.6265 9.51298 56.7111 9.24689 56.6745 8.96641C56.5916 8.32945 56.0403 7.94937 55.2 7.94937H52.9486V10.1904Z" fill="#E01919"/>
<path fill-rule="evenodd" clip-rule="evenodd" d="M98.5405 7.34804C95.8386 4.23226 92.5778 1.88469 88.7796 0.277216C88.7182 0.250694 88.627 0.250694 88.5656 0.277216C88.0217 0.520476 87.4725 0.757389 86.9385 1.02222C83.8087 2.58339 81.1052 4.69409 78.8064 7.32313C78.7549 7.38278 78.7035 7.47882 78.7118 7.55152C78.8097 8.33969 78.891 9.13278 79.0304 9.91413C79.6059 13.149 80.7436 16.177 82.4304 18.9996C82.4885 19.0972 82.5565 19.1503 82.6692 19.1768C84.6464 19.637 86.65 19.8456 88.6767 19.8556C90.7153 19.8472 92.7303 19.6287 94.7158 19.1601C94.7887 19.142 94.8733 19.0792 94.9115 19.0129C96.099 17.0329 97.0295 14.9386 97.6765 12.7219C98.169 11.03 98.4641 9.30148 98.6184 7.54991C98.6234 7.48387 98.5854 7.3993 98.5405 7.34804ZM95.1609 5.04987L88.4566 11.752C88.2008 12.0078 87.7857 12.008 87.5296 11.7525L83.9485 8.17822C83.6927 7.92274 83.2778 7.92261 83.022 8.17822L81.5124 9.68478C81.2566 9.94026 81.2566 10.3544 81.5124 10.6097L87.5198 16.606C87.7756 16.8613 88.1906 16.8613 88.4465 16.606L90.4193 14.6368L90.4171 14.6347L97.62 7.43408L97.7759 7.60787C97.8223 7.65926 97.8589 7.74378 97.8522 7.80826C97.6499 9.85435 97.2302 11.8544 96.5451 13.7979C95.9879 15.3807 95.2896 16.8972 94.4388 18.3441C94.3973 18.4135 94.3094 18.4831 94.2331 18.5014C92.4103 18.9035 90.566 19.104 88.4943 19.1022C86.8158 19.1089 84.9549 18.897 83.1153 18.4947C83.0409 18.4781 82.9563 18.4153 82.9164 18.349C81.3971 15.7614 80.3671 12.9901 79.8248 10.0414C79.6888 9.30322 79.6041 8.55648 79.5046 7.81143C79.4963 7.737 79.5278 7.63448 79.5776 7.57804C82.0972 4.77195 85.0791 2.60322 88.5375 1.09C88.612 1.05687 88.7249 1.05687 88.7995 1.09C91.1326 2.11713 93.2555 3.43465 95.1609 5.04987Z" fill="#E01919"/>
</svg>
