<svg width="28" height="28" viewBox="0 0 28 28" fill="none" xmlns="http://www.w3.org/2000/svg">
<path fill-rule="evenodd" clip-rule="evenodd" d="M2.85109 18.3172C1.75852 14.4571 1.50075 11.7999 1.43998 10.7862C2.08919 9.92959 3.91019 7.70977 6.98389 5.32249C10.0921 2.90841 12.9532 1.8282 13.9752 1.49261C15.0007 1.87102 17.8717 3.04369 21.1128 5.35703C21.8187 5.8609 22.4531 6.36627 23.019 6.85675L13.6407 16.4709C13.3273 16.7921 12.819 16.7986 12.4978 16.4855L7.03993 11.1642C6.72194 10.8541 6.21976 10.8569 5.90513 11.1705L3.75755 13.3109C3.43229 13.6351 3.43041 14.1676 3.75337 14.4941L12.4994 23.3372C12.8184 23.6596 13.3333 23.6587 13.6511 23.3351L26.3412 10.4126C26.422 10.5237 26.4917 10.6227 26.5505 10.7083C26.4384 11.7754 26.0604 14.5794 24.9267 18.2877C23.8104 21.9393 22.3659 24.7219 21.7501 25.8251C20.6106 26.0621 17.8157 26.5462 14.0056 26.5462C10.1171 26.5462 7.28608 26.042 6.1931 25.8109C5.54469 24.8344 3.94465 22.1807 2.85109 18.3172ZM13.7813 0.0313825C13.9289 -0.0137653 14.0814 -0.00995291 14.227 0.0412227C15.0793 0.340678 18.2835 1.56233 21.9322 4.16656C25.5277 6.73284 27.3845 9.35229 27.88 10.1134C27.9722 10.255 28.0122 10.4224 27.9968 10.5916C27.9164 11.4751 27.5645 14.5504 26.2899 18.7198C25.0285 22.8456 23.3643 25.9001 22.8348 26.8195C22.7272 27.0065 22.5523 27.1362 22.3445 27.1829C21.3818 27.399 18.3166 28 14.0056 28C9.62457 28 6.53007 27.3793 5.62143 27.1726C5.44099 27.1316 5.28489 27.0264 5.17822 26.8726C4.61099 26.055 2.72864 23.1338 1.4793 18.7198C0.242699 14.3508 0.0353904 11.4444 0.000636301 10.5927C-0.00631861 10.4222 0.0438937 10.2581 0.143745 10.1212C0.675774 9.39131 2.62921 6.8763 6.1181 4.16656C9.6656 1.41129 12.9159 0.296155 13.7813 0.0313825Z" fill="#333333"/>
</svg>
