<svg width="206" height="29" viewBox="0 0 206 29" fill="none" xmlns="http://www.w3.org/2000/svg">
<path fill-rule="evenodd" clip-rule="evenodd" d="M9.26313 11.6318H13.602V21.0458H7.57146C8.0718 19.9954 8.56456 17.9281 8.79097 16.7154C9.07596 15.1893 9.26313 13.3922 9.26313 11.6318ZM17.1908 28.3842H16.4491C16.3382 28.3506 16.3169 28.2456 16.3148 27.948L16.323 24.9745H4.99767V28.3842H0.437988V21.0458H2.27663C2.51075 20.6001 2.7316 20.2236 2.96395 19.7371C4.49379 16.5355 4.4093 11.284 4.4093 7.70309H18.4558V21.0458H20.9563V28.3842H20.8932H20.8301C19.6204 28.3833 18.3999 28.3681 17.1908 28.3842Z" fill="white"/>
<path fill-rule="evenodd" clip-rule="evenodd" d="M20.9986 28.4272H20.8288C20.4523 28.4271 20.0749 28.4253 19.6968 28.4237C18.8733 28.4196 18.0222 28.4162 17.1901 28.4272L16.4356 28.4255C16.2897 28.3813 16.2727 28.2394 16.2701 27.9483L16.2789 25.0174H5.03974V28.4272H0.393555V21.0027H2.24958C2.32515 20.859 2.39953 20.7224 2.47314 20.5867C2.62663 20.3045 2.77102 20.0384 2.92401 19.7187C4.37485 16.6822 4.36948 11.8024 4.36518 8.23937L4.36468 7.66H18.4982V21.0027H20.9986V28.4272ZM18.4415 28.3338C18.8632 28.3338 19.2837 28.3357 19.697 28.3374C20.0749 28.3393 20.4526 28.3407 20.8288 28.3411H20.9119V21.0889H18.4115V7.74612H4.45138L4.45188 8.23937C4.45567 11.8107 4.46104 16.7014 3.00192 19.7557C2.84824 20.0774 2.69595 20.3572 2.54891 20.6278C2.4715 20.7704 2.39359 20.9139 2.3139 21.0658L2.3019 21.0889H0.480252V28.3411H4.95323V24.9314H16.3654V24.9745L16.3568 27.9482C16.3592 28.2492 16.3847 28.317 16.4549 28.3411H17.1892C17.6041 28.3357 18.0232 28.3338 18.4415 28.3338ZM13.6442 21.0889H7.50232L7.53171 21.0272C8.0644 19.908 8.56006 17.7122 8.74742 16.7076C9.05118 15.0786 9.21869 13.2762 9.21869 11.6317V11.5887H13.6442V21.0889ZM7.63862 21.0027H13.5575V11.6748H9.30501C9.30236 13.3127 9.13434 15.1037 8.83229 16.7233C8.64746 17.7138 8.16386 19.8585 7.63862 21.0027Z" fill="white"/>
<path fill-rule="evenodd" clip-rule="evenodd" d="M145.168 24.9745H159.215V28.3842H163.628H163.635C163.799 28.3826 163.848 28.33 163.848 28.1619V21.2682C163.848 21.0973 163.797 21.0458 163.628 21.0458H161.348V7.70309H156.494V21.0458H150.022V7.70309H145.168V24.9745Z" fill="white"/>
<path fill-rule="evenodd" clip-rule="evenodd" d="M163.634 28.4272H159.17V25.0174H145.124V7.66H150.065V21.0027H156.45V7.66H161.39V21.0027H163.626C163.819 21.0027 163.891 21.0748 163.891 21.2683V28.1619C163.891 28.3536 163.821 28.4255 163.634 28.4272ZM159.257 28.3411H163.626C163.772 28.3398 163.804 28.3064 163.804 28.1619V21.2683C163.804 21.1207 163.773 21.0889 163.626 21.0889H161.303V7.74612H156.536V21.0889H149.978V7.74612H145.211V24.9314H159.257V28.3411Z" fill="white"/>
<path fill-rule="evenodd" clip-rule="evenodd" d="M96.5562 16.3758C96.5562 14.9226 97.1265 13.6901 97.8602 12.9459C100.667 10.0999 106.485 11.3791 106.485 16.45C106.485 17.3341 106.167 18.4047 105.707 19.0766C105.587 19.2519 105.56 19.2592 105.445 19.4054C104.744 20.2954 103.444 21.1941 101.998 21.1941C100.26 21.1941 99.1284 21.0095 97.8971 19.7684C97.0509 18.9155 96.5562 17.6332 96.5562 16.3758ZM91.5554 16.0052C91.5554 17.0842 91.5648 17.5653 91.8335 18.6159L92.4686 20.2736C93.5238 22.187 95.1789 23.7405 97.197 24.5509C99.8029 25.5978 103.151 25.6425 105.75 24.6049C108.822 23.3783 111.485 20.2524 111.485 16.8205C111.485 14.9065 111.392 13.9683 110.53 12.298C108.963 9.25941 105.428 7.33243 101.998 7.33243H101.908C100.022 7.33438 99.003 7.39875 97.2496 8.10553C96.3804 8.45561 95.501 8.96027 94.8076 9.57287C92.9151 11.2443 91.5554 13.3221 91.5554 16.0052Z" fill="white"/>
<path fill-rule="evenodd" clip-rule="evenodd" d="M101.578 25.4012C100.057 25.4012 98.5244 25.131 97.1808 24.5908C95.208 23.7986 93.5213 22.2728 92.4305 20.2945L91.7928 18.6313C91.5229 17.5762 91.512 17.0928 91.512 16.0054C91.512 13.5968 92.5804 11.4821 94.7788 9.54034C95.4308 8.96437 96.3028 8.4406 97.2331 8.0655C98.9701 7.36534 99.9914 7.29132 101.908 7.28937H101.998C103.69 7.28937 105.461 7.7685 106.984 8.63844C108.567 9.54267 109.806 10.8013 110.568 12.2783C111.441 13.9705 111.528 14.9147 111.528 16.8207C111.528 20.4469 108.629 23.5018 105.766 24.6447C104.501 25.1496 103.045 25.4012 101.578 25.4012ZM101.908 7.3753C100.003 7.3775 98.9885 7.45076 97.265 8.14537C96.3436 8.51689 95.4808 9.03517 94.8356 9.60502C92.6573 11.5294 91.5985 13.6229 91.5985 16.0054C91.5985 17.0851 91.6091 17.5648 91.8749 18.6052L92.5086 20.2582C93.5873 22.214 95.2588 23.7262 97.2129 24.5111C99.8329 25.5637 103.177 25.5848 105.734 24.5649C108.57 23.4326 111.441 20.4089 111.441 16.8207C111.441 14.9297 111.356 13.9932 110.492 12.3176C108.991 9.40775 105.498 7.3753 101.998 7.3753H101.908ZM101.998 21.237C100.165 21.237 99.0797 21.022 97.8661 19.799C97.0187 18.9442 96.5127 17.6647 96.5127 16.3758C96.5127 15.0452 97.0048 13.7517 97.8289 12.9159C99.2803 11.445 101.586 11.0005 103.567 11.8094C105.448 12.5781 106.527 14.2694 106.527 16.45C106.527 17.3355 106.205 18.4256 105.742 19.1009C105.667 19.2117 105.627 19.2577 105.581 19.3108C105.553 19.3424 105.522 19.3774 105.479 19.4321C104.823 20.2647 103.517 21.237 101.998 21.237ZM101.524 11.4958C100.168 11.4958 98.8422 12.0113 97.8907 12.9763C97.0819 13.7964 96.5992 15.0672 96.5992 16.3758C96.5992 17.6425 97.0958 18.8995 97.9278 19.738C99.1194 20.9397 100.19 21.1511 101.998 21.1511C103.486 21.1511 104.767 20.1964 105.411 19.3788C105.455 19.3227 105.487 19.2868 105.515 19.2541C105.562 19.201 105.599 19.159 105.672 19.0523C106.125 18.3901 106.441 17.32 106.441 16.45C106.441 14.3062 105.381 12.644 103.534 11.8893C102.885 11.624 102.201 11.4958 101.524 11.4958Z" fill="white"/>
<path fill-rule="evenodd" clip-rule="evenodd" d="M30.369 16.3758C30.369 14.9226 30.9392 13.6901 31.6729 12.9459C34.4799 10.0999 40.297 11.3791 40.297 16.45C40.297 17.6926 39.8057 18.8718 38.9936 19.7319C36.2876 22.5971 30.369 21.2213 30.369 16.3758ZM34.659 7.33243H36.1952C37.3654 7.40732 38.5119 7.65338 39.5626 8.07281C40.3807 8.3995 41.7082 9.16523 42.3394 9.79573C43.1274 10.5828 43.8114 11.2677 44.343 12.298C45.2044 13.9683 45.298 14.9065 45.298 16.8205C45.298 20.2524 42.6349 23.3783 39.5626 24.6049C36.4067 25.8644 32.4587 25.5613 29.5088 23.7662L28.2538 22.8071C27.1755 21.8015 26.478 20.834 25.9242 19.4476C25.4463 18.2507 25.3682 17.3384 25.3682 16.0052C25.3682 13.6615 26.5928 11.344 28.292 9.83488L29.6011 8.85663C31.1001 7.95561 32.8705 7.44628 34.659 7.33243Z" fill="white"/>
<path fill-rule="evenodd" clip-rule="evenodd" d="M35.4415 25.4139C33.3447 25.4139 31.2338 24.8665 29.4855 23.8029L28.2273 22.8414C27.1007 21.791 26.4227 20.8133 25.8838 19.4637C25.4112 18.2801 25.3247 17.3703 25.3247 16.0054C25.3247 13.7889 26.4505 11.4123 28.2628 9.80285L29.5749 8.82214C31.0477 7.93645 32.8034 7.40732 34.6561 7.28937H36.1953C37.3971 7.36622 38.5344 7.61625 39.5783 8.03278C40.4286 8.37233 41.7532 9.14953 42.3698 9.76534C43.1617 10.556 43.8448 11.2388 44.3807 12.2783C45.2541 13.971 45.3412 14.9153 45.3412 16.8207C45.3412 20.4469 42.4419 23.5018 39.5783 24.6447C38.2854 25.1609 36.8668 25.4139 35.4415 25.4139ZM34.6604 7.3753C32.8218 7.49256 31.0801 8.01758 29.6229 8.89326L28.3175 9.86936C26.5259 11.4607 25.4112 13.8129 25.4112 16.0054C25.4112 17.3594 25.4966 18.2612 25.9641 19.4317C26.4976 20.7688 27.1698 21.7375 28.2831 22.7755L29.5342 23.7317C32.4448 25.5026 36.3762 25.83 39.5462 24.5649C42.383 23.4324 45.2545 20.4085 45.2545 16.8207C45.2545 14.9301 45.1687 13.9937 44.3043 12.3176C43.7742 11.2902 43.0952 10.6119 42.3088 9.82611C41.6996 9.2178 40.3885 8.44899 39.5462 8.11265C38.5109 7.69953 37.3827 7.45126 36.1923 7.3753H34.6604ZM35.3564 21.2549C34.677 21.2549 33.9887 21.1307 33.338 20.8728C31.4518 20.126 30.3254 18.4447 30.3254 16.3758C30.3254 15.0452 30.8175 13.7517 31.6416 12.9159C33.0931 11.445 35.3978 11.0005 37.3796 11.8094C39.2609 12.5781 40.3401 14.2694 40.3401 16.45C40.3401 17.6694 39.8604 18.8763 39.0249 19.7614C38.1094 20.7306 36.7516 21.2549 35.3564 21.2549ZM35.3371 11.4958C33.9808 11.4958 32.6547 12.0113 31.7034 12.9763C30.8947 13.7964 30.412 15.0672 30.412 16.3758C30.412 18.4081 31.5177 20.0593 33.3698 20.7928C35.3256 21.5669 37.6246 21.1183 38.962 19.7023C39.7827 18.8331 40.2534 17.6475 40.2534 16.45C40.2534 14.3062 39.1939 12.644 37.3468 11.8893C36.6979 11.624 36.0138 11.4958 35.3371 11.4958Z" fill="white"/>
<path fill-rule="evenodd" clip-rule="evenodd" d="M59.1983 21.12H55.7418V16.8205H58.5362C60.1406 16.8205 61.3954 17.2759 61.6403 18.6605C61.9078 20.1752 60.6572 21.12 59.1983 21.12ZM50.8145 24.9745H59.7865C61.6669 24.9745 63.4467 24.2913 64.5372 23.4623L65.3342 22.7089C66.2467 21.5191 66.6261 20.8555 66.6261 18.9703C66.6261 16.4238 64.6787 14.52 62.5554 13.8077C60.5143 13.1226 58.0562 13.3368 55.7418 13.3368V11.5576H64.7874C64.9569 11.5576 65.0081 11.5061 65.0081 11.3353V7.70309H50.8145V24.9745Z" fill="white"/>
<path fill-rule="evenodd" clip-rule="evenodd" d="M59.7856 25.0174H50.77V7.66H65.0502V11.3352C65.0502 11.5288 64.9783 11.6007 64.7863 11.6007H55.784V13.2937C56.2141 13.2932 56.6561 13.2853 57.0839 13.278C58.9657 13.2444 60.9115 13.2108 62.5677 13.7666C64.6088 14.4514 66.6682 16.326 66.6682 18.9703C66.6682 20.8519 66.2915 21.5298 65.3674 22.7349L64.5658 23.4936C63.5953 24.2317 61.8326 25.0174 59.7856 25.0174ZM50.8565 24.9314H59.7856C61.8109 24.9314 63.554 24.1546 64.5101 23.4279L65.3034 22.6774C66.2103 21.4938 66.5815 20.8254 66.5815 18.9703C66.5815 16.3685 64.5519 14.523 62.5404 13.8484C60.8979 13.2967 58.9584 13.3314 57.0855 13.3641C56.6429 13.3718 56.1852 13.3799 55.7407 13.3799H55.6973V11.5147H64.7863C64.9323 11.5147 64.9635 11.4827 64.9635 11.3352V7.74612H50.8565V24.9314ZM59.1972 21.163H55.6973V16.7776H58.5351C60.403 16.7776 61.4613 17.4086 61.6816 18.6531C61.7932 19.2827 61.6519 19.8533 61.2741 20.3029C60.8209 20.8415 60.0448 21.163 59.1972 21.163ZM55.784 21.0769H59.1972C60.0194 21.0769 60.7709 20.7667 61.2076 20.2475C61.5691 19.8179 61.7032 19.272 61.5963 18.668C61.3817 17.4538 60.3808 16.8635 58.5351 16.8635H55.784V21.0769Z" fill="white"/>
<path fill-rule="evenodd" clip-rule="evenodd" d="M188.779 24.9745H193.633V17.7842H200.693V24.9745H205.546V7.70309H200.693V13.7814H193.633V7.70309H188.779V24.9745Z" fill="white"/>
<path fill-rule="evenodd" clip-rule="evenodd" d="M205.589 25.0174H200.648V17.8273H193.675V25.0174H188.735V7.66H193.675V13.7385H200.648V7.66H205.589V25.0174ZM200.735 24.9314H205.502V7.74612H200.735V13.8245H193.588V7.74612H188.821V24.9314H193.588V17.7414H200.735V24.9314Z" fill="white"/>
<path fill-rule="evenodd" clip-rule="evenodd" d="M168.85 24.9745H183.411V21.0458H173.703V17.7101H181.278V13.9298H173.703V11.6318H183.19V7.70309H168.85V24.9745Z" fill="white"/>
<path fill-rule="evenodd" clip-rule="evenodd" d="M183.453 25.0174H168.805V7.66H183.233V11.6748H173.745V13.8867H181.32V17.7531H173.745V21.0027H183.453V25.0174ZM168.892 24.9314H183.366V21.0889H173.659V17.667H181.234V13.9728H173.659V11.5887H183.146V7.74612H168.892V24.9314Z" fill="white"/>
<path fill-rule="evenodd" clip-rule="evenodd" d="M80.3779 14.8192H76.7743V11.4836H80.0837C81.2038 11.4836 82.1311 11.9629 82.2656 12.996C82.4034 14.054 81.3613 14.8192 80.3779 14.8192ZM71.9207 24.9745H76.7743V18.5255C79.764 18.5255 83.0613 18.9117 85.2831 17.095C89.1371 13.9431 87.0628 7.70309 80.8926 7.70309H71.9207V24.9745Z" fill="white"/>
<path fill-rule="evenodd" clip-rule="evenodd" d="M76.817 25.0174H71.8765V7.66H80.8922C84.3806 7.66 86.3218 9.60824 86.975 11.4318C87.7161 13.4994 87.078 15.6821 85.3097 17.1282C83.4058 18.6856 80.7188 18.6352 78.1198 18.5858C77.6904 18.5775 77.2468 18.5691 76.817 18.5686V25.0174ZM71.9632 24.9314H76.7303V18.4824H76.7738C77.2179 18.4824 77.6771 18.491 78.1214 18.4994C80.7059 18.5493 83.3756 18.5986 85.2551 17.0616C86.994 15.6394 87.622 13.4932 86.8939 11.4607C86.2503 9.66491 84.3356 7.74612 80.8922 7.74612H71.9632V24.9314ZM80.3774 14.8622H76.7303V11.4405H80.0831C81.3495 11.4405 82.1815 12.0199 82.308 12.9903C82.3642 13.4221 82.2342 13.8315 81.9326 14.1742C81.5587 14.5988 80.9628 14.8622 80.3774 14.8622ZM76.817 14.7761H80.3774C80.939 14.7761 81.5098 14.5237 81.8674 14.1174C82.1525 13.7939 82.2752 13.4081 82.2222 13.0014C82.102 12.0778 81.3022 11.5266 80.0831 11.5266H76.817V14.7761Z" fill="white"/>
<path fill-rule="evenodd" clip-rule="evenodd" d="M142.954 10.6547C139.034 6.13686 134.304 2.73289 128.794 0.402042C128.705 0.363585 128.572 0.363585 128.483 0.402042C127.694 0.75477 126.897 1.09829 126.123 1.48229C121.582 3.74599 117.66 6.8065 114.325 10.6186C114.251 10.7051 114.176 10.8444 114.188 10.9498C114.33 12.0926 114.448 13.2426 114.65 14.3756C115.485 19.0661 117.136 23.4567 119.583 27.5496C119.667 27.691 119.766 27.768 119.929 27.8064C122.798 28.4737 125.704 28.7762 128.644 28.7907C131.602 28.7785 134.525 28.4617 137.405 27.7823C137.511 27.756 137.634 27.6649 137.689 27.5687C139.412 24.6978 140.762 21.6611 141.7 18.4468C142.415 15.9936 142.843 13.4872 143.067 10.9475C143.074 10.8517 143.019 10.7291 142.954 10.6547ZM138.051 7.32239L128.325 17.0404C127.954 17.4114 127.352 17.4116 126.98 17.0412L121.785 11.8585C121.414 11.488 120.812 11.4879 120.441 11.8585L118.251 14.043C117.88 14.4135 117.88 15.0139 118.251 15.3842L126.966 24.0788C127.337 24.449 127.939 24.449 128.31 24.0788L131.172 21.2234L131.169 21.2204L141.618 10.7795L141.845 11.0315C141.912 11.106 141.965 11.2286 141.955 11.3221C141.662 14.2889 141.053 17.1889 140.059 20.007C139.251 22.3021 138.238 24.501 137.004 26.5991C136.943 26.6997 136.816 26.8006 136.705 26.8271C134.061 27.4102 131.385 27.7008 128.38 27.6983C125.945 27.7079 123.245 27.4007 120.576 26.8174C120.468 26.7933 120.346 26.7022 120.288 26.6061C118.084 22.8541 116.59 18.8357 115.803 14.5602C115.606 13.4897 115.483 12.407 115.338 11.3267C115.326 11.2187 115.372 11.0701 115.444 10.9882C119.099 6.91941 123.425 3.77474 128.442 1.58058C128.551 1.53254 128.714 1.53254 128.823 1.58058C132.207 3.06992 135.287 4.98032 138.051 7.32239Z" fill="white"/>
</svg>
