<svg width="211" height="125" viewBox="0 0 211 125" fill="none" xmlns="http://www.w3.org/2000/svg">
<path d="M172.691 95.0755C177.326 105.76 176.811 117.861 170.632 120.95C180.588 118.333 201.212 112.374 204.06 109.478C207.62 105.86 210.924 98.2938 209.765 86.9656C208.607 75.6374 199.853 54.6544 192.001 50.5351C184.148 46.4157 167.542 58.9026 164.839 61.091C162.136 63.2794 154.798 70.102 158.789 73.7065C162.779 77.3109 168.057 84.391 172.691 95.0755Z" fill="#FA4F4F"/>
<path d="M158.788 120.178C154.797 115.801 155.184 113.226 160.59 111.553C164.495 109.837 173.643 105.94 178.998 104.087C185.692 101.77 186.851 104.087 194.446 107.949C200.522 111.038 205.645 106.661 207.448 104.087C206.203 107.305 201.037 115.029 190.327 120.178C176.939 126.614 162.779 124.555 158.788 120.178Z" fill="#333333"/>
<path d="M70.6743 63.442C79.5154 63.1033 79.2391 62.8504 80.3104 72.6666C81.3817 82.4828 89.9353 89.5388 93.917 91.3139C98.8942 93.5328 85.0052 100.83 76.7795 99.4975C68.5537 98.165 60.3648 85.6944 57.8751 74.9864C55.3855 64.2785 61.8332 63.7807 70.6743 63.442Z" fill="#FF8A83"/>
<path d="M2.06118 37.8439C3.75947 43.7211 3.53346 43.5946 10.2099 42.1654C16.8863 40.7362 23.3762 44.8182 25.4064 47.0463C27.9442 49.8314 29.7171 39.1291 27.0555 34.0189C24.3938 28.9087 14.4287 26.2423 6.85885 26.9342C-0.711033 27.6262 0.362884 31.9668 2.06118 37.8439Z" fill="#FF8A83"/>
<path d="M118.157 24.3637C121.043 19.2685 132.502 9.53768 138.464 5.95081L145.913 6.4875L154.844 14.3819C157.651 18.8282 158.49 24.0952 158.333 24.4067C158.137 24.7961 155.603 23.9894 151.533 25.6711C145.125 28.3193 141.091 32.529 138.028 35.524C134.966 38.5189 131.517 43.7039 128.578 40.8709C125.64 38.038 115.27 29.4589 118.157 24.3637Z" fill="#FA4F4F"/>
<path d="M146.892 14.6837C144.052 15.8806 144.359 13.6326 143.356 9.08233C142.354 4.53211 137.684 6.42835 137.684 6.42835C139.86 5.05444 143.742 2.60341 151.309 9.01759C158.102 14.7756 159.017 20.4916 158.524 23.8973C158.393 24.8016 157.808 24.6911 157.806 23.7775C157.801 22.2785 157.548 20.355 156.169 18.3512C154.17 15.447 149.981 13.3824 146.892 14.6837Z" fill="#333333"/>
</svg>
