<svg width="210" height="125" viewBox="0 0 210 125" fill="none" xmlns="http://www.w3.org/2000/svg">
<path d="M37.461 29.5649C32.8267 18.8803 33.3416 6.77975 39.5207 3.69022C29.5647 6.30785 8.94074 12.2669 6.09236 15.1619C2.53188 18.7808 -0.771656 26.3466 0.386909 37.6748C1.54548 49.003 10.2991 69.9859 18.1516 74.1053C26.0041 78.2246 42.6102 65.7378 45.3135 63.5494C48.0168 61.361 55.3544 54.5383 51.3638 50.9339C47.3732 47.3295 42.0952 40.2494 37.461 29.5649Z" fill="#FA4F4F"/>
<path d="M51.3644 4.46254C55.355 8.83934 54.9688 11.4139 49.5622 13.0874C45.6574 14.8038 36.509 18.7 31.1539 20.5537C24.4599 22.8709 23.3014 20.5537 15.7063 16.6918C9.6303 13.6023 4.50686 17.9791 2.70465 20.5537C3.94904 17.3355 9.11538 9.61172 19.8257 4.46254C33.2135 -1.97394 47.3738 0.0857353 51.3644 4.46254Z" fill="#333333"/>
<path d="M139.48 61.1984C130.639 61.5371 130.915 61.79 129.844 51.9738C128.773 42.1575 120.219 35.1016 116.237 33.3265C111.26 31.1076 125.149 23.8104 133.375 25.1429C141.601 26.4754 149.79 38.946 152.279 49.654C154.769 60.3619 148.321 60.8597 139.48 61.1984Z" fill="#FF8A83"/>
<path d="M208.093 86.7964C206.395 80.9193 206.621 81.0457 199.944 82.475C193.268 83.9042 186.778 79.8222 184.748 77.5941C182.21 74.8089 180.437 85.5113 183.099 90.6215C185.761 95.7317 195.726 98.3981 203.295 97.7061C210.865 97.0142 209.791 92.6736 208.093 86.7964Z" fill="#FF8A83"/>
<path d="M91.9956 100.277C89.1091 105.372 77.6502 115.103 71.6885 118.69L64.2395 118.153L55.3086 110.258C52.5016 105.812 51.6619 100.545 51.8191 100.234C52.0155 99.8443 54.5494 100.651 58.6191 98.9693C65.0274 96.3211 69.0614 92.1114 72.124 89.1164C75.1866 86.1214 78.6358 80.9365 81.5742 83.7694C84.5126 86.6024 94.8822 95.1815 91.9956 100.277Z" fill="#FA4F4F"/>
<path d="M63.2599 109.957C66.1008 108.76 65.7935 111.008 66.7961 115.558C67.7988 120.108 72.4685 118.212 72.4685 118.212C70.2923 119.586 66.4099 122.037 58.8432 115.623C52.0506 109.865 51.1354 104.149 51.6285 100.743C51.7594 99.8388 52.3439 99.9492 52.3466 100.863C52.351 102.362 52.6048 104.285 53.9836 106.289C55.982 109.193 60.1714 111.258 63.2599 109.957Z" fill="#333333"/>
</svg>
