<svg width="105" height="79" viewBox="0 0 105 79" fill="none" xmlns="http://www.w3.org/2000/svg">
<path d="M95.767 13.2031C88.6774 9.3857 15.0549 8.29493 6.32933 13.2031C-2.39627 18.1113 -0.214903 72.8646 6.32933 75.9185C14.5096 79.736 88.1321 78.1 95.767 73.1918C103.402 68.2836 102.857 17.0206 95.767 13.2031Z" fill="#FA4F4F"/>
<path fill-rule="evenodd" clip-rule="evenodd" d="M97.4429 71.1747C97.486 71.0106 97.5287 70.845 97.5713 70.6781C99.0366 64.9341 63.5236 35.4745 48.3993 35.6199C33.325 35.7649 -0.573018 65.6269 5.51199 75.2469C5.77646 75.5608 6.04951 75.7874 6.3306 75.9185C14.5109 79.736 88.1333 78.1 95.7683 73.1918C96.3784 72.7995 96.9364 72.1112 97.4429 71.1747Z" fill="#FF8A83"/>
<path fill-rule="evenodd" clip-rule="evenodd" d="M97.4429 71.1747C97.486 71.0106 97.5287 70.845 97.5713 70.6781C99.0366 64.9341 63.5236 35.4745 48.3993 35.6199C33.325 35.7649 -0.573018 65.6269 5.51199 75.2469C5.77646 75.5608 6.04951 75.7874 6.3306 75.9185C14.5109 79.736 88.1333 78.1 95.7683 73.1918C96.3784 72.7995 96.9364 72.1112 97.4429 71.1747Z" fill="#FF8A83"/>
<mask id="mask0" mask-type="alpha" maskUnits="userSpaceOnUse" x="0" y="9" width="102" height="70">
<path d="M95.767 13.2031C88.6774 9.3857 15.0549 8.29493 6.32933 13.2031C-2.39627 18.1113 -0.214903 72.8646 6.32933 75.9185C14.5096 79.736 88.1321 78.1 95.767 73.1918C103.402 68.2836 102.857 17.0206 95.767 13.2031Z" fill="#FA4F4F"/>
</mask>
<g mask="url(#mask0)">
<path d="M48.3764 56.8445C39.6459 56.8445 -0.618576 26.5039 4.15535 15.8038C5.06102 13.7738 5.50654 12.3539 5.63391 11.3857L0.917969 11.3542C0.917969 11.3542 6.17793 7.25029 5.63391 11.3857L91.3337 11.9583C98.5139 11.8156 96.8053 12.7382 98.3428 17.2434C102.912 30.6319 57.1069 56.8445 48.3764 56.8445Z" fill="#333333"/>
</g>
<mask id="mask1" mask-type="alpha" maskUnits="userSpaceOnUse" x="0" y="9" width="102" height="70">
<path d="M95.767 13.2031C88.6774 9.3857 15.0549 8.29493 6.32933 13.2031C-2.39627 18.1113 -0.214903 72.8646 6.32933 75.9185C14.5096 79.736 88.1321 78.1 95.767 73.1918C103.402 68.2836 102.857 17.0206 95.767 13.2031Z" fill="#FA4F4F"/>
</mask>
<g mask="url(#mask1)">
<path d="M48.5174 49.6906C39.7869 49.6907 -0.42827 21.5279 5.4806 13.8619L11.5161 7.90547L91.4747 4.80444C93.2157 7.04833 96.501 12.5641 97.8098 16.0222C100.753 23.7983 57.2479 49.6906 48.5174 49.6906Z" fill="#FF8A83"/>
</g>
<path d="M83.6719 22.069C77.7017 16.0989 81.0184 1.28405 91.1898 0.399551C101.361 -0.484948 104.899 4.02584 104.015 13.2243C102.909 24.7224 89.642 28.0392 83.6719 22.069Z" fill="white"/>
<path d="M91.0703 11.0014C93.3937 9.8193 93.3929 8.51933 93.7835 7.56824L92.6626 17.7075" stroke="#333333" stroke-width="4" stroke-linecap="round" stroke-linejoin="round"/>
</svg>
