<svg width="48" height="58" viewBox="0 0 48 58" fill="none" xmlns="http://www.w3.org/2000/svg">
<path d="M48 23.6296C48 34.8326 40.0815 44.2147 29.4545 46.6463C27.7022 47.0473 25.8763 58 24 58C22.1237 58 20.2978 47.0473 18.5455 46.6463C7.91846 44.2147 0 34.8326 0 23.6296C0 10.5793 10.7452 0 24 0C37.2548 0 48 10.5793 48 23.6296Z" fill="#EB292F"/>
<path fill-rule="evenodd" clip-rule="evenodd" d="M13.6474 27.0088C12.6329 23.4244 12.3936 20.957 12.3371 20.0158C12.94 19.2203 14.6309 17.1591 17.485 14.9423C20.3712 12.7007 23.028 11.6976 23.977 11.386C24.9293 11.7374 27.5951 12.8263 30.6047 14.9744C31.2602 15.4423 31.8493 15.9115 32.3748 16.367L23.6664 25.2944C23.3754 25.5927 22.9033 25.5987 22.6051 25.3079L17.5371 20.3667C17.2418 20.0788 16.7755 20.0815 16.4833 20.3726L14.4892 22.3601C14.1871 22.6611 14.1854 23.1556 14.4853 23.4588L22.6066 31.6702C22.9028 31.9696 23.3809 31.9688 23.676 31.6683L35.4597 19.6688C35.5347 19.772 35.5995 19.864 35.6541 19.9435C35.5499 20.9343 35.199 23.538 34.1463 26.9814C33.1096 30.3722 31.7683 32.9561 31.1965 33.9805C30.1384 34.2006 27.5431 34.6501 24.0052 34.6501C20.3945 34.6501 17.7656 34.1818 16.7507 33.9672C16.1486 33.0605 14.6629 30.5964 13.6474 27.0088ZM23.7969 10.0291C23.934 9.98722 24.0756 9.99076 24.2108 10.0383C25.0022 10.3163 27.9775 11.4507 31.3656 13.8689C34.7043 16.2519 36.4285 18.6843 36.8886 19.391C36.9742 19.5225 37.0113 19.678 36.997 19.8351C36.9224 20.6554 36.5956 23.5111 35.412 27.3827C34.2408 31.2138 32.6954 34.0501 32.2038 34.9039C32.1038 35.0774 31.9414 35.1979 31.7485 35.2413C30.8545 35.4419 28.0082 36 24.0052 36C19.9371 36 17.0636 35.4236 16.2199 35.2317C16.0523 35.1936 15.9074 35.0959 15.8083 34.9531C15.2816 34.1939 13.5337 31.4814 12.3736 27.3827C11.2254 23.3258 11.0329 20.6269 11.0006 19.836C10.9941 19.6778 11.0408 19.5254 11.1335 19.3982C11.6275 18.7205 13.4414 16.3851 16.6811 13.8689C19.9752 11.3105 22.9934 10.275 23.7969 10.0291Z" fill="white"/>
</svg>
