<svg width="209" height="124" viewBox="0 0 209 124" fill="none" xmlns="http://www.w3.org/2000/svg">
<g clip-path="url(#clip0)">
<path d="M37.3086 94.7039C32.6744 105.388 33.1893 117.489 39.3683 120.579C29.4124 117.961 8.7884 112.002 5.94002 109.107C2.37954 105.488 -0.924001 97.9221 0.234565 86.5939C1.39313 75.2658 10.1467 54.2828 17.9992 50.1634C25.8517 46.0441 42.4578 58.5309 45.1612 60.7193C47.8645 62.9077 55.202 69.7304 51.2114 73.3348C47.2208 76.9393 41.9429 84.0193 37.3086 94.7039Z" fill="#FA4F4F"/>
<path d="M51.212 119.807C55.2026 115.43 54.8165 112.855 49.4099 111.182C45.5051 109.465 36.3567 105.569 31.0015 103.716C24.3076 101.398 23.149 103.716 15.554 107.577C9.47795 110.667 4.35452 106.29 2.55231 103.716C3.79669 106.934 8.96304 114.658 19.6733 119.807C33.0612 126.243 47.2214 124.183 51.212 119.807Z" fill="#333333"/>
<path d="M139.326 63.0705C130.485 62.7318 130.761 62.4789 129.69 72.2951C128.618 82.1113 120.065 89.1673 116.083 90.9424C111.106 93.1613 124.995 100.458 133.221 99.126C141.446 97.7935 149.635 85.3229 152.125 74.6149C154.614 63.907 148.167 63.4092 139.326 63.0705Z" fill="#FF8A83"/>
<path d="M207.939 37.4727C206.241 43.3499 206.467 43.2234 199.79 41.7942C193.114 40.365 186.624 44.447 184.594 46.6751C182.056 49.4602 180.283 38.7579 182.945 33.6477C185.606 28.5375 195.571 25.8711 203.141 26.563C210.711 27.255 209.637 31.5956 207.939 37.4727Z" fill="#FF8A83"/>
<path d="M91.8433 23.992C88.9567 18.8968 77.4978 9.16598 71.5361 5.5791L64.0871 6.1158L55.1563 14.0102C52.3492 18.4565 51.5096 23.7234 51.6668 24.035C51.8632 24.4243 54.3971 23.6176 58.4667 25.2994C64.8751 27.9476 68.909 32.1573 71.9716 35.1522C75.0343 38.1472 78.4834 43.3322 81.4218 40.4992C84.3602 37.6662 94.7299 29.0872 91.8433 23.992Z" fill="#FA4F4F"/>
<path d="M63.1075 14.3116C65.9484 15.5086 65.6411 13.2605 66.6438 8.7103C67.6465 4.16008 72.3161 6.05632 72.3161 6.05632C70.1399 4.68241 66.2576 2.23138 58.6909 8.64555C51.8982 14.4036 50.9831 20.1196 51.4761 23.5253C51.6071 24.4295 52.1915 24.3191 52.1942 23.4055C52.1987 21.9065 52.4525 19.983 53.8313 17.9792C55.8296 15.075 60.0191 13.0104 63.1075 14.3116Z" fill="#333333"/>
</g>
<defs>
<clipPath id="clip0">
<rect width="209" height="124" fill="white"/>
</clipPath>
</defs>
</svg>
