<svg width="173" height="152" viewBox="0 0 173 152" fill="none" xmlns="http://www.w3.org/2000/svg">
<path d="M1.71556 121.097C-6.1056 112.363 14.863 114.529 23.4534 114.529L37.0653 95.0862C61.7613 90.0754 115.043 78.7217 138.522 78.4354C167.871 78.0774 246.965 98.2846 252.738 105.63C269.775 127.304 175.269 151.516 147.141 151.516C130.756 151.516 107.205 139.2 98.1309 138.746C89.0564 138.292 66.5009 142.565 57.1084 142.331C42.7919 141.973 4.93247 124.689 1.71556 121.097Z" fill="#E5E8F5"/>
<path d="M110.23 105.276C107.634 114.621 66.6158 135.39 58.8276 135.39C49.4816 135.39 8.35963 117.737 5.86738 113.583C2.75208 108.391 -1.40167 71.505 5.86738 64.7552C13.1364 58.0053 50.9444 84.2582 58.8276 81.3915C64.5389 79.3146 101.404 57.5075 107.634 58.0267C113.865 58.5459 112.826 95.9296 110.23 105.276Z" fill="#FA4F4F"/>
<mask id="mask0" mask-type="alpha" maskUnits="userSpaceOnUse" x="1" y="58" width="112" height="78">
<path d="M110.23 105.277C107.634 114.622 66.6158 135.391 58.8276 135.391C49.4816 135.391 8.35963 117.738 5.86738 113.584C2.75208 108.392 -1.40167 71.506 5.86738 64.7562C13.1364 58.0063 50.9444 84.2592 58.8276 81.3925C64.5389 79.3156 101.404 57.5085 107.634 58.0277C113.865 58.5469 112.826 95.9306 110.23 105.277Z" fill="#FA4F4F"/>
</mask>
<g mask="url(#mask0)">
<path d="M53.7323 128.389C57.2762 128.621 56.3607 118.883 55.9472 110.769C55.7464 106.827 50.63 106.254 49.5238 111.464C48.6379 115.638 48.0837 117.492 45.3154 117.492C41.5082 117.492 36.4556 117.956 38.0061 121.434C39.5565 124.911 50.1883 128.157 53.7323 128.389Z" fill="#FF8A83"/>
<path d="M101.233 128.041C100.66 129.349 74.3125 131.155 80.1799 122.871C83.0226 118.858 85.8799 120.429 85.357 115.278C84.3759 105.614 84.3759 83.6423 84.3759 75.4801V71.1654C88.1602 69.2041 96.0041 65.2032 97.105 64.8894C98.2059 64.5756 100.316 106.86 101.233 128.041Z" fill="#333333"/>
</g>
<path d="M10.6919 78.1115C7.29461 77.1452 8.07066 82.7497 8.26497 86.035C8.45927 89.3204 10.3804 90.3881 14.4962 91.5476C19.6409 92.997 18.2634 88.0642 18.1663 84.1991C18.0693 80.3339 14.0892 79.0777 10.6919 78.1115Z" fill="#F2F2F2"/>
<path d="M52.8811 42.2502C41.5027 43.1983 9.75181 60.1191 5.77014 64.8376C1.78848 69.556 40.4431 82.9585 57.6689 82.7234C74.8947 82.4883 109.103 58.5788 108.025 58.1023C106.799 57.5602 67.1996 41.057 52.8811 42.2502Z" fill="#FF8A83"/>
<path d="M27.8714 98.4203C23.3768 97.0983 22.7735 91.4725 22.6492 88.0178C22.525 84.563 22.1337 76.649 24.503 74.6587C30.5148 69.6088 38.9615 63.5943 48.5822 58.884C61.1576 52.727 73.9556 48.4493 78.6468 47.0017C80.484 46.4348 88.9185 49.9189 87.8952 50.1382C86.8719 50.3574 69.7452 56.5837 57.7835 62.8712C49.0865 67.4427 35.9353 76.0793 32.7626 77.7978C29.5899 79.5164 31.3085 87.6762 31.7051 92.8681C32.1016 98.06 32.366 99.7422 27.8714 98.4203Z" fill="#333333"/>
<path d="M143.646 3.38795C146.426 0.351553 147.563 0.536917 147.784 1.00915C149.391 1.98407 152.513 4.43455 152.143 6.43704C151.681 8.94016 153.958 8.62141 155.529 11.1303C157.099 13.6393 156.345 15.7187 154.042 19.1761C151.739 22.6334 155.056 22.6917 156.786 26.3395C158.516 29.9872 156.092 30.0941 153.239 32.5254C150.387 34.9566 154.023 37.2926 155.342 42.1588C156.662 47.0251 147.152 62.2268 145.139 61.1152C143.126 60.0036 144.535 39.6073 146.494 37.0108C148.453 34.4144 144.387 34.4028 142.102 31.7617C139.816 29.1207 143.027 26.7555 146.237 24.3903C149.448 22.0252 143.256 20.5113 140.938 18.049C138.619 15.5868 143.425 12.5919 145.139 10.32C146.853 8.04818 140.172 7.18346 143.646 3.38795Z" fill="#FF8A83"/>
<path d="M172.537 13.0663C171.585 10.3989 170.751 10.1426 170.453 10.3479C169.053 10.4024 166.159 10.8339 165.788 12.1237C165.325 13.7358 163.869 12.8188 162.017 13.7822C160.164 14.7456 160.031 16.2036 160.527 18.9642C161.023 21.7249 158.74 20.6947 156.424 22.273C154.108 23.8513 155.729 24.6913 156.919 27.0283C158.11 29.3653 154.901 29.5648 152.485 31.9873C150.07 34.4097 151.829 46.3503 153.549 46.3461C155.27 46.342 160.657 33.9622 160.128 31.8154C159.599 29.6686 162.377 30.9661 164.76 30.1548C167.142 29.3435 165.686 26.9304 164.231 24.5173C162.776 22.1042 167.474 23.2053 169.823 22.5091C172.172 21.813 169.823 18.5198 169.361 16.6414C168.898 14.7629 173.727 16.4007 172.537 13.0663Z" fill="#FF8A83"/>
<path d="M189.44 42.4188C191.291 40.2753 191.103 39.4237 190.778 39.2658C190.04 38.0741 190.132 35.0777 188.827 35.3909C187.196 35.7824 188.685 32.3436 186.933 31.2065C185.181 30.0693 181.145 27.6384 178.987 29.4306C176.83 31.2228 176.601 28.729 174.086 27.4919C171.571 26.2548 171.639 28.0791 170.193 30.267C168.746 32.4549 165.766 33.3221 162.468 32.4146C159.169 31.5071 150.872 35.3628 151.724 36.8575C152.576 38.3522 165.583 47.0028 167.19 45.4843C168.798 43.9659 169.457 36.9569 171.337 38.6295C173.217 40.3021 174.6 37.8465 175.982 35.3909L175.982 35.3909C177.364 32.9353 181.682 34.4482 183.445 36.1488C185.209 37.8494 183.357 42.7459 184.763 41.4173C186.169 40.0886 187.125 45.0981 189.44 42.4188Z" fill="#FF8A83"/>
<path d="M168.668 35.6189C166.572 38.2625 160.92 38.7182 156.18 42.0911L166.389 40.3591C167.453 39.174 169.689 36.5669 170.127 35.6189C170.674 34.4339 171.676 33.1576 172.953 32.7018C174.229 32.246 181.157 32.7018 183.892 33.8869C186.079 34.8349 187.112 37.8674 187.356 39.2652C187.082 37.4724 186.17 33.6499 184.712 32.7018C182.889 31.5168 175.414 31.4256 172.953 31.3345C170.491 31.2433 170.765 32.9753 168.668 35.6189Z" fill="#FA4F4F"/>
<path d="M148.657 29.6594C147.265 32.2578 150.327 43.7457 151.255 47.2721L152.354 44.847C151.766 42.6198 149.919 35.3759 149.399 33.0002C148.749 30.0306 150.513 28.7314 151.255 26.9682C151.997 25.205 151.441 21.3073 150.513 19.2657C149.585 17.2241 150.049 15.4608 150.049 13.1408C150.049 11.2848 148.378 7.66552 147.543 6.08789C147.914 7.35618 148.657 10.728 148.657 14.0688C148.657 18.2449 148.657 19.2657 149.399 21.3073C150.141 23.3489 150.049 27.061 148.657 29.6594Z" fill="#FA4F4F"/>
<path d="M155.857 35.6556C155.841 38.6033 154.52 43.358 152.023 46.0148L150.265 42.3688C151.844 40.6915 152.021 40.078 153.611 38.2378C155.598 35.9376 154.668 33.9547 154.857 32.0509C155.045 30.147 157.394 26.9869 159.183 25.6351C160.973 24.2833 161.406 22.5123 162.512 20.4731C163.398 18.8418 166.592 16.4575 168.079 15.4693C167.147 16.407 164.887 19.0164 163.293 21.9527C161.301 25.6231 160.814 26.5203 159.188 27.9607C157.562 29.401 155.873 32.7078 155.857 35.6556Z" fill="#FA4F4F"/>
<circle cx="130.261" cy="43.5535" r="18.9597" fill="#333333"/>
<path d="M145.625 40.1639C143.198 30.5677 138.121 27.8368 132.915 25.7695C132.558 26.0758 132.057 26.8721 132.915 27.6071C133.987 28.5259 140.846 33.5294 142.004 37.731C144.462 46.65 142.08 52.4363 139.707 56.8771C137.333 61.3179 139.729 57.8505 141.643 55.6301C143.558 53.4097 146.657 44.2464 145.625 40.1639Z" fill="#FF8A83"/>
<path d="M114.337 39.5196C111.895 49.1118 115.055 53.9328 118.646 58.2323C119.106 58.1334 119.926 57.6719 119.522 56.617C119.018 55.2983 115.374 47.6297 116.359 43.3843C118.451 34.3724 123.303 30.4217 127.507 27.6497C131.711 24.8777 127.951 26.7833 125.21 27.8225C122.469 28.8617 115.376 35.4387 114.337 39.5196Z" fill="#FF8A83"/>
<path d="M123.363 41.2615C123.798 34.8153 125.105 32.115 128.85 26.5399C129.576 26.2786 130.819 26.087 129.983 27.411C128.938 29.0661 127.544 36.0349 125.976 39.7806C124.408 43.5263 127.37 50.9307 129.46 53.8924C131.551 56.8541 127.892 55.6346 126.411 53.8924C124.931 52.1502 122.927 47.7076 123.363 41.2615Z" fill="#FF8A83"/>
<path d="M123.363 41.2615C123.798 34.8153 125.105 32.115 128.85 26.5399C129.576 26.2786 130.819 26.087 129.983 27.411C128.938 29.0661 127.544 36.0349 125.976 39.7806C124.408 43.5263 127.37 50.9307 129.46 53.8924C131.551 56.8541 127.892 55.6346 126.411 53.8924C124.931 52.1502 122.927 47.7076 123.363 41.2615Z" fill="#FF8A83"/>
<path d="M123.363 41.2615C123.798 34.8153 125.105 32.115 128.85 26.5399C129.576 26.2786 130.819 26.087 129.983 27.411C128.938 29.0661 127.544 36.0349 125.976 39.7806C124.408 43.5263 127.37 50.9307 129.46 53.8924C131.551 56.8541 127.892 55.6346 126.411 53.8924C124.931 52.1502 122.927 47.7076 123.363 41.2615Z" fill="#FF8A83"/>
<path d="M123.363 41.2615C123.798 34.8153 125.105 32.115 128.85 26.5399C129.576 26.2786 130.819 26.087 129.983 27.411C128.938 29.0661 127.544 36.0349 125.976 39.7806C124.408 43.5263 127.37 50.9307 129.46 53.8924C131.551 56.8541 127.892 55.6346 126.411 53.8924C124.931 52.1502 122.927 47.7076 123.363 41.2615Z" fill="#FF8A83"/>
<path d="M138.289 39.8717C138.608 46.3246 137.625 49.1589 134.555 55.1327C133.865 55.4769 132.653 55.8122 133.329 54.3996C134.174 52.6339 134.746 45.5502 135.866 41.6472C136.987 37.7441 133.182 30.7357 130.76 28.038C128.338 25.3403 132.114 26.1248 133.788 27.6825C135.462 29.2401 137.97 33.4187 138.289 39.8717Z" fill="#FF8A83"/>
<path d="M138.289 39.8717C138.608 46.3246 137.625 49.1589 134.555 55.1327C133.865 55.4769 132.653 55.8122 133.329 54.3996C134.174 52.6339 134.746 45.5502 135.866 41.6472C136.987 37.7441 133.182 30.7357 130.76 28.038C128.338 25.3403 132.114 26.1248 133.788 27.6825C135.462 29.2401 137.97 33.4187 138.289 39.8717Z" fill="#FF8A83"/>
<path d="M138.289 39.8717C138.608 46.3246 137.625 49.1589 134.555 55.1327C133.865 55.4769 132.653 55.8122 133.329 54.3996C134.174 52.6339 134.746 45.5502 135.866 41.6472C136.987 37.7441 133.182 30.7357 130.76 28.038C128.338 25.3403 132.114 26.1248 133.788 27.6825C135.462 29.2401 137.97 33.4187 138.289 39.8717Z" fill="#FF8A83"/>
<path d="M138.289 39.8717C138.608 46.3246 137.625 49.1589 134.555 55.1327C133.865 55.4769 132.653 55.8122 133.329 54.3996C134.174 52.6339 134.746 45.5502 135.866 41.6472C136.987 37.7441 133.182 30.7357 130.76 28.038C128.338 25.3403 132.114 26.1248 133.788 27.6825C135.462 29.2401 137.97 33.4187 138.289 39.8717Z" fill="#FF8A83"/>
<circle cx="101.4" cy="41.7346" r="7.43085" fill="#333333"/>
<path d="M102.755 6.30061C95.9949 13.3112 101.002 36.5965 104.758 60.3826C109.933 69.9805 120.282 84.1686 120.282 64.1383C120.282 39.1003 109.515 -0.710023 102.755 6.30061Z" fill="#FF8A83"/>
<path d="M105.728 27.4012C108.879 19.5969 113.832 15.6949 109.78 26.2005C106.538 34.6051 102.576 35.2054 105.728 27.4012Z" fill="#FA4F4F"/>
<path d="M107.642 38.0564C110.793 30.2522 115.746 26.3502 111.694 36.8558C108.452 45.2603 104.49 45.8607 107.642 38.0564Z" fill="#FA4F4F"/>
<path d="M110.04 48.8631C113.192 41.0589 118.145 37.1568 114.092 47.6625C110.851 56.067 106.888 56.6673 110.04 48.8631Z" fill="#FA4F4F"/>
<path d="M154.615 42.414C157.853 42.414 158.615 37.8802 160.299 24.8457L169.879 26.5459C169.528 31.8352 167.106 44.4287 170.781 45.7064C176.042 47.5358 173.831 60.1904 172.357 69.2579C170.883 78.3254 146.614 70.7499 148.088 58.7071C149.562 46.6644 151.345 42.414 154.615 42.414Z" fill="#333333"/>
<path d="M158.924 33.6393C158.754 33.0424 160.203 25.396 160.289 24.7422C163.501 25.0264 169.947 25.6632 170.038 25.9361C170.152 26.2772 169.413 33.4119 169.072 34.549C168.731 35.686 166.741 36.6524 163.728 35.9986C160.715 35.3449 159.095 34.2363 158.924 33.6393Z" fill="#FA4F4F"/>
<ellipse cx="165.203" cy="25.2824" rx="4.91719" ry="2.35602" transform="rotate(6.69524 165.203 25.2824)" fill="#333333"/>
<path d="M91.2984 124.748C87.4569 120.906 86.3279 47.8641 91.2984 43.8745C96.269 39.8849 137.719 56.575 147.64 56.1537C157.562 55.7325 171.053 46.8062 174.623 50.0625C178.194 53.3187 177.545 127.39 173.043 134.794C168.541 142.197 166.966 136.448 162.328 138.401C157.635 140.377 156.806 146.684 147.64 145.199C138.752 143.759 95.1399 128.589 91.2984 124.748Z" fill="#FA4F4F"/>
<path d="M149.213 125.631C150.593 110.79 150.593 109.409 150.593 101.471C150.593 93.5326 156.969 100.189 161.983 98.3646C165.604 97.047 165.089 88.0104 168.886 87.3201C174.998 86.2088 172.682 94.568 171.992 109.409C171.302 124.25 167.832 128.392 166.47 119.763C165.543 113.896 159.222 118.383 157.151 131.843C155.08 145.304 147.832 140.472 149.213 125.631Z" fill="#FF8A83"/>
<path fill-rule="evenodd" clip-rule="evenodd" d="M121.977 76.4445C122.104 76.436 122.235 76.483 122.359 76.5805C123.083 77.1512 125.806 79.4026 128.883 83.3085C131.914 87.1575 133.453 90.5771 133.863 91.5584C133.939 91.741 133.97 91.9374 133.953 92.1203C133.867 93.0752 133.503 96.379 132.326 100.634C131.161 104.845 129.672 107.757 129.2 108.626C129.104 108.802 128.951 108.897 128.772 108.89C127.942 108.859 125.302 108.663 121.605 107.453C117.849 106.222 115.208 104.667 114.433 104.183C114.279 104.087 114.147 103.927 114.059 103.727C113.589 102.663 112.034 98.902 111.051 93.6674C110.079 88.4863 109.96 85.2123 109.947 84.2602C109.945 84.0697 109.991 83.9022 110.079 83.7787C110.55 83.1206 112.276 80.8864 115.322 78.868C118.42 76.8156 121.229 76.4945 121.977 76.4445ZM112.849 93.5759C112.075 89.4527 111.874 86.6336 111.822 85.3534C112.476 84.5171 113.996 82.7804 116.414 81.1783C118.861 79.5567 121.106 79.1144 122.086 78.9949C123.062 79.8067 125.295 81.8043 127.78 84.9586C128.343 85.6739 128.849 86.3716 129.301 87.0362L121.781 94.3446C121.364 94.7506 120.702 94.5448 120.293 93.8819L116.219 87.2708C115.815 86.6146 115.161 86.4052 114.742 86.7977L113.383 88.0709C112.949 88.4767 112.931 89.3702 113.341 90.0562L120.158 101.453C120.563 102.13 121.233 102.348 121.657 101.94L132.04 91.9368C131.887 93.2555 131.492 95.9743 130.565 99.3274C129.636 102.684 128.489 105.17 127.893 106.344C126.804 106.258 124.582 105.971 121.65 105.011C118.639 104.025 116.392 102.824 115.347 102.213C114.77 100.805 113.621 97.6873 112.849 93.5759Z" fill="#F2F2F2"/>
</svg>
