<svg width="192" height="168" viewBox="0 0 192 168" fill="none" xmlns="http://www.w3.org/2000/svg">
<path d="M9.79489 144.306C4.25142 134.683 22.816 122.706 40.4271 114.269C58.0383 105.833 110.316 91.2999 120.336 88.1468C132.862 84.2055 143.985 85.0952 156.478 89.6189C167.606 93.6487 191.408 90.1237 191.005 100.014C190.71 107.275 185.006 104.949 162.443 112.438C139.881 119.928 142.068 126.941 157.597 122.133C173.126 117.325 189.734 122.453 177.127 128.369C164.521 134.286 68.4665 161.04 56.5552 162.038C44.6439 163.037 15.3383 153.93 9.79489 144.306Z" fill="#E5E8F5"/>
<path fill-rule="evenodd" clip-rule="evenodd" d="M83.6729 106.459C78.3334 110.38 79.0843 114.594 81.2952 116.721C83.5061 118.849 89.4834 118.781 91.724 114.594C94.2687 109.838 88.8874 103.164 83.6729 106.459ZM129.394 135.282C123.931 133.461 124.511 126.025 127.257 122.668C131.733 116.971 138.549 119.311 138.549 124.194C139.262 129.484 134.856 137.103 129.394 135.282ZM22.4709 130.363C18.6854 135.731 19.0982 142.063 25.2237 143.577C31.3493 145.091 33.5519 136.35 32.9324 132.427C32.313 128.504 26.325 126.027 22.4709 130.363ZM47.9362 142.025C43.788 146.627 43.8528 151.358 48.3899 154.729C52.927 158.099 59.1493 152.72 59.2141 147.664C59.2789 142.608 54.8715 136.386 47.9362 142.025Z" fill="#333333"/>
<path fill-rule="evenodd" clip-rule="evenodd" d="M86.5588 111.935C84.3091 111.212 79.0872 106.472 79.8905 104.704C80.453 103.633 82.2849 101.764 85.1129 102.857C88.6479 104.223 88.8084 112.658 86.5588 111.935ZM18.4914 126.932C17.1124 128.107 17.0101 131.172 20.5344 134.185C21.7735 135.245 22.5706 136.203 23.1988 136.958C24.3572 138.351 24.9412 139.054 26.6633 138.424C29.3192 137.454 27.4805 128.107 24.8756 126.932C22.7917 125.993 19.7512 126.541 18.4914 126.932ZM43.0185 138.673C41.83 139.541 42.79 143.747 47.4523 147.586C52.1147 151.426 53.4403 149.689 53.8516 146.855C54.263 144.021 52.2975 138.261 49.8749 137.941C47.9369 137.685 44.4964 138.322 43.0185 138.673ZM127.453 117.157C125.203 117.478 124.319 119.969 126.97 123.183C129.622 126.396 130.425 126.959 132.273 126.798C134.121 126.637 134.764 118.603 131.63 117.157C129.124 116 127.801 116.675 127.453 117.157Z" fill="#FF8A83"/>
<path fill-rule="evenodd" clip-rule="evenodd" d="M20.4879 128.629C16.847 128.75 18.546 125.231 20.4879 121.954C24.3447 115.446 31.7334 104.841 34.7432 100.86C35.1306 100.348 35.644 99.6523 36.2607 98.8174L36.2608 98.8173C41.6346 91.5416 54.849 73.6502 60.7814 73.6502C66.7661 73.6502 70.4419 79.8543 74.621 86.908L74.6211 86.9081C75.7026 88.7334 76.8177 90.6156 78.0153 92.4619C79.5649 94.8508 80.6937 96.7416 81.4885 98.2486C88.3677 92.3305 94.2546 87.6342 97.1442 85.9005C106.561 80.2504 114.385 90.9712 122.353 102.127C124.165 104.663 125.798 106.851 127.195 108.722C131.943 115.082 133.968 117.793 131.017 118.148C127.198 118.606 125.594 117.766 121.393 111.426C120.883 110.657 120.296 109.745 119.648 108.738C114.951 101.446 107.044 89.1667 102.145 90.0392C97.4384 90.8773 84.4408 103.022 73.2033 113.521C71.1269 115.461 69.1107 117.345 67.218 119.091C65.8709 120.334 64.6019 121.501 63.4112 122.596L63.4099 122.597C53.8731 131.366 49.3564 135.52 49.9643 136.993C50.6482 138.65 50.1603 140.428 46.4766 140.359C43.5296 140.305 42.1682 138.923 42.7929 136.993C43.729 134.876 47.0912 130.901 51.7404 126.056C49.0033 124.928 44.5995 123.097 41.2486 121.649C36.3441 119.53 30.5638 117.41 29.4221 118.273C26.5577 122.407 24.7055 125.293 24.7357 125.716C24.8571 127.415 24.1288 128.507 20.4879 128.629ZM33.1335 113.009C32.775 114.005 32.5674 114.923 33.8364 115.43C35.1883 115.971 50.2745 121.354 54.8056 122.921C61.6048 116.083 70.2432 108.082 78.0791 101.211C76.4859 99.0979 74.5192 95.9721 72.1898 91.855C66.971 82.6312 63.33 77.5338 59.0822 80.0825C56.3001 81.7518 42.3765 100.081 33.1335 113.009Z" fill="#333333"/>
<path d="M62.1997 18.1245C57.3437 20.183 16.1276 34.6605 5.82353 39.1612C2.97001 40.3406 1.54673 42.2582 1.19177 43.0696L4.04697 47.8071L23.4707 57.1636C29.7873 57.9927 42.5391 59.6508 43.0128 59.6508C43.4866 59.6508 110.477 34.9382 120.86 27.9504C121.747 22.9906 79.7256 24.8181 78.7847 19.2598C77.8437 13.7015 81.0955 10.6759 81.9787 9.55186C84.5843 6.23562 91.3352 1.49812 88.848 0.195312C86.3609 -1.1075 80.7943 4.34062 74.0434 9.55186C67.2925 14.7631 67.0556 16.0659 62.1997 18.1245Z" fill="#FF8A83"/>
<path d="M143.828 9.11217C141.111 10.6338 82.9637 6.82972 85.7896 2.59095C88.6155 -1.64782 147.958 4.76473 143.828 9.11217Z" fill="#333333"/>
<path d="M119.591 58.623C114.722 77.8768 108.525 80.7539 100.115 82.303C83.2962 85.2538 47.5772 91.111 39.256 90.934C28.8545 90.7127 11.3709 85.18 7.16607 81.1964C2.96122 77.2129 -2.88956 46.1253 1.85493 42.2462C6.59942 38.3671 31.0674 49.7707 36.6002 49.3281C42.1329 48.8854 81.5257 34.5004 102.55 28.0825C123.574 21.6645 116.935 21.886 125.566 16.1319C134.197 10.3779 143.492 2.63218 145.705 5.73049C147.918 8.82881 139.066 13.0336 132.205 18.7876C125.345 24.5416 124.459 39.3692 119.591 58.623Z" fill="#FA4F4F"/>
<path d="M42.6382 65.1488C42.4474 61.6791 42.7322 58.9291 47.8533 56.9073C52.9745 54.8855 59.0128 53.6833 58.9888 58.5321C58.9648 63.3808 56.203 66.0186 51.0409 67.2969C45.8788 68.5751 42.829 68.6186 42.6382 65.1488Z" fill="#F2F2F2"/>
<path d="M6.01983 55.0028C5.54102 49.7368 5.78055 47.8219 20.3818 52.1305C24.85 53.806 33.4989 57.8272 32.35 60.5081C30.9138 63.8592 27.0839 65.7742 18.7062 62.6624C10.3284 59.5507 6.49865 60.2688 6.01983 55.0028Z" fill="#F2F2F2"/>
<path d="M9.63816 72.5776C9.25977 68.4161 9.44907 66.9029 20.9878 70.3078C24.5187 71.6318 31.3536 74.8096 30.4456 76.9282C29.3107 79.5764 26.2841 81.0897 19.6636 78.6306C13.043 76.1716 10.0165 76.7391 9.63816 72.5776Z" fill="#F2F2F2"/>
<path d="M44.3866 80.4947C44.3866 77.8233 44.7213 75.7243 48.7377 74.3886C52.7541 73.0528 57.4399 72.385 57.2168 76.1059C56.9937 79.8269 54.7623 81.735 50.7459 82.4983C46.7295 83.2616 44.3866 83.1662 44.3866 80.4947Z" fill="#F2F2F2"/>
<path d="M65.8701 57.8603C65.8702 53.3624 66.3869 49.8284 72.5876 47.5795C78.7884 45.3305 86.0226 44.206 85.6781 50.4709C85.3336 56.7358 81.8888 59.9486 75.688 61.2337C69.4872 62.5188 65.8701 62.3582 65.8701 57.8603Z" fill="#F2F2F2"/>
<path d="M67.4435 75.1232C67.4435 71.8099 67.8242 69.2067 72.3918 67.5501C76.9595 65.8934 82.2884 65.065 82.0347 69.68C81.7809 74.2949 79.2433 76.6615 74.6756 77.6082C70.1079 78.5548 67.4434 78.4365 67.4435 75.1232Z" fill="#F2F2F2"/>
<path d="M92.9131 50.5431C92.9132 45.2022 93.4854 41.0059 100.352 38.3355C107.219 35.665 115.23 34.3298 114.849 41.7688C114.467 49.2079 110.652 53.0228 103.786 54.5487C96.9187 56.0747 92.9131 55.8839 92.9131 50.5431Z" fill="#F2F2F2"/>
<path d="M90.3319 71.6493C90.332 67.3612 90.7914 63.9921 96.3046 61.848C101.818 59.7039 108.25 58.6319 107.944 64.6046C107.637 70.5773 104.574 73.6402 99.0612 74.8654C93.5479 76.0905 90.3319 75.9374 90.3319 71.6493Z" fill="#F2F2F2"/>
</svg>
